<svg width="214" height="86" viewBox="0 0 214 86" fill="none" xmlns="http://www.w3.org/2000/svg">
<path d="M134.43 48.9392V34.8887H136.94V46.8056H143.044V48.9392H134.43Z" fill="black"/>
<path d="M149.267 49.1451C148.252 49.1451 147.373 48.9187 146.628 48.4659C145.884 48.0131 145.306 47.3796 144.896 46.5655C144.49 45.7513 144.287 44.8 144.287 43.7114C144.287 42.6229 144.49 41.6693 144.896 40.8506C145.306 40.0319 145.884 39.3961 146.628 38.9433C147.373 38.4905 148.252 38.2641 149.267 38.2641C150.282 38.2641 151.162 38.4905 151.906 38.9433C152.651 39.3961 153.226 40.0319 153.632 40.8506C154.043 41.6693 154.248 42.6229 154.248 43.7114C154.248 44.8 154.043 45.7513 153.632 46.5655C153.226 47.3796 152.651 48.0131 151.906 48.4659C151.162 48.9187 150.282 49.1451 149.267 49.1451ZM149.281 47.1555C149.831 47.1555 150.291 47.0023 150.661 46.6958C151.031 46.3848 151.306 45.9686 151.487 45.4472C151.672 44.9258 151.764 44.3449 151.764 43.7046C151.764 43.0597 151.672 42.4765 151.487 41.9551C151.306 41.4291 151.031 41.0106 150.661 40.6996C150.291 40.3886 149.831 40.2331 149.281 40.2331C148.717 40.2331 148.248 40.3886 147.873 40.6996C147.503 41.0106 147.226 41.4291 147.041 41.9551C146.861 42.4765 146.77 43.0597 146.77 43.7046C146.77 44.3449 146.861 44.9258 147.041 45.4472C147.226 45.9686 147.503 46.3848 147.873 46.6958C148.248 47.0023 148.717 47.1555 149.281 47.1555Z" fill="black"/>
<path d="M160.466 53.1105C159.586 53.1105 158.831 52.9893 158.199 52.7469C157.568 52.5091 157.06 52.1889 156.677 51.7864C156.293 51.3839 156.027 50.938 155.878 50.4486L158.084 49.9066C158.183 50.1124 158.328 50.3159 158.517 50.5172C158.707 50.723 158.962 50.8922 159.282 51.0249C159.607 51.1621 160.015 51.2307 160.507 51.2307C161.201 51.2307 161.777 51.0592 162.232 50.7161C162.688 50.3777 162.916 49.8197 162.916 49.0421V47.0457H162.794C162.668 47.3018 162.483 47.5648 162.239 47.8347C162 48.1045 161.682 48.3309 161.285 48.5139C160.892 48.6968 160.398 48.7883 159.803 48.7883C159.004 48.7883 158.28 48.5985 157.631 48.2189C156.986 47.8347 156.471 47.263 156.088 46.5037C155.709 45.7399 155.519 44.784 155.519 43.636C155.519 42.4788 155.709 41.5023 156.088 40.7065C156.471 39.9061 156.988 39.3001 157.638 38.8884C158.287 38.4722 159.011 38.2641 159.81 38.2641C160.419 38.2641 160.919 38.3693 161.312 38.5797C161.709 38.7855 162.025 39.0348 162.259 39.3275C162.494 39.6156 162.672 39.8878 162.794 40.1439H162.929V38.4013H165.345V49.1108C165.345 50.0118 165.133 50.7573 164.709 51.3473C164.285 51.9373 163.705 52.3787 162.97 52.6714C162.234 52.9641 161.4 53.1105 160.466 53.1105ZM160.486 46.8399C161.005 46.8399 161.447 46.7118 161.813 46.4557C162.178 46.1996 162.456 45.8314 162.645 45.3511C162.834 44.8709 162.929 44.2946 162.929 43.6222C162.929 42.9591 162.834 42.3782 162.645 41.8797C162.46 41.3811 162.185 40.9946 161.819 40.7202C161.459 40.4412 161.014 40.3017 160.486 40.3017C159.941 40.3017 159.485 40.4458 159.119 40.7339C158.754 41.0221 158.479 41.4177 158.294 41.9208C158.109 42.4194 158.016 42.9865 158.016 43.6222C158.016 44.2671 158.109 44.832 158.294 45.3168C158.483 45.7971 158.761 46.1721 159.126 46.442C159.496 46.7072 159.95 46.8399 160.486 46.8399Z" fill="black"/>
<path d="M172.008 49.1451C170.993 49.1451 170.113 48.9187 169.369 48.4659C168.625 48.0131 168.047 47.3796 167.637 46.5655C167.231 45.7513 167.028 44.8 167.028 43.7114C167.028 42.6229 167.231 41.6693 167.637 40.8506C168.047 40.0319 168.625 39.3961 169.369 38.9433C170.113 38.4905 170.993 38.2641 172.008 38.2641C173.023 38.2641 173.903 38.4905 174.647 38.9433C175.392 39.3961 175.967 40.0319 176.373 40.8506C176.783 41.6693 176.989 42.6229 176.989 43.7114C176.989 44.8 176.783 45.7513 176.373 46.5655C175.967 47.3796 175.392 48.0131 174.647 48.4659C173.903 48.9187 173.023 49.1451 172.008 49.1451ZM172.022 47.1555C172.572 47.1555 173.032 47.0023 173.402 46.6958C173.772 46.3848 174.047 45.9686 174.228 45.4472C174.413 44.9258 174.505 44.3449 174.505 43.7046C174.505 43.0597 174.413 42.4765 174.228 41.9551C174.047 41.4291 173.772 41.0106 173.402 40.6996C173.032 40.3886 172.572 40.2331 172.022 40.2331C171.458 40.2331 170.989 40.3886 170.614 40.6996C170.244 41.0106 169.967 41.4291 169.782 41.9551C169.601 42.4765 169.511 43.0597 169.511 43.7046C169.511 44.3449 169.601 44.9258 169.782 45.4472C169.967 45.9686 170.244 46.3848 170.614 46.6958C170.989 47.0023 171.458 47.1555 172.022 47.1555Z" fill="black"/>
<path d="M186.902 41.1867L184.669 41.4337C184.605 41.205 184.495 40.9901 184.337 40.7888C184.184 40.5876 183.976 40.4252 183.714 40.3017C183.453 40.1782 183.133 40.1165 182.754 40.1165C182.244 40.1165 181.815 40.2285 181.468 40.4526C181.125 40.6768 180.956 40.9672 180.96 41.3239C180.956 41.6304 181.066 41.8797 181.292 42.0717C181.522 42.2638 181.901 42.4216 182.429 42.5451L184.202 42.9293C185.185 43.1443 185.916 43.485 186.394 43.9516C186.877 44.4181 187.12 45.0287 187.125 45.7833C187.12 46.4465 186.929 47.032 186.55 47.5397C186.175 48.0428 185.654 48.4361 184.987 48.7197C184.319 49.0033 183.552 49.1451 182.686 49.1451C181.414 49.1451 180.39 48.8752 179.614 48.3355C178.838 47.7912 178.375 47.0343 178.227 46.0646L180.615 45.8314C180.724 46.307 180.954 46.6661 181.305 46.9085C181.657 47.1509 182.115 47.2721 182.679 47.2721C183.261 47.2721 183.728 47.1509 184.08 46.9085C184.436 46.6661 184.614 46.3665 184.614 46.0097C184.614 45.7079 184.499 45.4586 184.269 45.2619C184.044 45.0653 183.692 44.9143 183.214 44.8091L181.441 44.4318C180.444 44.2214 179.706 43.8669 179.228 43.3684C178.75 42.8653 178.513 42.2295 178.518 41.4612C178.513 40.8117 178.687 40.2491 179.039 39.7734C179.395 39.2932 179.889 38.9227 180.521 38.662C181.157 38.3967 181.89 38.2641 182.72 38.2641C183.938 38.2641 184.896 38.5271 185.596 39.0531C186.299 39.5791 186.735 40.2903 186.902 41.1867Z" fill="black"/>
<path d="M79.706 59.3615H26.4297V26.4941H79.706V59.3615ZM52.9808 29.154C43.2698 29.4439 35.575 33.5025 29.9979 41.4747C29.6623 41.8579 29.4773 42.3498 29.4773 42.859C29.4773 43.3682 29.6623 43.8601 29.9979 44.2432C40.746 60.5573 65.1431 60.6153 76.0435 44.3302C76.4125 43.929 76.6173 43.4039 76.6173 42.859C76.6173 42.314 76.4125 41.789 76.0435 41.3877C70.4011 33.4445 62.6918 29.3931 52.9808 29.154Z" fill="black"/>
<path d="M128.885 41.4364C118.006 25.2672 94.073 25.1585 83.0639 41.2262C82.2226 42.4365 82.15 43.3062 82.9986 44.5093C88.6555 52.3656 96.3358 56.3082 105.953 56.6126C115.584 56.243 123.235 52.2641 128.834 44.3716C129.208 43.9772 129.42 43.4571 129.43 42.9138C129.439 42.3706 129.245 41.8435 128.885 41.4364V41.4364ZM105.836 52.8439C103.864 52.8208 101.943 52.2137 100.316 51.0993C98.6887 49.985 97.4288 48.4134 96.6957 46.5834C95.9625 44.7535 95.7888 42.7473 96.1967 40.8187C96.6046 38.8901 97.5756 37.1257 98.9871 35.7487C100.399 34.3717 102.187 33.4439 104.126 33.0827C106.065 32.7215 108.068 32.9432 109.881 33.7196C111.694 34.496 113.236 35.7923 114.312 37.4446C115.388 39.0968 115.949 41.0308 115.925 43.0018C115.879 45.6393 114.794 48.1523 112.905 49.995C111.016 51.8378 108.476 52.8615 105.836 52.8439V52.8439Z" fill="black"/>
<path d="M53.0324 52.7671C51.0757 52.7442 49.1696 52.1432 47.5542 51.0398C45.9387 49.9364 44.6861 48.3799 43.9541 46.5664C43.2222 44.7529 43.0436 42.7635 43.4409 40.8488C43.8382 38.9341 44.7936 37.1797 46.1868 35.8066C47.58 34.4335 49.3486 33.5031 51.2699 33.1326C53.1913 32.7621 55.1794 32.968 56.9838 33.7245C58.7882 34.481 60.3282 35.7542 61.41 37.3836C62.4917 39.0131 63.0666 40.9261 63.0625 42.8815C63.0559 44.1894 62.7909 45.4832 62.2828 46.6885C61.7747 47.8939 61.0334 48.9872 60.1016 49.9056C59.1697 50.824 58.0655 51.5496 56.8524 52.0406C55.6393 52.5317 54.3412 52.7785 53.0324 52.7671V52.7671Z" fill="black"/>
</svg>
