<svg width="40" height="42" viewBox="0 0 40 42" fill="none" xmlns="http://www.w3.org/2000/svg">
<path d="M6.27148 33.3392V26.4297H7.52316V32.29H10.5663V33.3392H6.27148Z" fill="black"/>
<path d="M13.6691 33.4404C13.163 33.4404 12.7244 33.3291 12.3533 33.1064C11.9822 32.8838 11.6943 32.5722 11.4896 32.1719C11.2872 31.7715 11.186 31.3037 11.186 30.7684C11.186 30.2331 11.2872 29.7641 11.4896 29.3615C11.6943 28.9589 11.9822 28.6463 12.3533 28.4236C12.7244 28.2009 13.163 28.0896 13.6691 28.0896C14.1752 28.0896 14.6138 28.2009 14.9849 28.4236C15.356 28.6463 15.6428 28.9589 15.8452 29.3615C16.0499 29.7641 16.1522 30.2331 16.1522 30.7684C16.1522 31.3037 16.0499 31.7715 15.8452 32.1719C15.6428 32.5722 15.356 32.8838 14.9849 33.1064C14.6138 33.3291 14.1752 33.4404 13.6691 33.4404ZM13.6758 32.462C13.9502 32.462 14.1797 32.3867 14.3641 32.236C14.5485 32.083 14.6857 31.8784 14.7757 31.622C14.8679 31.3656 14.914 31.0799 14.914 30.765C14.914 30.4479 14.8679 30.1611 14.7757 29.9047C14.6857 29.646 14.5485 29.4402 14.3641 29.2873C14.1797 29.1343 13.9502 29.0579 13.6758 29.0579C13.3947 29.0579 13.1608 29.1343 12.9741 29.2873C12.7897 29.4402 12.6513 29.646 12.5591 29.9047C12.4692 30.1611 12.4242 30.4479 12.4242 30.765C12.4242 31.0799 12.4692 31.3656 12.5591 31.622C12.6513 31.8784 12.7897 32.083 12.9741 32.236C13.1608 32.3867 13.3947 32.462 13.6758 32.462Z" fill="black"/>
<path d="M19.2525 35.3905C18.8139 35.3905 18.4371 35.3309 18.1222 35.2117C17.8074 35.0947 17.5543 34.9373 17.3631 34.7393C17.172 34.5414 17.0393 34.3221 16.965 34.0815L18.0649 33.8149C18.1144 33.9161 18.1863 34.0162 18.2808 34.1152C18.3753 34.2164 18.5024 34.2996 18.6621 34.3649C18.824 34.4323 19.0275 34.4661 19.2727 34.4661C19.6191 34.4661 19.9058 34.3817 20.133 34.213C20.3602 34.0466 20.4738 33.7722 20.4738 33.3898V32.4081H20.413C20.3501 32.534 20.2578 32.6633 20.1364 32.796C20.0172 32.9287 19.8586 33.0401 19.6607 33.13C19.465 33.22 19.2187 33.265 18.9218 33.265C18.5237 33.265 18.1627 33.1717 17.8388 32.985C17.5172 32.796 17.2608 32.5149 17.0696 32.1415C16.8807 31.7659 16.7862 31.2958 16.7862 30.7313C16.7862 30.1622 16.8807 29.682 17.0696 29.2907C17.2608 28.8971 17.5183 28.599 17.8422 28.3966C18.1661 28.1919 18.5271 28.0896 18.9252 28.0896C19.2288 28.0896 19.4785 28.1413 19.6742 28.2448C19.8721 28.346 20.0296 28.4686 20.1465 28.6125C20.2635 28.7542 20.3523 28.8881 20.413 29.014H20.4805V28.1571H21.685V33.4236C21.685 33.8667 21.5792 34.2333 21.3678 34.5234C21.1564 34.8136 20.8674 35.0306 20.5008 35.1746C20.1341 35.3185 19.718 35.3905 19.2525 35.3905ZM19.2626 32.3068C19.5212 32.3068 19.7417 32.2439 19.9238 32.1179C20.106 31.992 20.2444 31.8109 20.3388 31.5747C20.4333 31.3386 20.4805 31.0552 20.4805 30.7245C20.4805 30.3984 20.4333 30.1127 20.3388 29.8676C20.2466 29.6224 20.1094 29.4324 19.9272 29.2974C19.7473 29.1602 19.5257 29.0916 19.2626 29.0916C18.9904 29.0916 18.7633 29.1625 18.5811 29.3042C18.3989 29.4459 18.2617 29.6404 18.1695 29.8878C18.0773 30.133 18.0312 30.4119 18.0312 30.7245C18.0312 31.0417 18.0773 31.3194 18.1695 31.5579C18.2639 31.794 18.4023 31.9785 18.5845 32.1112C18.7689 32.2416 18.9949 32.3068 19.2626 32.3068Z" fill="black"/>
<path d="M25.007 33.4404C24.501 33.4404 24.0624 33.3291 23.6913 33.1064C23.3202 32.8838 23.0323 32.5722 22.8276 32.1719C22.6252 31.7715 22.5239 31.3037 22.5239 30.7684C22.5239 30.2331 22.6252 29.7641 22.8276 29.3615C23.0323 28.9589 23.3202 28.6463 23.6913 28.4236C24.0624 28.2009 24.501 28.0896 25.007 28.0896C25.5131 28.0896 25.9517 28.2009 26.3228 28.4236C26.6939 28.6463 26.9807 28.9589 27.1831 29.3615C27.3878 29.7641 27.4901 30.2331 27.4901 30.7684C27.4901 31.3037 27.3878 31.7715 27.1831 32.1719C26.9807 32.5722 26.6939 32.8838 26.3228 33.1064C25.9517 33.3291 25.5131 33.4404 25.007 33.4404ZM25.0138 32.462C25.2882 32.462 25.5176 32.3867 25.702 32.236C25.8865 32.083 26.0237 31.8784 26.1136 31.622C26.2059 31.3656 26.252 31.0799 26.252 30.765C26.252 30.4479 26.2059 30.1611 26.1136 29.9047C26.0237 29.646 25.8865 29.4402 25.702 29.2873C25.5176 29.1343 25.2882 29.0579 25.0138 29.0579C24.7326 29.0579 24.4987 29.1343 24.312 29.2873C24.1276 29.4402 23.9893 29.646 23.8971 29.9047C23.8071 30.1611 23.7621 30.4479 23.7621 30.765C23.7621 31.0799 23.8071 31.3656 23.8971 31.622C23.9893 31.8784 24.1276 32.083 24.312 32.236C24.4987 32.3867 24.7326 32.462 25.0138 32.462Z" fill="black"/>
<path d="M32.4325 29.5268L31.3191 29.6483C31.2877 29.5358 31.2325 29.4301 31.1538 29.3312C31.0774 29.2322 30.9739 29.1523 30.8434 29.0916C30.713 29.0309 30.5533 29.0005 30.3644 29.0005C30.1102 29.0005 29.8965 29.0556 29.7233 29.1658C29.5524 29.276 29.4681 29.4189 29.4703 29.5943C29.4681 29.745 29.5232 29.8676 29.6356 29.9621C29.7503 30.0565 29.9393 30.1341 30.2024 30.1948L31.0864 30.3838C31.5767 30.4895 31.941 30.6571 32.1795 30.8865C32.4201 31.1159 32.5416 31.4162 32.5438 31.7873C32.5416 32.1134 32.446 32.4013 32.257 32.651C32.0704 32.8984 31.8106 33.0918 31.4777 33.2313C31.1448 33.3707 30.7625 33.4404 30.3306 33.4404C29.6964 33.4404 29.1858 33.3077 28.7989 33.0423C28.4121 32.7747 28.1815 32.4024 28.1073 31.9256L29.2982 31.8109C29.3522 32.0448 29.4669 32.2214 29.6424 32.3406C29.8178 32.4598 30.0461 32.5194 30.3273 32.5194C30.6174 32.5194 30.8502 32.4598 31.0256 32.3406C31.2033 32.2214 31.2921 32.074 31.2921 31.8986C31.2921 31.7502 31.2348 31.6276 31.1201 31.5309C31.0076 31.4342 30.8322 31.3599 30.5938 31.3082L29.7099 31.1226C29.2128 31.0192 28.845 30.8449 28.6066 30.5997C28.3682 30.3523 28.2501 30.0396 28.2524 29.6618C28.2501 29.3424 28.3367 29.0657 28.5122 28.8318C28.6898 28.5957 28.9361 28.4135 29.251 28.2853C29.5682 28.1548 29.9336 28.0896 30.3475 28.0896C30.9548 28.0896 31.4327 28.2189 31.7813 28.4776C32.1322 28.7362 32.3493 29.086 32.4325 29.5268Z" fill="black"/>
<path d="M26.3404 23.3591H12.5801V14.7638H26.3274L26.3404 23.3591ZM19.445 15.4533C18.2706 15.4546 17.1145 15.7495 16.0796 16.3119C15.0447 16.8742 14.1629 17.6867 13.5125 18.6771C13.4264 18.7777 13.379 18.9064 13.379 19.0395C13.379 19.1726 13.4264 19.3012 13.5125 19.4018C14.1671 20.3877 15.0506 21.1958 16.0854 21.7552C17.1203 22.3147 18.2749 22.6084 19.448 22.6105C20.621 22.6127 21.7767 22.3233 22.8136 21.7677C23.8504 21.2121 24.7368 20.4072 25.395 19.4238C25.4888 19.3175 25.5407 19.1799 25.5407 19.0373C25.5407 18.8947 25.4888 18.7571 25.395 18.6508C24.7386 17.6644 23.8524 16.857 22.8146 16.3001C21.7768 15.7432 20.6195 15.4539 19.445 15.4577V15.4533Z" fill="black"/>
<path d="M19.4841 13.96C18.3171 13.9576 17.1681 13.6687 16.1356 13.1179C15.1031 12.5671 14.2179 11.771 13.5558 10.7977C13.4455 10.6788 13.384 10.5217 13.384 10.3585C13.384 10.1953 13.4455 10.0382 13.5558 9.91928C14.2175 8.94775 15.1033 8.15446 16.1364 7.6083C17.1694 7.06214 18.3185 6.77961 19.4838 6.78524C20.6491 6.79086 21.7955 7.08448 22.8233 7.64059C23.8512 8.1967 24.7295 8.99849 25.382 9.97637C25.4755 10.0819 25.5273 10.2188 25.5273 10.3607C25.5273 10.5025 25.4755 10.6394 25.382 10.745C24.7303 11.7254 23.8528 12.5304 22.8252 13.0905C21.7977 13.6506 20.651 13.9491 19.4841 13.96ZM22.0514 10.4024C22.0635 9.87875 21.9212 9.36334 21.6427 8.92196C21.3642 8.48058 20.9622 8.13328 20.4879 7.92436C20.0137 7.71544 19.4887 7.65439 18.98 7.74902C18.4713 7.84366 18.002 8.08967 17.632 8.45565C17.262 8.82163 17.0081 9.29097 16.9027 9.80377C16.7973 10.3166 16.8452 10.8495 17.0402 11.3347C17.2352 11.8198 17.5686 12.235 17.9977 12.5274C18.4268 12.8198 18.9322 12.976 19.4494 12.9762C20.1291 12.9764 20.7819 12.7072 21.2682 12.2262C21.7544 11.7452 22.0355 11.0906 22.0514 10.4024Z" fill="black"/>
<path d="M19.4579 21.6329C18.9536 21.6243 18.4631 21.4649 18.048 21.1747C17.6329 20.8846 17.3117 20.4766 17.1248 20.0022C16.9379 19.5277 16.8937 19.0079 16.9976 18.5081C17.1015 18.0082 17.349 17.5506 17.7089 17.1927C18.0688 16.8349 18.5252 16.5928 19.0206 16.4968C19.516 16.4008 20.0283 16.4552 20.4932 16.6533C20.9582 16.8513 21.3549 17.1841 21.6337 17.6098C21.9124 18.0355 22.0607 18.5352 22.06 19.046C22.0588 19.3895 21.9904 19.7293 21.8587 20.0458C21.727 20.3623 21.5345 20.6492 21.2924 20.8899C21.0504 21.1305 20.7637 21.3201 20.4487 21.4476C20.1338 21.5752 19.7971 21.6382 19.4579 21.6329Z" fill="black"/>
</svg>
