<svg width="40" height="42" viewBox="0 0 40 42" fill="none" xmlns="http://www.w3.org/2000/svg">
<path d="M6.63086 33.5814V26.6719H7.88253V32.5322H10.9257V33.5814H6.63086Z" fill="white"/>
<path d="M14.0285 33.6826C13.5224 33.6826 13.0838 33.5713 12.7127 33.3486C12.3416 33.1259 12.0537 32.8144 11.849 32.4141C11.6466 32.0137 11.5454 31.5459 11.5454 31.0106C11.5454 30.4753 11.6466 30.0063 11.849 29.6037C12.0537 29.2011 12.3416 28.8885 12.7127 28.6658C13.0838 28.4431 13.5224 28.3318 14.0285 28.3318C14.5345 28.3318 14.9731 28.4431 15.3442 28.6658C15.7154 28.8885 16.0021 29.2011 16.2046 29.6037C16.4092 30.0063 16.5116 30.4753 16.5116 31.0106C16.5116 31.5459 16.4092 32.0137 16.2046 32.4141C16.0021 32.8144 15.7154 33.1259 15.3442 33.3486C14.9731 33.5713 14.5345 33.6826 14.0285 33.6826ZM14.0352 32.7042C14.3096 32.7042 14.539 32.6289 14.7235 32.4782C14.9079 32.3252 15.0451 32.1206 15.1351 31.8641C15.2273 31.6077 15.2734 31.3221 15.2734 31.0072C15.2734 30.6901 15.2273 30.4033 15.1351 30.1469C15.0451 29.8882 14.9079 29.6824 14.7235 29.5295C14.539 29.3765 14.3096 29.3001 14.0352 29.3001C13.7541 29.3001 13.5202 29.3765 13.3335 29.5295C13.149 29.6824 13.0107 29.8882 12.9185 30.1469C12.8285 30.4033 12.7835 30.6901 12.7835 31.0072C12.7835 31.3221 12.8285 31.6077 12.9185 31.8641C13.0107 32.1206 13.149 32.3252 13.3335 32.4782C13.5202 32.6289 13.7541 32.7042 14.0352 32.7042Z" fill="white"/>
<path d="M19.6118 35.6327C19.1732 35.6327 18.7965 35.5731 18.4816 35.4539C18.1667 35.3369 17.9137 35.1795 17.7225 34.9815C17.5313 34.7836 17.3986 34.5643 17.3244 34.3236L18.4243 34.0571C18.4737 34.1583 18.5457 34.2584 18.6402 34.3574C18.7347 34.4586 18.8617 34.5418 19.0214 34.607C19.1834 34.6745 19.3869 34.7083 19.6321 34.7083C19.9785 34.7083 20.2652 34.6239 20.4924 34.4552C20.7196 34.2888 20.8331 34.0144 20.8331 33.632V32.6502H20.7724C20.7094 32.7762 20.6172 32.9055 20.4958 33.0382C20.3766 33.1709 20.218 33.2823 20.0201 33.3722C19.8244 33.4622 19.5781 33.5072 19.2812 33.5072C18.8831 33.5072 18.5221 33.4138 18.1982 33.2272C17.8766 33.0382 17.6202 32.7571 17.429 32.3837C17.2401 32.0081 17.1456 31.538 17.1456 30.9735C17.1456 30.4044 17.2401 29.9242 17.429 29.5329C17.6202 29.1392 17.8777 28.8412 18.2016 28.6388C18.5255 28.4341 18.8865 28.3318 19.2846 28.3318C19.5882 28.3318 19.8379 28.3835 20.0336 28.487C20.2315 28.5882 20.3889 28.7108 20.5059 28.8547C20.6228 28.9964 20.7117 29.1302 20.7724 29.2562H20.8399V28.3993H22.0443V33.6658C22.0443 34.1088 21.9386 34.4755 21.7272 34.7656C21.5158 35.0558 21.2267 35.2728 20.8601 35.4168C20.4935 35.5607 20.0774 35.6327 19.6118 35.6327ZM19.622 32.549C19.8806 32.549 20.101 32.4861 20.2832 32.3601C20.4654 32.2341 20.6037 32.0531 20.6982 31.8169C20.7927 31.5807 20.8399 31.2973 20.8399 30.9667C20.8399 30.6406 20.7927 30.3549 20.6982 30.1098C20.606 29.8646 20.4688 29.6746 20.2866 29.5396C20.1067 29.4024 19.8851 29.3338 19.622 29.3338C19.3498 29.3338 19.1226 29.4046 18.9405 29.5463C18.7583 29.688 18.6211 29.8826 18.5289 30.13C18.4366 30.3752 18.3905 30.6541 18.3905 30.9667C18.3905 31.2839 18.4366 31.5616 18.5289 31.8C18.6233 32.0362 18.7616 32.2206 18.9438 32.3533C19.1283 32.4838 19.3543 32.549 19.622 32.549Z" fill="white"/>
<path d="M25.3664 33.6826C24.8604 33.6826 24.4218 33.5713 24.0506 33.3486C23.6795 33.1259 23.3916 32.8144 23.187 32.4141C22.9845 32.0137 22.8833 31.5459 22.8833 31.0106C22.8833 30.4753 22.9845 30.0063 23.187 29.6037C23.3916 29.2011 23.6795 28.8885 24.0506 28.6658C24.4218 28.4431 24.8604 28.3318 25.3664 28.3318C25.8725 28.3318 26.3111 28.4431 26.6822 28.6658C27.0533 28.8885 27.3401 29.2011 27.5425 29.6037C27.7472 30.0063 27.8495 30.4753 27.8495 31.0106C27.8495 31.5459 27.7472 32.0137 27.5425 32.4141C27.3401 32.8144 27.0533 33.1259 26.6822 33.3486C26.3111 33.5713 25.8725 33.6826 25.3664 33.6826ZM25.3732 32.7042C25.6476 32.7042 25.877 32.6289 26.0614 32.4782C26.2458 32.3252 26.3831 32.1206 26.473 31.8641C26.5652 31.6077 26.6113 31.3221 26.6113 31.0072C26.6113 30.6901 26.5652 30.4033 26.473 30.1469C26.3831 29.8882 26.2458 29.6824 26.0614 29.5295C25.877 29.3765 25.6476 29.3001 25.3732 29.3001C25.092 29.3001 24.8581 29.3765 24.6714 29.5295C24.487 29.6824 24.3487 29.8882 24.2564 30.1469C24.1665 30.4033 24.1215 30.6901 24.1215 31.0072C24.1215 31.3221 24.1665 31.6077 24.2564 31.8641C24.3487 32.1206 24.487 32.3252 24.6714 32.4782C24.8581 32.6289 25.092 32.7042 25.3732 32.7042Z" fill="white"/>
<path d="M32.7919 29.769L31.6785 29.8905C31.647 29.778 31.5919 29.6723 31.5132 29.5733C31.4367 29.4744 31.3333 29.3945 31.2028 29.3338C31.0724 29.2731 30.9127 29.2427 30.7237 29.2427C30.4696 29.2427 30.2559 29.2978 30.0827 29.408C29.9118 29.5182 29.8274 29.6611 29.8297 29.8365C29.8274 29.9872 29.8825 30.1098 29.995 30.2042C30.1097 30.2987 30.2986 30.3763 30.5618 30.437L31.4457 30.626C31.9361 30.7317 32.3004 30.8992 32.5388 31.1287C32.7795 31.3581 32.901 31.6583 32.9032 32.0295C32.901 32.3556 32.8054 32.6435 32.6164 32.8932C32.4297 33.1406 32.17 33.334 31.8371 33.4734C31.5042 33.6129 31.1218 33.6826 30.69 33.6826C30.0557 33.6826 29.5452 33.5499 29.1583 33.2845C28.7714 33.0169 28.5409 32.6446 28.4667 32.1678L29.6576 32.0531C29.7116 32.287 29.8263 32.4636 30.0018 32.5828C30.1772 32.702 30.4055 32.7616 30.6866 32.7616C30.9768 32.7616 31.2096 32.702 31.385 32.5828C31.5627 32.4636 31.6515 32.3162 31.6515 32.1408C31.6515 31.9924 31.5942 31.8698 31.4795 31.7731C31.367 31.6763 31.1916 31.6021 30.9532 31.5504L30.0692 31.3648C29.5722 31.2614 29.2044 31.087 28.966 30.8419C28.7276 30.5945 28.6095 30.2818 28.6118 29.904C28.6095 29.5846 28.6961 29.3079 28.8715 29.074C29.0492 28.8379 29.2955 28.6557 29.6104 28.5275C29.9275 28.397 30.293 28.3318 30.7069 28.3318C31.3142 28.3318 31.7921 28.4611 32.1407 28.7198C32.4916 28.9784 32.7086 29.3282 32.7919 29.769Z" fill="white"/>
<path d="M26.3775 23.3082H12.6172V14.7129H26.3644L26.3775 23.3082ZM19.4821 15.4025C18.3077 15.4037 17.1516 15.6986 16.1167 16.261C15.0818 16.8234 14.2 17.6358 13.5496 18.6263C13.4635 18.7269 13.4162 18.8555 13.4162 18.9886C13.4162 19.1217 13.4635 19.2503 13.5496 19.3509C14.2042 20.3368 15.0877 21.1449 16.1225 21.7043C17.1574 22.2638 18.312 22.5574 19.485 22.5596C20.6581 22.5618 21.8138 22.2724 22.8506 21.7168C23.8875 21.1612 24.7739 20.3563 25.432 19.3729C25.5259 19.2666 25.5778 19.129 25.5778 18.9864C25.5778 18.8438 25.5259 18.7062 25.432 18.5999C24.7757 17.6135 23.8894 16.8062 22.8517 16.2492C21.8139 15.6923 20.6566 15.403 19.4821 15.4069V15.4025Z" fill="white"/>
<path d="M19.5212 13.9092C18.3542 13.9068 17.2052 13.6179 16.1727 13.0671C15.1402 12.5163 14.255 11.7202 13.5929 10.7469C13.4826 10.628 13.4211 10.4709 13.4211 10.3077C13.4211 10.1445 13.4826 9.98739 13.5929 9.86847C14.2546 8.89695 15.1404 8.10367 16.1735 7.55751C17.2065 7.01136 18.3556 6.72883 19.5209 6.73446C20.6862 6.74008 21.8326 7.03369 22.8604 7.5898C23.8883 8.14591 24.7666 8.94769 25.419 9.92556C25.5126 10.0311 25.5644 10.168 25.5644 10.3099C25.5644 10.4517 25.5126 10.5886 25.419 10.6942C24.7674 11.6745 23.8899 12.4795 22.8623 13.0397C21.8348 13.5998 20.6881 13.8982 19.5212 13.9092ZM22.0885 10.3516C22.1006 9.82794 21.9583 9.31254 21.6798 8.87116C21.4013 8.42979 20.9993 8.08248 20.525 7.87357C20.0508 7.66465 19.5258 7.6036 19.0171 7.69824C18.5084 7.79287 18.0391 8.03888 17.6691 8.40485C17.2991 8.77083 17.0452 9.24017 16.9398 9.75296C16.8344 10.2658 16.8823 10.7987 17.0773 11.2838C17.2723 11.769 17.6057 12.1842 18.0348 12.4766C18.4639 12.769 18.9693 12.9252 19.4865 12.9253C20.1662 12.9255 20.819 12.6563 21.3052 12.1754C21.7915 11.6944 22.0726 11.0398 22.0885 10.3516Z" fill="white"/>
<path d="M19.495 21.582C18.9907 21.5734 18.5002 21.4139 18.0851 21.1238C17.67 20.8337 17.3488 20.4257 17.1619 19.9513C16.975 19.4768 16.9308 18.957 17.0347 18.4572C17.1386 17.9573 17.3861 17.4997 17.746 17.1419C18.1059 16.784 18.5623 16.5419 19.0577 16.4459C19.553 16.3499 20.0654 16.4044 20.5303 16.6024C20.9953 16.8004 21.392 17.1332 21.6708 17.5589C21.9495 17.9846 22.0978 18.4843 22.097 18.9951C22.0959 19.3386 22.0275 19.6784 21.8958 19.9949C21.764 20.3114 21.5716 20.5983 21.3295 20.839C21.0875 21.0796 20.8007 21.2692 20.4858 21.3967C20.1709 21.5243 19.8342 21.5872 19.495 21.582Z" fill="white"/>
</svg>
