<svg width="70" height="22" viewBox="0 0 70 22" fill="none" xmlns="http://www.w3.org/2000/svg">
<path d="M36.3867 14.4291V7.51953H37.6384V13.3798H40.6815V14.4291H36.3867Z" fill="black"/>
<path d="M43.7843 14.5303C43.2783 14.5303 42.8397 14.4189 42.4686 14.1963C42.0974 13.9736 41.8095 13.6621 41.6049 13.2617C41.4024 12.8614 41.3012 12.3935 41.3012 11.8582C41.3012 11.3229 41.4024 10.854 41.6049 10.4514C41.8095 10.0488 42.0974 9.73612 42.4686 9.51345C42.8397 9.29077 43.2783 9.17944 43.7843 9.17944C44.2904 9.17944 44.729 9.29077 45.1001 9.51345C45.4712 9.73612 45.758 10.0488 45.9604 10.4514C46.1651 10.854 46.2674 11.3229 46.2674 11.8582C46.2674 12.3935 46.1651 12.8614 45.9604 13.2617C45.758 13.6621 45.4712 13.9736 45.1001 14.1963C44.729 14.4189 44.2904 14.5303 43.7843 14.5303ZM43.7911 13.5519C44.0655 13.5519 44.2949 13.4765 44.4793 13.3258C44.6638 13.1729 44.801 12.9682 44.8909 12.7118C44.9831 12.4554 45.0293 12.1697 45.0293 11.8549C45.0293 11.5377 44.9831 11.2509 44.8909 10.9945C44.801 10.7359 44.6638 10.5301 44.4793 10.3771C44.2949 10.2242 44.0655 10.1477 43.7911 10.1477C43.5099 10.1477 43.276 10.2242 43.0893 10.3771C42.9049 10.5301 42.7666 10.7359 42.6744 10.9945C42.5844 11.2509 42.5394 11.5377 42.5394 11.8549C42.5394 12.1697 42.5844 12.4554 42.6744 12.7118C42.7666 12.9682 42.9049 13.1729 43.0893 13.3258C43.276 13.4765 43.5099 13.5519 43.7911 13.5519Z" fill="black"/>
<path d="M49.3677 16.4803C48.9291 16.4803 48.5524 16.4207 48.2375 16.3015C47.9226 16.1846 47.6696 16.0271 47.4784 15.8292C47.2872 15.6313 47.1545 15.412 47.0803 15.1713L48.1801 14.9048C48.2296 15.006 48.3016 15.1061 48.396 15.205C48.4905 15.3063 48.6176 15.3895 48.7773 15.4547C48.9392 15.5222 49.1428 15.5559 49.3879 15.5559C49.7343 15.5559 50.0211 15.4716 50.2483 15.3029C50.4754 15.1364 50.589 14.862 50.589 14.4797V13.4979H50.5283C50.4653 13.6239 50.3731 13.7532 50.2516 13.8859C50.1324 14.0186 49.9739 14.1299 49.7759 14.2199C49.5802 14.3099 49.334 14.3548 49.0371 14.3548C48.639 14.3548 48.278 14.2615 47.9541 14.0748C47.6324 13.8859 47.376 13.6047 47.1849 13.2314C46.9959 12.8558 46.9015 12.3857 46.9015 11.8211C46.9015 11.2521 46.9959 10.7719 47.1849 10.3805C47.376 9.9869 47.6336 9.68888 47.9575 9.48645C48.2813 9.28178 48.6423 9.17944 49.0404 9.17944C49.3441 9.17944 49.5937 9.23117 49.7894 9.33463C49.9873 9.43585 50.1448 9.55843 50.2617 9.70238C50.3787 9.84408 50.4675 9.9779 50.5283 10.1039H50.5957V9.24692H51.8002V14.5134C51.8002 14.9565 51.6945 15.3231 51.4831 15.6133C51.2716 15.9034 50.9826 16.1205 50.616 16.2644C50.2494 16.4084 49.8333 16.4803 49.3677 16.4803ZM49.3778 13.3967C49.6365 13.3967 49.8569 13.3337 50.0391 13.2078C50.2213 13.0818 50.3596 12.9007 50.4541 12.6646C50.5485 12.4284 50.5957 12.145 50.5957 11.8144C50.5957 11.4882 50.5485 11.2026 50.4541 10.9574C50.3618 10.7123 50.2246 10.5222 50.0424 10.3873C49.8625 10.2501 49.641 10.1815 49.3778 10.1815C49.1057 10.1815 48.8785 10.2523 48.6963 10.394C48.5141 10.5357 48.3769 10.7303 48.2847 10.9777C48.1925 11.2228 48.1464 11.5017 48.1464 11.8144C48.1464 12.1315 48.1925 12.4093 48.2847 12.6477C48.3792 12.8839 48.5175 13.0683 48.6997 13.201C48.8841 13.3315 49.1102 13.3967 49.3778 13.3967Z" fill="black"/>
<path d="M55.1223 14.5303C54.6162 14.5303 54.1776 14.4189 53.8065 14.1963C53.4354 13.9736 53.1475 13.6621 52.9428 13.2617C52.7404 12.8614 52.6392 12.3935 52.6392 11.8582C52.6392 11.3229 52.7404 10.854 52.9428 10.4514C53.1475 10.0488 53.4354 9.73612 53.8065 9.51345C54.1776 9.29077 54.6162 9.17944 55.1223 9.17944C55.6283 9.17944 56.0669 9.29077 56.4381 9.51345C56.8092 9.73612 57.0959 10.0488 57.2984 10.4514C57.503 10.854 57.6054 11.3229 57.6054 11.8582C57.6054 12.3935 57.503 12.8614 57.2984 13.2617C57.0959 13.6621 56.8092 13.9736 56.4381 14.1963C56.0669 14.4189 55.6283 14.5303 55.1223 14.5303ZM55.129 13.5519C55.4034 13.5519 55.6328 13.4765 55.8173 13.3258C56.0017 13.1729 56.1389 12.9682 56.2289 12.7118C56.3211 12.4554 56.3672 12.1697 56.3672 11.8549C56.3672 11.5377 56.3211 11.2509 56.2289 10.9945C56.1389 10.7359 56.0017 10.5301 55.8173 10.3771C55.6328 10.2242 55.4034 10.1477 55.129 10.1477C54.8479 10.1477 54.614 10.2242 54.4273 10.3771C54.2428 10.5301 54.1045 10.7359 54.0123 10.9945C53.9223 11.2509 53.8774 11.5377 53.8774 11.8549C53.8774 12.1697 53.9223 12.4554 54.0123 12.7118C54.1045 12.9682 54.2428 13.1729 54.4273 13.3258C54.614 13.4765 54.8479 13.5519 55.129 13.5519Z" fill="black"/>
<path d="M62.5477 10.6167L61.4344 10.7381C61.4029 10.6257 61.3478 10.52 61.2691 10.421C61.1926 10.322 61.0891 10.2422 60.9587 10.1815C60.8282 10.1207 60.6685 10.0904 60.4796 10.0904C60.2254 10.0904 60.0118 10.1455 59.8386 10.2557C59.6676 10.3659 59.5833 10.5087 59.5855 10.6842C59.5833 10.8348 59.6384 10.9574 59.7509 11.0519C59.8656 11.1464 60.0545 11.224 60.3177 11.2847L61.2016 11.4736C61.6919 11.5793 62.0563 11.7469 62.2947 11.9763C62.5354 12.2057 62.6568 12.506 62.6591 12.8771C62.6568 13.2033 62.5612 13.4912 62.3723 13.7408C62.1856 13.9882 61.9258 14.1817 61.5929 14.3211C61.2601 14.4606 60.8777 14.5303 60.4459 14.5303C59.8116 14.5303 59.301 14.3976 58.9142 14.1322C58.5273 13.8645 58.2968 13.4923 58.2225 13.0154L59.4135 12.9007C59.4675 13.1347 59.5822 13.3112 59.7576 13.4304C59.933 13.5496 60.1613 13.6092 60.4425 13.6092C60.7326 13.6092 60.9654 13.5496 61.1409 13.4304C61.3185 13.3112 61.4074 13.1639 61.4074 12.9885C61.4074 12.84 61.35 12.7174 61.2353 12.6207C61.1229 12.524 60.9474 12.4498 60.709 12.398L59.8251 12.2125C59.328 12.109 58.9603 11.9347 58.7219 11.6895C58.4834 11.4421 58.3654 11.1295 58.3676 10.7516C58.3654 10.4322 58.452 10.1556 58.6274 9.92167C58.8051 9.68551 59.0514 9.50332 59.3662 9.37512C59.6834 9.24467 60.0489 9.17944 60.4627 9.17944C61.07 9.17944 61.548 9.30877 61.8966 9.56743C62.2475 9.82608 62.4645 10.1758 62.5477 10.6167Z" fill="black"/>
<path d="M20.7885 15.146H7.34375V6.85156H20.7885V15.146ZM14.0442 7.5228C11.5935 7.59595 9.65166 8.62018 8.24422 10.6321C8.15953 10.7287 8.11284 10.8529 8.11284 10.9814C8.11284 11.1099 8.15953 11.234 8.24422 11.3307C10.9566 15.4477 17.1135 15.4624 19.8643 11.3527C19.9574 11.2514 20.0091 11.1189 20.0091 10.9814C20.0091 10.8439 19.9574 10.7114 19.8643 10.6101C18.4404 8.60555 16.4948 7.58315 14.0442 7.5228Z" fill="black"/>
<path d="M33.2064 10.6144C30.461 6.53399 24.4213 6.50656 21.643 10.5614C21.4307 10.8668 21.4124 11.0863 21.6266 11.3899C23.0541 13.3725 24.9923 14.3675 27.4192 14.4443C29.8497 14.351 31.7806 13.3469 33.1935 11.3552C33.2879 11.2556 33.3416 11.1244 33.3439 10.9873C33.3463 10.8502 33.2972 10.7172 33.2064 10.6144V10.6144ZM27.3899 13.4932C26.8922 13.4874 26.4073 13.3342 25.9967 13.053C25.5861 12.7717 25.2682 12.3751 25.0831 11.9133C24.8981 11.4515 24.8543 10.9453 24.9572 10.4586C25.0602 9.97186 25.3052 9.5266 25.6614 9.17909C26.0176 8.83159 26.4689 8.59746 26.9583 8.50631C27.4476 8.41516 27.9531 8.47109 28.4106 8.66703C28.8682 8.86296 29.2573 9.1901 29.5288 9.60706C29.8002 10.024 29.9419 10.5121 29.9358 11.0095C29.9242 11.6751 29.6504 12.3093 29.1737 12.7743C28.697 13.2393 28.0561 13.4977 27.3899 13.4932V13.4932Z" fill="black"/>
<path d="M14.0527 13.4905C13.5589 13.4847 13.0779 13.333 12.6702 13.0546C12.2625 12.7761 11.9464 12.3833 11.7617 11.9257C11.577 11.468 11.5319 10.966 11.6322 10.4828C11.7325 9.9996 11.9736 9.55686 12.3252 9.21034C12.6767 8.86383 13.1231 8.62903 13.6079 8.53553C14.0928 8.44202 14.5945 8.494 15.0499 8.6849C15.5052 8.87581 15.8939 9.1971 16.1669 9.60832C16.4398 10.0195 16.5849 10.5023 16.5839 10.9958C16.5822 11.3258 16.5154 11.6523 16.3871 11.9565C16.2589 12.2607 16.0718 12.5366 15.8367 12.7684C15.6015 13.0001 15.3229 13.1832 15.0167 13.3072C14.7106 13.4311 14.383 13.4934 14.0527 13.4905V13.4905Z" fill="black"/>
</svg>
