<svg width="70" height="22" viewBox="0 0 70 22" fill="none" xmlns="http://www.w3.org/2000/svg">
<path d="M36.6875 14.4291V7.51953H37.9392V13.3798H40.9823V14.4291H36.6875Z" fill="white"/>
<path d="M44.0851 14.5303C43.579 14.5303 43.1405 14.4189 42.7693 14.1963C42.3982 13.9736 42.1103 13.6621 41.9057 13.2617C41.7032 12.8614 41.602 12.3935 41.602 11.8582C41.602 11.3229 41.7032 10.854 41.9057 10.4514C42.1103 10.0488 42.3982 9.73612 42.7693 9.51345C43.1405 9.29077 43.579 9.17944 44.0851 9.17944C44.5912 9.17944 45.0298 9.29077 45.4009 9.51345C45.772 9.73612 46.0588 10.0488 46.2612 10.4514C46.4659 10.854 46.5682 11.3229 46.5682 11.8582C46.5682 12.3935 46.4659 12.8614 46.2612 13.2617C46.0588 13.6621 45.772 13.9736 45.4009 14.1963C45.0298 14.4189 44.5912 14.5303 44.0851 14.5303ZM44.0919 13.5519C44.3663 13.5519 44.5957 13.4765 44.7801 13.3258C44.9645 13.1729 45.1017 12.9682 45.1917 12.7118C45.2839 12.4554 45.33 12.1697 45.33 11.8549C45.33 11.5377 45.2839 11.2509 45.1917 10.9945C45.1017 10.7359 44.9645 10.5301 44.7801 10.3771C44.5957 10.2242 44.3663 10.1477 44.0919 10.1477C43.8107 10.1477 43.5768 10.2242 43.3901 10.3771C43.2057 10.5301 43.0674 10.7359 42.9751 10.9945C42.8852 11.2509 42.8402 11.5377 42.8402 11.8549C42.8402 12.1697 42.8852 12.4554 42.9751 12.7118C43.0674 12.9682 43.2057 13.1729 43.3901 13.3258C43.5768 13.4765 43.8107 13.5519 44.0919 13.5519Z" fill="white"/>
<path d="M49.6685 16.4803C49.2299 16.4803 48.8531 16.4207 48.5383 16.3015C48.2234 16.1846 47.9703 16.0271 47.7792 15.8292C47.588 15.6313 47.4553 15.412 47.3811 15.1713L48.4809 14.9048C48.5304 15.006 48.6024 15.1061 48.6968 15.205C48.7913 15.3063 48.9184 15.3895 49.0781 15.4547C49.24 15.5222 49.4436 15.5559 49.6887 15.5559C50.0351 15.5559 50.3219 15.4716 50.549 15.3029C50.7762 15.1364 50.8898 14.862 50.8898 14.4797V13.4979H50.8291C50.7661 13.6239 50.6739 13.7532 50.5524 13.8859C50.4332 14.0186 50.2746 14.1299 50.0767 14.2199C49.881 14.3099 49.6347 14.3548 49.3378 14.3548C48.9397 14.3548 48.5787 14.2615 48.2549 14.0748C47.9332 13.8859 47.6768 13.6047 47.4856 13.2314C47.2967 12.8558 47.2022 12.3857 47.2022 11.8211C47.2022 11.2521 47.2967 10.7719 47.4856 10.3805C47.6768 9.9869 47.9344 9.68888 48.2582 9.48645C48.5821 9.28178 48.9431 9.17944 49.3412 9.17944C49.6449 9.17944 49.8945 9.23117 50.0902 9.33463C50.2881 9.43585 50.4456 9.55843 50.5625 9.70238C50.6795 9.84408 50.7683 9.9779 50.8291 10.1039H50.8965V9.24692H52.101V14.5134C52.101 14.9565 51.9953 15.3231 51.7838 15.6133C51.5724 15.9034 51.2834 16.1205 50.9168 16.2644C50.5502 16.4084 50.1341 16.4803 49.6685 16.4803ZM49.6786 13.3967C49.9373 13.3967 50.1577 13.3337 50.3399 13.2078C50.522 13.0818 50.6604 12.9007 50.7548 12.6646C50.8493 12.4284 50.8965 12.145 50.8965 11.8144C50.8965 11.4882 50.8493 11.2026 50.7548 10.9574C50.6626 10.7123 50.5254 10.5222 50.3432 10.3873C50.1633 10.2501 49.9418 10.1815 49.6786 10.1815C49.4064 10.1815 49.1793 10.2523 48.9971 10.394C48.8149 10.5357 48.6777 10.7303 48.5855 10.9777C48.4933 11.2228 48.4472 11.5017 48.4472 11.8144C48.4472 12.1315 48.4933 12.4093 48.5855 12.6477C48.68 12.8839 48.8183 13.0683 49.0005 13.201C49.1849 13.3315 49.4109 13.3967 49.6786 13.3967Z" fill="white"/>
<path d="M55.4231 14.5303C54.917 14.5303 54.4784 14.4189 54.1073 14.1963C53.7362 13.9736 53.4483 13.6621 53.2436 13.2617C53.0412 12.8614 52.94 12.3935 52.94 11.8582C52.94 11.3229 53.0412 10.854 53.2436 10.4514C53.4483 10.0488 53.7362 9.73612 54.1073 9.51345C54.4784 9.29077 54.917 9.17944 55.4231 9.17944C55.9291 9.17944 56.3677 9.29077 56.7388 9.51345C57.1099 9.73612 57.3967 10.0488 57.5991 10.4514C57.8038 10.854 57.9062 11.3229 57.9062 11.8582C57.9062 12.3935 57.8038 12.8614 57.5991 13.2617C57.3967 13.6621 57.1099 13.9736 56.7388 14.1963C56.3677 14.4189 55.9291 14.5303 55.4231 14.5303ZM55.4298 13.5519C55.7042 13.5519 55.9336 13.4765 56.1181 13.3258C56.3025 13.1729 56.4397 12.9682 56.5297 12.7118C56.6219 12.4554 56.668 12.1697 56.668 11.8549C56.668 11.5377 56.6219 11.2509 56.5297 10.9945C56.4397 10.7359 56.3025 10.5301 56.1181 10.3771C55.9336 10.2242 55.7042 10.1477 55.4298 10.1477C55.1487 10.1477 54.9147 10.2242 54.7281 10.3771C54.5436 10.5301 54.4053 10.7359 54.3131 10.9945C54.2231 11.2509 54.1781 11.5377 54.1781 11.8549C54.1781 12.1697 54.2231 12.4554 54.3131 12.7118C54.4053 12.9682 54.5436 13.1729 54.7281 13.3258C54.9147 13.4765 55.1487 13.5519 55.4298 13.5519Z" fill="white"/>
<path d="M62.8485 10.6167L61.7352 10.7381C61.7037 10.6257 61.6486 10.52 61.5698 10.421C61.4934 10.322 61.3899 10.2422 61.2595 10.1815C61.129 10.1207 60.9693 10.0904 60.7804 10.0904C60.5262 10.0904 60.3125 10.1455 60.1394 10.2557C59.9684 10.3659 59.8841 10.5087 59.8863 10.6842C59.8841 10.8348 59.9392 10.9574 60.0516 11.0519C60.1663 11.1464 60.3553 11.224 60.6184 11.2847L61.5024 11.4736C61.9927 11.5793 62.3571 11.7469 62.5955 11.9763C62.8361 12.2057 62.9576 12.506 62.9598 12.8771C62.9576 13.2033 62.862 13.4912 62.6731 13.7408C62.4864 13.9882 62.2266 14.1817 61.8937 14.3211C61.5608 14.4606 61.1785 14.5303 60.7466 14.5303C60.1124 14.5303 59.6018 14.3976 59.2149 14.1322C58.8281 13.8645 58.5975 13.4923 58.5233 13.0154L59.7143 12.9007C59.7682 13.1347 59.883 13.3112 60.0584 13.4304C60.2338 13.5496 60.4621 13.6092 60.7433 13.6092C61.0334 13.6092 61.2662 13.5496 61.4416 13.4304C61.6193 13.3112 61.7082 13.1639 61.7082 12.9885C61.7082 12.84 61.6508 12.7174 61.5361 12.6207C61.4236 12.524 61.2482 12.4498 61.0098 12.398L60.1259 12.2125C59.6288 12.109 59.2611 11.9347 59.0226 11.6895C58.7842 11.4421 58.6661 11.1295 58.6684 10.7516C58.6661 10.4322 58.7527 10.1556 58.9282 9.92167C59.1059 9.68551 59.3521 9.50332 59.667 9.37512C59.9842 9.24467 60.3497 9.17944 60.7635 9.17944C61.3708 9.17944 61.8487 9.30877 62.1974 9.56743C62.5482 9.82608 62.7653 10.1758 62.8485 10.6167Z" fill="white"/>
<path d="M21.0893 15.146H7.64453V6.85156H21.0893V15.146ZM14.345 7.5228C11.8943 7.59595 9.95244 8.62018 8.545 10.6321C8.46031 10.7287 8.41362 10.8529 8.41362 10.9814C8.41362 11.1099 8.46031 11.234 8.545 11.3307C11.2574 15.4477 17.4142 15.4624 20.1651 11.3527C20.2582 11.2514 20.3099 11.1189 20.3099 10.9814C20.3099 10.8439 20.2582 10.7114 20.1651 10.6101C18.7412 8.60555 16.7956 7.58315 14.345 7.5228Z" fill="white"/>
<path d="M33.5071 10.6144C30.7618 6.53399 24.7221 6.50656 21.9438 10.5614C21.7315 10.8668 21.7132 11.0863 21.9273 11.3899C23.3549 13.3725 25.2931 14.3675 27.72 14.4443C30.1505 14.351 32.0814 13.3469 33.4943 11.3552C33.5887 11.2556 33.6423 11.1244 33.6447 10.9873C33.6471 10.8502 33.598 10.7172 33.5071 10.6144V10.6144ZM27.6907 13.4932C27.1929 13.4874 26.7081 13.3342 26.2975 13.053C25.8869 12.7717 25.569 12.3751 25.3839 11.9133C25.1989 11.4515 25.1551 10.9453 25.258 10.4586C25.3609 9.97186 25.606 9.5266 25.9622 9.17909C26.3184 8.83159 26.7697 8.59746 27.2591 8.50631C27.7484 8.41516 28.2538 8.47109 28.7114 8.66703C29.1689 8.86296 29.5581 9.1901 29.8295 9.60706C30.101 10.024 30.2427 10.5121 30.2365 11.0095C30.225 11.6751 29.9511 12.3093 29.4745 12.7743C28.9978 13.2393 28.3568 13.4977 27.6907 13.4932V13.4932Z" fill="white"/>
<path d="M14.3535 13.4905C13.8597 13.4847 13.3787 13.333 12.971 13.0546C12.5633 12.7761 12.2472 12.3833 12.0625 11.9257C11.8778 11.468 11.8327 10.966 11.933 10.4828C12.0332 9.9996 12.2743 9.55686 12.6259 9.21034C12.9775 8.86383 13.4238 8.62903 13.9087 8.53553C14.3936 8.44202 14.8953 8.494 15.3507 8.6849C15.806 8.87581 16.1947 9.1971 16.4676 9.60832C16.7406 10.0195 16.8857 10.5023 16.8847 10.9958C16.883 11.3258 16.8161 11.6523 16.6879 11.9565C16.5597 12.2607 16.3726 12.5366 16.1375 12.7684C15.9023 13.0001 15.6236 13.1832 15.3175 13.3072C15.0114 13.4311 14.6838 13.4934 14.3535 13.4905V13.4905Z" fill="white"/>
</svg>
