<svg width="106" height="138" viewBox="0 0 106 138" fill="none" xmlns="http://www.w3.org/2000/svg">
<path d="M26.252 111.171V97.1016H28.8006V109.034H34.997V111.171H26.252Z" fill="black"/>
<path d="M41.3149 111.377C40.2845 111.377 39.3914 111.15 38.6358 110.697C37.8801 110.243 37.2939 109.609 36.8771 108.794C36.465 107.979 36.2589 107.026 36.2589 105.936C36.2589 104.846 36.465 103.891 36.8771 103.071C37.2939 102.252 37.8801 101.615 38.6358 101.162C39.3914 100.708 40.2845 100.481 41.3149 100.481C42.3454 100.481 43.2385 100.708 43.9941 101.162C44.7498 101.615 45.3337 102.252 45.7459 103.071C46.1626 103.891 46.371 104.846 46.371 105.936C46.371 107.026 46.1626 107.979 45.7459 108.794C45.3337 109.609 44.7498 110.243 43.9941 110.697C43.2385 111.15 42.3454 111.377 41.3149 111.377ZM41.3287 109.385C41.8874 109.385 42.3546 109.231 42.7301 108.924C43.1056 108.613 43.385 108.196 43.5682 107.674C43.756 107.152 43.8499 106.57 43.8499 105.929C43.8499 105.283 43.756 104.699 43.5682 104.177C43.385 103.651 43.1056 103.232 42.7301 102.92C42.3546 102.609 41.8874 102.453 41.3287 102.453C40.7562 102.453 40.2799 102.609 39.8998 102.92C39.5242 103.232 39.2426 103.651 39.0548 104.177C38.8716 104.699 38.78 105.283 38.78 105.929C38.78 106.57 38.8716 107.152 39.0548 107.674C39.2426 108.196 39.5242 108.613 39.8998 108.924C40.2799 109.231 40.7562 109.385 41.3287 109.385Z" fill="black"/>
<path d="M52.6838 115.347C51.7907 115.347 51.0236 115.226 50.3824 114.983C49.7413 114.745 49.226 114.425 48.8368 114.022C48.4475 113.619 48.1773 113.172 48.0261 112.682L50.2656 112.139C50.3664 112.345 50.513 112.549 50.7053 112.751C50.8977 112.957 51.1564 113.126 51.4816 113.259C51.8113 113.396 52.2258 113.465 52.725 113.465C53.4303 113.465 54.0142 113.293 54.4768 112.95C54.9393 112.611 55.1706 112.052 55.1706 111.274V109.275H55.0469C54.9187 109.531 54.7309 109.794 54.4836 110.065C54.2409 110.335 53.918 110.562 53.515 110.745C53.1166 110.928 52.6151 111.02 52.0105 111.02C51.1999 111.02 50.4649 110.829 49.8054 110.449C49.1505 110.065 48.6284 109.492 48.2391 108.732C47.8544 107.967 47.662 107.01 47.662 105.86C47.662 104.702 47.8544 103.724 48.2391 102.927C48.6284 102.126 49.1528 101.519 49.8123 101.107C50.4717 100.69 51.2068 100.481 52.0174 100.481C52.6357 100.481 53.144 100.587 53.5425 100.797C53.9455 101.004 54.2661 101.253 54.5042 101.546C54.7424 101.835 54.9233 102.107 55.0469 102.364H55.1843V100.619H57.6368V111.342C57.6368 112.245 57.4216 112.991 56.9911 113.582C56.5606 114.173 55.9721 114.615 55.2256 114.908C54.479 115.201 53.6318 115.347 52.6838 115.347ZM52.7044 109.069C53.2311 109.069 53.6799 108.94 54.0508 108.684C54.4218 108.427 54.7035 108.059 54.8958 107.578C55.0882 107.097 55.1843 106.52 55.1843 105.847C55.1843 105.183 55.0882 104.601 54.8958 104.102C54.708 103.603 54.4287 103.216 54.0577 102.941C53.6913 102.661 53.2402 102.522 52.7044 102.522C52.1502 102.522 51.6877 102.666 51.3167 102.955C50.9457 103.243 50.6664 103.639 50.4786 104.143C50.2908 104.642 50.197 105.21 50.197 105.847C50.197 106.492 50.2908 107.058 50.4786 107.543C50.671 108.024 50.9526 108.4 51.3236 108.67C51.6991 108.936 52.1594 109.069 52.7044 109.069Z" fill="black"/>
<path d="M64.4012 111.377C63.3708 111.377 62.4777 111.15 61.7221 110.697C60.9664 110.243 60.3802 109.609 59.9634 108.794C59.5512 107.979 59.3452 107.026 59.3452 105.936C59.3452 104.846 59.5512 103.891 59.9634 103.071C60.3802 102.252 60.9664 101.615 61.7221 101.162C62.4777 100.708 63.3708 100.481 64.4012 100.481C65.4317 100.481 66.3247 100.708 67.0804 101.162C67.8361 101.615 68.42 102.252 68.8322 103.071C69.2489 103.891 69.4573 104.846 69.4573 105.936C69.4573 107.026 69.2489 107.979 68.8322 108.794C68.42 109.609 67.8361 110.243 67.0804 110.697C66.3247 111.15 65.4317 111.377 64.4012 111.377ZM64.415 109.385C64.9737 109.385 65.4409 109.231 65.8164 108.924C66.1919 108.613 66.4713 108.196 66.6545 107.674C66.8423 107.152 66.9362 106.57 66.9362 105.929C66.9362 105.283 66.8423 104.699 66.6545 104.177C66.4713 103.651 66.1919 103.232 65.8164 102.92C65.4409 102.609 64.9737 102.453 64.415 102.453C63.8425 102.453 63.3662 102.609 62.9861 102.92C62.6105 103.232 62.3289 103.651 62.1411 104.177C61.9579 104.699 61.8663 105.283 61.8663 105.929C61.8663 106.57 61.9579 107.152 62.1411 107.674C62.3289 108.196 62.6105 108.613 62.9861 108.924C63.3662 109.231 63.8425 109.385 64.415 109.385Z" fill="black"/>
<path d="M79.5209 103.408L77.2539 103.655C77.1898 103.426 77.0776 103.211 76.9173 103.009C76.7616 102.808 76.5509 102.645 76.2853 102.522C76.0197 102.398 75.6945 102.336 75.3098 102.336C74.7923 102.336 74.3572 102.448 74.0046 102.673C73.6565 102.897 73.4848 103.188 73.4893 103.545C73.4848 103.852 73.597 104.102 73.826 104.294C74.0595 104.486 74.4442 104.644 74.9801 104.768L76.7799 105.153C77.7783 105.368 78.5202 105.709 79.0057 106.176C79.4957 106.644 79.743 107.255 79.7476 108.011C79.743 108.675 79.5484 109.261 79.1637 109.769C78.7836 110.273 78.2546 110.667 77.5768 110.951C76.899 111.235 76.1204 111.377 75.2411 111.377C73.9496 111.377 72.91 111.107 72.1223 110.566C71.3346 110.021 70.8651 109.263 70.714 108.292L73.139 108.059C73.2489 108.535 73.4825 108.895 73.8397 109.137C74.1969 109.38 74.6618 109.501 75.2342 109.501C75.825 109.501 76.299 109.38 76.6563 109.137C77.0181 108.895 77.199 108.595 77.199 108.237C77.199 107.935 77.0822 107.685 76.8486 107.489C76.6196 107.292 76.2624 107.14 75.7769 107.035L73.9771 106.657C72.965 106.447 72.2162 106.092 71.7307 105.592C71.2452 105.089 71.0048 104.452 71.0094 103.683C71.0048 103.032 71.1811 102.469 71.5384 101.993C71.9002 101.512 72.4016 101.141 73.0428 100.88C73.6886 100.614 74.4328 100.481 75.2755 100.481C76.512 100.481 77.4852 100.745 78.1951 101.271C78.9095 101.798 79.3515 102.51 79.5209 103.408Z" fill="black"/>
<path d="M79.5652 90H26.4297V56.8093H79.515L79.5652 90ZM52.9388 59.472C48.4035 59.4768 43.9396 60.6156 39.9432 62.7872C35.9469 64.9588 32.5417 68.0962 30.0301 71.9207C29.6978 72.3092 29.5149 72.8059 29.5149 73.3199C29.5149 73.8338 29.6978 74.3306 30.0301 74.7191C32.5579 78.526 35.9695 81.6464 39.9656 83.8067C43.9617 85.967 48.4203 87.1011 52.95 87.1094C57.4798 87.1178 61.9425 86.0002 65.9463 83.8547C69.9502 81.7092 73.373 78.6014 75.9145 74.8039C76.277 74.3934 76.4774 73.862 76.4774 73.3114C76.4774 72.7607 76.277 72.2293 75.9145 71.8189C73.38 68.01 69.9577 64.8924 65.9503 62.7418C61.9429 60.5912 57.474 59.474 52.9388 59.489V59.472Z" fill="black"/>
<path d="M53.0896 53.7055C48.5833 53.6964 44.1464 52.5807 40.1594 50.4539C36.1723 48.3271 32.754 45.2527 30.1976 41.4944C29.7714 41.0352 29.5341 40.4286 29.5341 39.7984C29.5341 39.1681 29.7714 38.5616 30.1976 38.1024C32.7526 34.3508 36.1732 31.2875 40.1623 29.1786C44.1514 27.0696 48.5885 25.9786 53.0884 26.0003C57.5883 26.022 62.015 27.1558 65.9841 29.3032C69.9532 31.4507 73.3447 34.5468 75.8643 38.3228C76.2256 38.7305 76.4254 39.259 76.4254 39.8068C76.4254 40.3546 76.2256 40.8831 75.8643 41.2908C73.3478 45.0765 69.9593 48.185 65.9914 50.348C62.0236 52.5109 57.5955 53.6633 53.0896 53.7055ZM63.0033 39.9679C63.0499 37.9459 62.5004 35.9556 61.4251 34.2512C60.3498 32.5469 58.7973 31.2057 56.9659 30.399C55.1345 29.5923 53.1073 29.3565 51.143 29.722C49.1788 30.0874 47.3666 31.0374 45.9379 32.4506C44.5091 33.8638 43.5287 35.6762 43.1216 37.6563C42.7145 39.6365 42.8994 41.6946 43.6525 43.5678C44.4056 45.4411 45.6928 47.0447 47.3498 48.1737C49.0069 49.3027 50.9585 49.906 52.9556 49.9065C55.5803 49.9072 58.1011 48.8678 59.9788 47.0105C61.8565 45.1532 62.942 42.6254 63.0033 39.9679Z" fill="black"/>
<path d="M52.9886 83.3344C51.0413 83.301 49.1471 82.6854 47.5442 81.565C45.9412 80.4446 44.701 78.8694 43.9793 77.0373C43.2576 75.2052 43.0866 73.198 43.4879 71.2678C43.8892 69.3376 44.8448 67.5705 46.2347 66.1887C47.6246 64.8069 49.3867 63.8719 51.2997 63.5013C53.2126 63.1307 55.1911 63.3409 56.9864 64.1056C58.7817 64.8703 60.3139 66.1553 61.3903 67.7992C62.4667 69.4431 63.0394 71.3725 63.0363 73.345C63.0321 74.6714 62.7679 75.9837 62.2592 77.2059C61.7504 78.4281 61.0072 79.5359 60.0726 80.4651C59.138 81.3943 58.0306 82.1263 56.8146 82.6189C55.5986 83.1114 54.2982 83.3546 52.9886 83.3344Z" fill="black"/>
</svg>
