<svg width="106" height="138" viewBox="0 0 106 138" fill="none" xmlns="http://www.w3.org/2000/svg">
<path d="M26.5605 111.014V96.9453H29.1092V108.878H35.3056V111.014H26.5605Z" fill="white"/>
<path d="M41.6235 111.22C40.5931 111.22 39.7 110.994 38.9444 110.54C38.1887 110.087 37.6025 109.453 37.1857 108.637C36.7735 107.822 36.5675 106.87 36.5675 105.78C36.5675 104.69 36.7735 103.735 37.1857 102.915C37.6025 102.095 38.1887 101.459 38.9444 101.005C39.7 100.552 40.5931 100.325 41.6235 100.325C42.654 100.325 43.547 100.552 44.3027 101.005C45.0584 101.459 45.6423 102.095 46.0545 102.915C46.4712 103.735 46.6796 104.69 46.6796 105.78C46.6796 106.87 46.4712 107.822 46.0545 108.637C45.6423 109.453 45.0584 110.087 44.3027 110.54C43.547 110.994 42.654 111.22 41.6235 111.22ZM41.6373 109.228C42.196 109.228 42.6632 109.075 43.0387 108.768C43.4142 108.457 43.6936 108.04 43.8768 107.518C44.0646 106.996 44.1585 106.414 44.1585 105.773C44.1585 105.127 44.0646 104.543 43.8768 104.021C43.6936 103.494 43.4142 103.075 43.0387 102.764C42.6632 102.452 42.196 102.297 41.6373 102.297C41.0648 102.297 40.5885 102.452 40.2084 102.764C39.8328 103.075 39.5512 103.494 39.3634 104.021C39.1802 104.543 39.0886 105.127 39.0886 105.773C39.0886 106.414 39.1802 106.996 39.3634 107.518C39.5512 108.04 39.8328 108.457 40.2084 108.768C40.5885 109.075 41.0648 109.228 41.6373 109.228Z" fill="white"/>
<path d="M52.9924 115.191C52.0993 115.191 51.3322 115.07 50.691 114.827C50.0499 114.589 49.5346 114.268 49.1454 113.865C48.7561 113.462 48.4859 113.016 48.3347 112.526L50.5742 111.983C50.675 112.189 50.8216 112.393 51.0139 112.594C51.2063 112.801 51.465 112.97 51.7902 113.103C52.1199 113.24 52.5344 113.309 53.0336 113.309C53.7389 113.309 54.3228 113.137 54.7854 112.794C55.2479 112.455 55.4792 111.896 55.4792 111.117V109.118H55.3555C55.2273 109.375 55.0395 109.638 54.7922 109.908C54.5495 110.179 54.2266 110.405 53.8236 110.588C53.4252 110.772 52.9237 110.863 52.3191 110.863C51.5085 110.863 50.7735 110.673 50.114 110.293C49.4591 109.908 48.937 109.336 48.5477 108.576C48.163 107.811 47.9706 106.854 47.9706 105.704C47.9706 104.545 48.163 103.568 48.5477 102.771C48.937 101.969 49.4614 101.363 50.1208 100.95C50.7803 100.534 51.5154 100.325 52.326 100.325C52.9443 100.325 53.4526 100.431 53.8511 100.641C54.2541 100.847 54.5747 101.097 54.8128 101.39C55.051 101.679 55.2319 101.951 55.3555 102.207H55.4929V100.463H57.9454V111.186C57.9454 112.088 57.7302 112.835 57.2997 113.426C56.8692 114.016 56.2807 114.458 55.5341 114.752C54.7876 115.045 53.9404 115.191 52.9924 115.191ZM53.013 108.912C53.5397 108.912 53.9885 108.784 54.3594 108.528C54.7304 108.271 55.0121 107.902 55.2044 107.422C55.3968 106.941 55.4929 106.364 55.4929 105.69C55.4929 105.026 55.3968 104.445 55.2044 103.946C55.0166 103.446 54.7373 103.059 54.3663 102.785C53.9999 102.505 53.5488 102.365 53.013 102.365C52.4588 102.365 51.9963 102.51 51.6253 102.798C51.2543 103.087 50.975 103.483 50.7872 103.987C50.5994 104.486 50.5055 105.054 50.5055 105.69C50.5055 106.336 50.5994 106.902 50.7872 107.387C50.9796 107.868 51.2612 108.244 51.6322 108.514C52.0077 108.779 52.468 108.912 53.013 108.912Z" fill="white"/>
<path d="M64.7098 111.22C63.6794 111.22 62.7863 110.994 62.0307 110.54C61.275 110.087 60.6888 109.453 60.272 108.637C59.8598 107.822 59.6538 106.87 59.6538 105.78C59.6538 104.69 59.8598 103.735 60.272 102.915C60.6888 102.095 61.275 101.459 62.0307 101.005C62.7863 100.552 63.6794 100.325 64.7098 100.325C65.7403 100.325 66.6333 100.552 67.389 101.005C68.1447 101.459 68.7286 102.095 69.1408 102.915C69.5575 103.735 69.7659 104.69 69.7659 105.78C69.7659 106.87 69.5575 107.822 69.1408 108.637C68.7286 109.453 68.1447 110.087 67.389 110.54C66.6333 110.994 65.7403 111.22 64.7098 111.22ZM64.7236 109.228C65.2823 109.228 65.7494 109.075 66.125 108.768C66.5005 108.457 66.7799 108.04 66.9631 107.518C67.1509 106.996 67.2447 106.414 67.2447 105.773C67.2447 105.127 67.1509 104.543 66.9631 104.021C66.7799 103.494 66.5005 103.075 66.125 102.764C65.7494 102.452 65.2823 102.297 64.7236 102.297C64.1511 102.297 63.6748 102.452 63.2947 102.764C62.9191 103.075 62.6375 103.494 62.4497 104.021C62.2665 104.543 62.1749 105.127 62.1749 105.773C62.1749 106.414 62.2665 106.996 62.4497 107.518C62.6375 108.04 62.9191 108.457 63.2947 108.768C63.6748 109.075 64.1511 109.228 64.7236 109.228Z" fill="white"/>
<path d="M79.8295 103.252L77.5625 103.499C77.4984 103.27 77.3862 103.055 77.2259 102.853C77.0702 102.652 76.8595 102.489 76.5939 102.365C76.3283 102.242 76.0031 102.18 75.6184 102.18C75.1009 102.18 74.6658 102.292 74.3132 102.517C73.9651 102.741 73.7934 103.032 73.7979 103.389C73.7934 103.696 73.9056 103.946 74.1345 104.138C74.3681 104.33 74.7528 104.488 75.2886 104.612L77.0885 104.997C78.0869 105.212 78.8288 105.553 79.3143 106.02C79.8043 106.487 80.0516 107.099 80.0562 107.854C80.0516 108.518 79.857 109.105 79.4723 109.613C79.0922 110.117 78.5632 110.511 77.8854 110.795C77.2076 111.079 76.429 111.22 75.5497 111.22C74.2582 111.22 73.2186 110.95 72.4309 110.41C71.6431 109.865 71.1737 109.107 71.0226 108.136L73.4476 107.902C73.5575 108.379 73.7911 108.738 74.1483 108.981C74.5055 109.224 74.9704 109.345 75.5428 109.345C76.1336 109.345 76.6076 109.224 76.9649 108.981C77.3267 108.738 77.5076 108.438 77.5076 108.081C77.5076 107.779 77.3908 107.529 77.1572 107.332C76.9282 107.135 76.571 106.984 76.0855 106.879L74.2857 106.501C73.2735 106.29 72.5248 105.935 72.0393 105.436C71.5538 104.932 71.3134 104.296 71.318 103.526C71.3134 102.876 71.4897 102.313 71.8469 101.837C72.2087 101.356 72.7102 100.985 73.3514 100.724C73.9972 100.458 74.7414 100.325 75.5841 100.325C76.8206 100.325 77.7938 100.589 78.5037 101.115C79.2181 101.642 79.6601 102.354 79.8295 103.252Z" fill="white"/>
<path d="M79.5711 90H26.4355V56.8093H79.5208L79.5711 90ZM52.9447 59.472C48.4094 59.4768 43.9454 60.6156 39.9491 62.7872C35.9527 64.9588 32.5476 68.0962 30.036 71.9207C29.7037 72.3092 29.5208 72.8059 29.5208 73.3199C29.5208 73.8338 29.7037 74.3306 30.036 74.7191C32.5637 78.526 35.9753 81.6464 39.9715 83.8067C43.9676 85.967 48.4261 87.1011 52.9559 87.1094C57.4857 87.1178 61.9483 86.0002 65.9522 83.8547C69.9561 81.7092 73.3789 78.6014 75.9204 74.8039C76.2829 74.3934 76.4833 73.862 76.4833 73.3114C76.4833 72.7607 76.2829 72.2293 75.9204 71.8189C73.3858 68.01 69.9636 64.8924 65.9562 62.7418C61.9488 60.5912 57.4798 59.474 52.9447 59.489V59.472Z" fill="white"/>
<path d="M53.0955 53.7055C48.5892 53.6964 44.1523 52.5807 40.1652 50.4539C36.1782 48.3271 32.7599 45.2527 30.2035 41.4944C29.7772 41.0352 29.5399 40.4286 29.5399 39.7984C29.5399 39.1681 29.7772 38.5616 30.2035 38.1024C32.7585 34.3508 36.179 31.2875 40.1682 29.1786C44.1573 27.0696 48.5944 25.9786 53.0943 26.0003C57.5942 26.022 62.0209 27.1558 65.9899 29.3032C69.959 31.4507 73.3506 34.5468 75.8702 38.3228C76.2314 38.7305 76.4313 39.259 76.4313 39.8068C76.4313 40.3546 76.2314 40.8831 75.8702 41.2908C73.3537 45.0765 69.9652 48.185 65.9973 50.348C62.0294 52.5109 57.6014 53.6633 53.0955 53.7055ZM63.0091 39.9679C63.0557 37.9459 62.5063 35.9556 61.431 34.2512C60.3556 32.5469 58.8032 31.2057 56.9718 30.399C55.1404 29.5923 53.1132 29.3565 51.1489 29.722C49.1847 30.0874 47.3725 31.0374 45.9437 32.4506C44.515 33.8638 43.5345 35.6762 43.1274 37.6563C42.7204 39.6365 42.9052 41.6946 43.6583 43.5678C44.4114 45.4411 45.6987 47.0447 47.3557 48.1737C49.0127 49.3027 50.9643 49.906 52.9615 49.9065C55.5861 49.9072 58.1069 48.8678 59.9846 47.0105C61.8623 45.1532 62.9479 42.6254 63.0091 39.9679Z" fill="white"/>
<path d="M52.9945 83.3344C51.0471 83.301 49.153 82.6854 47.55 81.565C45.9471 80.4446 44.7068 78.8694 43.9851 77.0373C43.2634 75.2052 43.0925 73.198 43.4938 71.2678C43.895 69.3376 44.8507 67.5705 46.2406 66.1887C47.6304 64.8069 49.3926 63.8719 51.3055 63.5013C53.2185 63.1307 55.1969 63.3409 56.9923 64.1056C58.7876 64.8703 60.3197 66.1553 61.3961 67.7992C62.4726 69.4431 63.0452 71.3725 63.0422 73.345C63.0379 74.6714 62.7738 75.9837 62.265 77.2059C61.7563 78.4281 61.013 79.5359 60.0784 80.4651C59.1439 81.3943 58.0365 82.1263 56.8205 82.6189C55.6045 83.1114 54.304 83.3546 52.9945 83.3344Z" fill="white"/>
</svg>
