<svg width="170" height="116" viewBox="0 0 170 116" fill="none" xmlns="http://www.w3.org/2000/svg">
<path d="M86.8672 63.0896V49.0391H89.3777V60.956H95.4814V63.0896H86.8672Z" fill="white"/>
<path d="M101.705 63.2954C100.69 63.2954 99.8101 63.069 99.0657 62.6162C98.3214 62.1634 97.7439 61.53 97.3334 60.7158C96.9274 59.9017 96.7244 58.9504 96.7244 57.8618C96.7244 56.7733 96.9274 55.8196 97.3334 55.0009C97.7439 54.1822 98.3214 53.5465 99.0657 53.0937C99.8101 52.6409 100.69 52.4145 101.705 52.4145C102.72 52.4145 103.6 52.6409 104.344 53.0937C105.088 53.5465 105.663 54.1822 106.069 55.0009C106.48 55.8196 106.685 56.7733 106.685 57.8618C106.685 58.9504 106.48 59.9017 106.069 60.7158C105.663 61.53 105.088 62.1634 104.344 62.6162C103.6 63.069 102.72 63.2954 101.705 63.2954ZM101.718 61.3059C102.269 61.3059 102.729 61.1526 103.099 60.8462C103.469 60.5352 103.744 60.119 103.924 59.5976C104.109 59.0762 104.202 58.4953 104.202 57.855C104.202 57.2101 104.109 56.6269 103.924 56.1055C103.744 55.5795 103.469 55.161 103.099 54.85C102.729 54.539 102.269 54.3835 101.718 54.3835C101.154 54.3835 100.685 54.539 100.311 54.85C99.9409 55.161 99.6635 55.5795 99.4785 56.1055C99.2981 56.6269 99.2078 57.2101 99.2078 57.855C99.2078 58.4953 99.2981 59.0762 99.4785 59.5976C99.6635 60.119 99.9409 60.5352 100.311 60.8462C100.685 61.1526 101.154 61.3059 101.718 61.3059Z" fill="white"/>
<path d="M112.904 67.2609C112.024 67.2609 111.268 67.1397 110.637 66.8973C110.005 66.6594 109.498 66.3393 109.114 65.9368C108.731 65.5343 108.464 65.0884 108.316 64.599L110.522 64.057C110.621 64.2628 110.765 64.4663 110.955 64.6676C111.144 64.8734 111.399 65.0426 111.719 65.1753C112.044 65.3125 112.452 65.3811 112.944 65.3811C113.639 65.3811 114.214 65.2096 114.67 64.8665C115.125 64.5281 115.353 63.9701 115.353 63.1925V61.1961H115.231C115.105 61.4522 114.92 61.7152 114.676 61.9851C114.437 62.2549 114.119 62.4813 113.722 62.6643C113.33 62.8472 112.836 62.9387 112.24 62.9387C111.442 62.9387 110.718 62.7489 110.068 62.3693C109.423 61.9851 108.909 61.4133 108.525 60.6541C108.146 59.8903 107.957 58.9344 107.957 57.7864C107.957 56.6292 108.146 55.6527 108.525 54.8569C108.909 54.0565 109.425 53.4504 110.075 53.0388C110.725 52.6226 111.449 52.4145 112.247 52.4145C112.856 52.4145 113.357 52.5197 113.749 52.7301C114.146 52.9359 114.462 53.1852 114.697 53.4779C114.931 53.766 115.11 54.0382 115.231 54.2943H115.367V52.5517H117.782V63.2611C117.782 64.1622 117.57 64.9077 117.146 65.4977C116.722 66.0877 116.143 66.5291 115.407 66.8218C114.672 67.1145 113.837 67.2609 112.904 67.2609ZM112.924 60.9903C113.443 60.9903 113.885 60.8622 114.25 60.6061C114.616 60.35 114.893 59.9818 115.083 59.5015C115.272 59.0213 115.367 58.445 115.367 57.7726C115.367 57.1094 115.272 56.5286 115.083 56.03C114.898 55.5315 114.622 55.145 114.257 54.8706C113.896 54.5916 113.452 54.4521 112.924 54.4521C112.378 54.4521 111.922 54.5962 111.557 54.8843C111.192 55.1725 110.916 55.5681 110.731 56.0712C110.546 56.5697 110.454 57.1369 110.454 57.7726C110.454 58.4175 110.546 58.9824 110.731 59.4672C110.921 59.9475 111.198 60.3225 111.564 60.5924C111.934 60.8576 112.387 60.9903 112.924 60.9903Z" fill="white"/>
<path d="M124.446 63.2954C123.431 63.2954 122.551 63.069 121.807 62.6162C121.062 62.1634 120.485 61.53 120.074 60.7158C119.668 59.9017 119.465 58.9504 119.465 57.8618C119.465 56.7733 119.668 55.8196 120.074 55.0009C120.485 54.1822 121.062 53.5465 121.807 53.0937C122.551 52.6409 123.431 52.4145 124.446 52.4145C125.461 52.4145 126.34 52.6409 127.085 53.0937C127.829 53.5465 128.404 54.1822 128.81 55.0009C129.221 55.8196 129.426 56.7733 129.426 57.8618C129.426 58.9504 129.221 59.9017 128.81 60.7158C128.404 61.53 127.829 62.1634 127.085 62.6162C126.34 63.069 125.461 63.2954 124.446 63.2954ZM124.459 61.3059C125.01 61.3059 125.47 61.1526 125.84 60.8462C126.21 60.5352 126.485 60.119 126.665 59.5976C126.85 59.0762 126.943 58.4953 126.943 57.855C126.943 57.2101 126.85 56.6269 126.665 56.1055C126.485 55.5795 126.21 55.161 125.84 54.85C125.47 54.539 125.01 54.3835 124.459 54.3835C123.895 54.3835 123.426 54.539 123.052 54.85C122.682 55.161 122.404 55.5795 122.219 56.1055C122.039 56.6269 121.949 57.2101 121.949 57.855C121.949 58.4953 122.039 59.0762 122.219 59.5976C122.404 60.119 122.682 60.5352 123.052 60.8462C123.426 61.1526 123.895 61.3059 124.459 61.3059Z" fill="white"/>
<path d="M139.339 55.3371L137.106 55.5841C137.043 55.3554 136.932 55.1404 136.775 54.9392C136.621 54.738 136.414 54.5756 136.152 54.4521C135.89 54.3286 135.57 54.2669 135.191 54.2669C134.681 54.2669 134.253 54.3789 133.905 54.603C133.563 54.8271 133.393 55.1176 133.398 55.4743C133.393 55.7808 133.504 56.03 133.729 56.2221C133.96 56.4142 134.338 56.572 134.866 56.6955L136.639 57.0797C137.623 57.2947 138.353 57.6354 138.832 58.102C139.314 58.5685 139.558 59.1791 139.562 59.9337C139.558 60.5969 139.366 61.1824 138.987 61.6901C138.613 62.1932 138.092 62.5865 137.424 62.8701C136.756 63.1537 135.99 63.2954 135.123 63.2954C133.851 63.2954 132.827 63.0256 132.051 62.4859C131.275 61.9416 130.813 61.1847 130.664 60.215L133.053 59.9818C133.161 60.4574 133.391 60.8165 133.743 61.0589C134.095 61.3013 134.553 61.4225 135.117 61.4225C135.699 61.4225 136.166 61.3013 136.517 61.0589C136.874 60.8165 137.052 60.5169 137.052 60.1601C137.052 59.8583 136.937 59.609 136.707 59.4123C136.481 59.2157 136.129 59.0647 135.651 58.9595L133.878 58.5822C132.881 58.3718 132.144 58.0173 131.666 57.5188C131.187 57.0157 130.95 56.3799 130.955 55.6115C130.95 54.9621 131.124 54.3995 131.476 53.9238C131.832 53.4436 132.326 53.0731 132.958 52.8124C133.594 52.5471 134.327 52.4145 135.157 52.4145C136.375 52.4145 137.334 52.6775 138.033 53.2035C138.737 53.7294 139.172 54.4407 139.339 55.3371Z" fill="white"/>
<path d="M79.5652 90H26.4297V56.8093H79.515L79.5652 90ZM52.9388 59.472C48.4035 59.4768 43.9396 60.6156 39.9432 62.7872C35.9469 64.9588 32.5417 68.0962 30.0301 71.9207C29.6978 72.3092 29.5149 72.8059 29.5149 73.3199C29.5149 73.8338 29.6978 74.3306 30.0301 74.7191C32.5579 78.526 35.9695 81.6464 39.9656 83.8067C43.9617 85.967 48.4203 87.1011 52.95 87.1094C57.4798 87.1178 61.9425 86.0002 65.9463 83.8547C69.9502 81.7092 73.373 78.6014 75.9145 74.8039C76.277 74.3934 76.4774 73.862 76.4774 73.3114C76.4774 72.7607 76.277 72.2293 75.9145 71.8189C73.38 68.01 69.9577 64.8924 65.9503 62.7418C61.9429 60.5912 57.474 59.474 52.9388 59.489V59.472Z" fill="white"/>
<path d="M53.0896 53.7055C48.5833 53.6964 44.1464 52.5807 40.1594 50.4539C36.1723 48.3271 32.754 45.2527 30.1976 41.4944C29.7714 41.0352 29.5341 40.4286 29.5341 39.7984C29.5341 39.1681 29.7714 38.5616 30.1976 38.1024C32.7526 34.3508 36.1732 31.2875 40.1623 29.1786C44.1514 27.0696 48.5885 25.9786 53.0884 26.0003C57.5883 26.022 62.015 27.1558 65.9841 29.3032C69.9532 31.4507 73.3447 34.5468 75.8643 38.3228C76.2256 38.7305 76.4254 39.259 76.4254 39.8068C76.4254 40.3546 76.2256 40.8831 75.8643 41.2908C73.3478 45.0765 69.9593 48.185 65.9914 50.348C62.0236 52.5109 57.5955 53.6633 53.0896 53.7055ZM63.0033 39.9679C63.0499 37.9459 62.5004 35.9556 61.4251 34.2512C60.3498 32.5469 58.7973 31.2057 56.9659 30.399C55.1345 29.5923 53.1073 29.3565 51.143 29.722C49.1788 30.0874 47.3666 31.0374 45.9379 32.4506C44.5091 33.8638 43.5287 35.6762 43.1216 37.6563C42.7145 39.6365 42.8994 41.6946 43.6525 43.5678C44.4056 45.4411 45.6928 47.0447 47.3498 48.1737C49.0069 49.3027 50.9585 49.906 52.9556 49.9065C55.5803 49.9072 58.1011 48.8678 59.9788 47.0105C61.8565 45.1532 62.942 42.6254 63.0033 39.9679Z" fill="white"/>
<path d="M52.9886 83.3344C51.0413 83.301 49.1471 82.6854 47.5442 81.565C45.9412 80.4446 44.701 78.8694 43.9793 77.0373C43.2576 75.2052 43.0866 73.198 43.4879 71.2678C43.8892 69.3376 44.8448 67.5705 46.2347 66.1887C47.6246 64.8069 49.3867 63.8719 51.2997 63.5013C53.2126 63.1307 55.1911 63.3409 56.9864 64.1056C58.7817 64.8703 60.3139 66.1553 61.3903 67.7992C62.4667 69.4431 63.0394 71.3725 63.0363 73.345C63.0321 74.6714 62.7679 75.9837 62.2592 77.2059C61.7504 78.4281 61.0072 79.5359 60.0726 80.4651C59.138 81.3943 58.0306 82.1263 56.8146 82.6189C55.5986 83.1114 54.2982 83.3546 52.9886 83.3344Z" fill="white"/>
</svg>
