<svg width="170" height="116" viewBox="0 0 170 116" fill="none" xmlns="http://www.w3.org/2000/svg">
<path d="M87.8672 63.0896V49.0391H90.3777V60.956H96.4814V63.0896H87.8672Z" fill="black"/>
<path d="M102.705 63.2954C101.69 63.2954 100.81 63.069 100.066 62.6162C99.3214 62.1634 98.7439 61.53 98.3334 60.7158C97.9274 59.9017 97.7244 58.9504 97.7244 57.8618C97.7244 56.7733 97.9274 55.8196 98.3334 55.0009C98.7439 54.1822 99.3214 53.5465 100.066 53.0937C100.81 52.6409 101.69 52.4145 102.705 52.4145C103.72 52.4145 104.6 52.6409 105.344 53.0937C106.088 53.5465 106.663 54.1822 107.069 55.0009C107.48 55.8196 107.685 56.7733 107.685 57.8618C107.685 58.9504 107.48 59.9017 107.069 60.7158C106.663 61.53 106.088 62.1634 105.344 62.6162C104.6 63.069 103.72 63.2954 102.705 63.2954ZM102.718 61.3059C103.269 61.3059 103.729 61.1526 104.099 60.8462C104.469 60.5352 104.744 60.119 104.924 59.5976C105.109 59.0762 105.202 58.4953 105.202 57.855C105.202 57.2101 105.109 56.6269 104.924 56.1055C104.744 55.5795 104.469 55.161 104.099 54.85C103.729 54.539 103.269 54.3835 102.718 54.3835C102.154 54.3835 101.685 54.539 101.311 54.85C100.941 55.161 100.663 55.5795 100.479 56.1055C100.298 56.6269 100.208 57.2101 100.208 57.855C100.208 58.4953 100.298 59.0762 100.479 59.5976C100.663 60.119 100.941 60.5352 101.311 60.8462C101.685 61.1526 102.154 61.3059 102.718 61.3059Z" fill="black"/>
<path d="M113.904 67.2609C113.024 67.2609 112.268 67.1397 111.637 66.8973C111.005 66.6594 110.498 66.3393 110.114 65.9368C109.731 65.5343 109.464 65.0884 109.316 64.599L111.522 64.057C111.621 64.2628 111.765 64.4663 111.955 64.6676C112.144 64.8734 112.399 65.0426 112.719 65.1753C113.044 65.3125 113.452 65.3811 113.944 65.3811C114.639 65.3811 115.214 65.2096 115.67 64.8665C116.125 64.5281 116.353 63.9701 116.353 63.1925V61.1961H116.231C116.105 61.4522 115.92 61.7152 115.676 61.9851C115.437 62.2549 115.119 62.4813 114.722 62.6643C114.33 62.8472 113.836 62.9387 113.24 62.9387C112.442 62.9387 111.718 62.7489 111.068 62.3693C110.423 61.9851 109.909 61.4133 109.525 60.6541C109.146 59.8903 108.957 58.9344 108.957 57.7864C108.957 56.6292 109.146 55.6527 109.525 54.8569C109.909 54.0565 110.425 53.4504 111.075 53.0388C111.725 52.6226 112.449 52.4145 113.247 52.4145C113.856 52.4145 114.357 52.5197 114.749 52.7301C115.146 52.9359 115.462 53.1852 115.697 53.4779C115.931 53.766 116.11 54.0382 116.231 54.2943H116.367V52.5517H118.782V63.2611C118.782 64.1622 118.57 64.9077 118.146 65.4977C117.722 66.0877 117.143 66.5291 116.407 66.8218C115.672 67.1145 114.837 67.2609 113.904 67.2609ZM113.924 60.9903C114.443 60.9903 114.885 60.8622 115.25 60.6061C115.616 60.35 115.893 59.9818 116.083 59.5015C116.272 59.0213 116.367 58.445 116.367 57.7726C116.367 57.1094 116.272 56.5286 116.083 56.03C115.898 55.5315 115.622 55.145 115.257 54.8706C114.896 54.5916 114.452 54.4521 113.924 54.4521C113.378 54.4521 112.922 54.5962 112.557 54.8843C112.192 55.1725 111.916 55.5681 111.731 56.0712C111.546 56.5697 111.454 57.1369 111.454 57.7726C111.454 58.4175 111.546 58.9824 111.731 59.4672C111.921 59.9475 112.198 60.3225 112.564 60.5924C112.934 60.8576 113.387 60.9903 113.924 60.9903Z" fill="black"/>
<path d="M125.446 63.2954C124.431 63.2954 123.551 63.069 122.807 62.6162C122.062 62.1634 121.485 61.53 121.074 60.7158C120.668 59.9017 120.465 58.9504 120.465 57.8618C120.465 56.7733 120.668 55.8196 121.074 55.0009C121.485 54.1822 122.062 53.5465 122.807 53.0937C123.551 52.6409 124.431 52.4145 125.446 52.4145C126.461 52.4145 127.34 52.6409 128.085 53.0937C128.829 53.5465 129.404 54.1822 129.81 55.0009C130.221 55.8196 130.426 56.7733 130.426 57.8618C130.426 58.9504 130.221 59.9017 129.81 60.7158C129.404 61.53 128.829 62.1634 128.085 62.6162C127.34 63.069 126.461 63.2954 125.446 63.2954ZM125.459 61.3059C126.01 61.3059 126.47 61.1526 126.84 60.8462C127.21 60.5352 127.485 60.119 127.665 59.5976C127.85 59.0762 127.943 58.4953 127.943 57.855C127.943 57.2101 127.85 56.6269 127.665 56.1055C127.485 55.5795 127.21 55.161 126.84 54.85C126.47 54.539 126.01 54.3835 125.459 54.3835C124.895 54.3835 124.426 54.539 124.052 54.85C123.682 55.161 123.404 55.5795 123.219 56.1055C123.039 56.6269 122.949 57.2101 122.949 57.855C122.949 58.4953 123.039 59.0762 123.219 59.5976C123.404 60.119 123.682 60.5352 124.052 60.8462C124.426 61.1526 124.895 61.3059 125.459 61.3059Z" fill="black"/>
<path d="M140.339 55.3371L138.106 55.5841C138.043 55.3554 137.932 55.1404 137.775 54.9392C137.621 54.738 137.414 54.5756 137.152 54.4521C136.89 54.3286 136.57 54.2669 136.191 54.2669C135.681 54.2669 135.253 54.3789 134.905 54.603C134.563 54.8271 134.393 55.1176 134.398 55.4743C134.393 55.7808 134.504 56.03 134.729 56.2221C134.96 56.4142 135.338 56.572 135.866 56.6955L137.639 57.0797C138.623 57.2947 139.353 57.6354 139.832 58.102C140.314 58.5685 140.558 59.1791 140.562 59.9337C140.558 60.5969 140.366 61.1824 139.987 61.6901C139.613 62.1932 139.092 62.5865 138.424 62.8701C137.756 63.1537 136.99 63.2954 136.123 63.2954C134.851 63.2954 133.827 63.0256 133.051 62.4859C132.275 61.9416 131.813 61.1847 131.664 60.215L134.053 59.9818C134.161 60.4574 134.391 60.8165 134.743 61.0589C135.095 61.3013 135.553 61.4225 136.117 61.4225C136.699 61.4225 137.166 61.3013 137.517 61.0589C137.874 60.8165 138.052 60.5169 138.052 60.1601C138.052 59.8583 137.937 59.609 137.707 59.4123C137.481 59.2157 137.129 59.0647 136.651 58.9595L134.878 58.5822C133.881 58.3718 133.144 58.0173 132.666 57.5188C132.187 57.0157 131.95 56.3799 131.955 55.6115C131.95 54.9621 132.124 54.3995 132.476 53.9238C132.832 53.4436 133.326 53.0731 133.958 52.8124C134.594 52.5471 135.327 52.4145 136.157 52.4145C137.375 52.4145 138.334 52.6775 139.033 53.2035C139.737 53.7294 140.172 54.4407 140.339 55.3371Z" fill="black"/>
<path d="M79.5652 90H26.4297V56.8093H79.515L79.5652 90ZM52.9388 59.472C48.4035 59.4768 43.9396 60.6156 39.9432 62.7872C35.9469 64.9588 32.5417 68.0962 30.0301 71.9207C29.6978 72.3092 29.5149 72.8059 29.5149 73.3199C29.5149 73.8338 29.6978 74.3306 30.0301 74.7191C32.5579 78.526 35.9695 81.6464 39.9656 83.8067C43.9617 85.967 48.4203 87.1011 52.95 87.1094C57.4798 87.1178 61.9425 86.0002 65.9463 83.8547C69.9502 81.7092 73.373 78.6014 75.9145 74.8039C76.277 74.3934 76.4774 73.862 76.4774 73.3114C76.4774 72.7607 76.277 72.2293 75.9145 71.8189C73.38 68.01 69.9577 64.8924 65.9503 62.7418C61.9429 60.5912 57.474 59.474 52.9388 59.489V59.472Z" fill="black"/>
<path d="M53.0896 53.7055C48.5833 53.6964 44.1464 52.5807 40.1594 50.4539C36.1723 48.3271 32.754 45.2527 30.1976 41.4944C29.7714 41.0352 29.5341 40.4286 29.5341 39.7984C29.5341 39.1681 29.7714 38.5616 30.1976 38.1024C32.7526 34.3508 36.1732 31.2875 40.1623 29.1786C44.1514 27.0696 48.5885 25.9786 53.0884 26.0003C57.5883 26.022 62.015 27.1558 65.9841 29.3032C69.9532 31.4507 73.3447 34.5468 75.8643 38.3228C76.2256 38.7305 76.4254 39.259 76.4254 39.8068C76.4254 40.3546 76.2256 40.8831 75.8643 41.2908C73.3478 45.0765 69.9593 48.185 65.9914 50.348C62.0236 52.5109 57.5955 53.6633 53.0896 53.7055ZM63.0033 39.9679C63.0499 37.9459 62.5004 35.9556 61.4251 34.2512C60.3498 32.5469 58.7973 31.2057 56.9659 30.399C55.1345 29.5923 53.1073 29.3565 51.143 29.722C49.1788 30.0874 47.3666 31.0374 45.9379 32.4506C44.5091 33.8638 43.5287 35.6762 43.1216 37.6563C42.7145 39.6365 42.8994 41.6946 43.6525 43.5678C44.4056 45.4411 45.6928 47.0447 47.3498 48.1737C49.0069 49.3027 50.9585 49.906 52.9556 49.9065C55.5803 49.9072 58.1011 48.8678 59.9788 47.0105C61.8565 45.1532 62.942 42.6254 63.0033 39.9679Z" fill="black"/>
<path d="M52.9886 83.3344C51.0413 83.301 49.1471 82.6854 47.5442 81.565C45.9412 80.4446 44.701 78.8694 43.9793 77.0373C43.2576 75.2052 43.0866 73.198 43.4879 71.2678C43.8892 69.3376 44.8448 67.5705 46.2347 66.1887C47.6246 64.8069 49.3867 63.8719 51.2997 63.5013C53.2126 63.1307 55.1911 63.3409 56.9864 64.1056C58.7817 64.8703 60.3139 66.1553 61.3903 67.7992C62.4667 69.4431 63.0394 71.3725 63.0363 73.345C63.0321 74.6714 62.7679 75.9837 62.2592 77.2059C61.7504 78.4281 61.0072 79.5359 60.0726 80.4651C59.138 81.3943 58.0306 82.1263 56.8146 82.6189C55.5986 83.1114 54.2982 83.3546 52.9886 83.3344Z" fill="black"/>
</svg>
