<svg width="1340" height="1867" viewBox="0 0 1340 1867" fill="none" xmlns="http://www.w3.org/2000/svg">
<rect width="1338" height="1865" transform="translate(1 1)" fill="white"/>
<path d="M26.5852 41V27.9091H31.0085C32.0355 27.9091 32.875 28.0945 33.527 28.4652C34.1832 28.8317 34.669 29.3281 34.9844 29.9545C35.2997 30.581 35.4574 31.2798 35.4574 32.0511C35.4574 32.8224 35.2997 33.5234 34.9844 34.1541C34.6733 34.7848 34.1918 35.2876 33.5398 35.6626C32.8878 36.0334 32.0526 36.2188 31.0341 36.2188H27.8636V34.8125H30.983C31.6861 34.8125 32.2507 34.6911 32.6768 34.4482C33.103 34.2053 33.4119 33.8771 33.6037 33.4638C33.7997 33.0462 33.8977 32.5753 33.8977 32.0511C33.8977 31.527 33.7997 31.0582 33.6037 30.6449C33.4119 30.2315 33.1009 29.9077 32.6705 29.6733C32.2401 29.4347 31.669 29.3153 30.9574 29.3153H28.1705V41H26.5852ZM37.8065 41V31.1818H39.2638V32.6648H39.3661C39.5451 32.179 39.869 31.7848 40.3377 31.4822C40.8065 31.1797 41.3349 31.0284 41.9229 31.0284C42.0337 31.0284 42.1722 31.0305 42.3384 31.0348C42.5046 31.0391 42.6303 31.0455 42.7156 31.054V32.5881C42.6644 32.5753 42.5472 32.5561 42.364 32.5305C42.185 32.5007 41.9954 32.4858 41.7951 32.4858C41.3178 32.4858 40.8917 32.5859 40.5167 32.7862C40.146 32.9822 39.8519 33.255 39.6346 33.6044C39.4215 33.9496 39.315 34.3437 39.315 34.7869V41H37.8065ZM44.5037 41V31.1818H46.0123V41H44.5037ZM45.2708 29.5455C44.9767 29.5455 44.7232 29.4453 44.5101 29.245C44.3013 29.0447 44.1969 28.804 44.1969 28.5227C44.1969 28.2415 44.3013 28.0007 44.5101 27.8004C44.7232 27.6001 44.9767 27.5 45.2708 27.5C45.5648 27.5 45.8162 27.6001 46.025 27.8004C46.2381 28.0007 46.3446 28.2415 46.3446 28.5227C46.3446 28.804 46.2381 29.0447 46.025 29.245C45.8162 29.4453 45.5648 29.5455 45.2708 29.5455ZM48.7752 41V31.1818H50.2326V32.7159H50.3604C50.565 32.1918 50.8952 31.7848 51.3512 31.495C51.8072 31.201 52.3548 31.054 52.994 31.054C53.6417 31.054 54.1808 31.201 54.6112 31.495C55.0458 31.7848 55.3846 32.1918 55.6275 32.7159H55.7298C55.9812 32.2088 56.3583 31.8061 56.8612 31.5078C57.364 31.2053 57.967 31.054 58.6701 31.054C59.5479 31.054 60.266 31.3288 60.8242 31.8786C61.3825 32.424 61.6616 33.2741 61.6616 34.429V41H60.1531V34.429C60.1531 33.7045 59.9549 33.1868 59.5586 32.8757C59.1623 32.5646 58.6957 32.4091 58.1587 32.4091C57.4684 32.4091 56.9336 32.6179 56.5543 33.0355C56.1751 33.4489 55.9854 33.973 55.9854 34.608V41H54.4513V34.2756C54.4513 33.7173 54.2702 33.2678 53.908 32.9268C53.5458 32.5817 53.0792 32.4091 52.5082 32.4091C52.1161 32.4091 51.7496 32.5135 51.4087 32.7223C51.0721 32.9311 50.7994 33.2209 50.5906 33.5916C50.386 33.9581 50.2837 34.3821 50.2837 34.8636V41H48.7752ZM64.4197 41V31.1818H65.9283V41H64.4197ZM65.1868 29.5455C64.8928 29.5455 64.6392 29.4453 64.4261 29.245C64.2173 29.0447 64.1129 28.804 64.1129 28.5227C64.1129 28.2415 64.2173 28.0007 64.4261 27.8004C64.6392 27.6001 64.8928 27.5 65.1868 27.5C65.4808 27.5 65.7322 27.6001 65.9411 27.8004C66.1541 28.0007 66.2607 28.2415 66.2607 28.5227C66.2607 28.804 66.1541 29.0447 65.9411 29.245C65.7322 29.4453 65.4808 29.5455 65.1868 29.5455ZM72.9611 31.1818V32.4602H67.873V31.1818H72.9611ZM69.356 28.8295H70.8645V38.1875C70.8645 38.6136 70.9263 38.9332 71.0499 39.1463C71.1777 39.3551 71.3397 39.4957 71.5357 39.5682C71.736 39.6364 71.9469 39.6705 72.1685 39.6705C72.3347 39.6705 72.4711 39.6619 72.5776 39.6449C72.6841 39.6236 72.7694 39.6065 72.8333 39.5938L73.1401 40.9489C73.0378 40.9872 72.8951 41.0256 72.7118 41.0639C72.5286 41.1065 72.2963 41.1278 72.0151 41.1278C71.589 41.1278 71.1713 41.0362 70.7623 40.853C70.3574 40.6697 70.0208 40.3906 69.7523 40.0156C69.4881 39.6406 69.356 39.1676 69.356 38.5966V28.8295ZM75.2303 41V31.1818H76.7388V41H75.2303ZM75.9973 29.5455C75.7033 29.5455 75.4498 29.4453 75.2367 29.245C75.0279 29.0447 74.9235 28.804 74.9235 28.5227C74.9235 28.2415 75.0279 28.0007 75.2367 27.8004C75.4498 27.6001 75.7033 27.5 75.9973 27.5C76.2914 27.5 76.5428 27.6001 76.7516 27.8004C76.9647 28.0007 77.0712 28.2415 77.0712 28.5227C77.0712 28.804 76.9647 29.0447 76.7516 29.245C76.5428 29.4453 76.2914 29.5455 75.9973 29.5455ZM87.5302 31.1818L83.8995 41H82.3654L78.7347 31.1818H80.3711L83.0813 39.0057H83.1836L85.8938 31.1818H87.5302ZM93.2862 41.2045C92.3402 41.2045 91.5241 40.9957 90.8381 40.5781C90.1562 40.1562 89.63 39.5682 89.2592 38.8139C88.8928 38.0554 88.7095 37.1733 88.7095 36.1676C88.7095 35.1619 88.8928 34.2756 89.2592 33.5085C89.63 32.7372 90.1456 32.1364 90.8061 31.706C91.4709 31.2713 92.2464 31.054 93.1328 31.054C93.6442 31.054 94.1491 31.1392 94.6477 31.3097C95.1463 31.4801 95.6001 31.7571 96.0092 32.1406C96.4183 32.5199 96.7443 33.0227 96.9872 33.6491C97.2301 34.2756 97.3516 35.0469 97.3516 35.9631V36.6023H89.7834V35.2983H95.8175C95.8175 34.7443 95.7067 34.25 95.4851 33.8153C95.2678 33.3807 94.9567 33.0376 94.5518 32.7862C94.1513 32.5348 93.6783 32.4091 93.1328 32.4091C92.532 32.4091 92.0121 32.5582 91.5732 32.8565C91.1385 33.1506 90.804 33.5341 90.5696 34.0071C90.3352 34.4801 90.218 34.9872 90.218 35.5284V36.3977C90.218 37.1392 90.3459 37.7678 90.6016 38.2834C90.8615 38.7947 91.2216 39.1847 91.6818 39.4531C92.142 39.7173 92.6768 39.8494 93.2862 39.8494C93.6825 39.8494 94.0405 39.794 94.3601 39.6832C94.6839 39.5682 94.9631 39.3977 95.1974 39.1719C95.4318 38.9418 95.6129 38.6562 95.7408 38.3153L97.1982 38.7244C97.0447 39.2188 96.7869 39.6534 96.4247 40.0284C96.0625 40.3991 95.6151 40.6889 95.0824 40.8977C94.5497 41.1023 93.951 41.2045 93.2862 41.2045ZM106.601 33.3807L105.246 33.7642C105.161 33.5384 105.035 33.3189 104.869 33.1058C104.707 32.8885 104.485 32.7095 104.204 32.5689C103.923 32.4283 103.562 32.358 103.124 32.358C102.523 32.358 102.022 32.4964 101.621 32.7734C101.225 33.0462 101.027 33.3935 101.027 33.8153C101.027 34.1903 101.163 34.4865 101.436 34.7038C101.709 34.9212 102.135 35.1023 102.714 35.2472L104.172 35.6051C105.05 35.8182 105.704 36.1442 106.134 36.5831C106.565 37.0178 106.78 37.5781 106.78 38.2642C106.78 38.8267 106.618 39.3295 106.294 39.7727C105.974 40.2159 105.527 40.5653 104.952 40.821C104.376 41.0767 103.707 41.2045 102.945 41.2045C101.943 41.2045 101.114 40.9872 100.458 40.5526C99.8018 40.1179 99.3864 39.483 99.2116 38.6477L100.643 38.2898C100.78 38.8182 101.038 39.2145 101.417 39.4787C101.8 39.7429 102.301 39.875 102.919 39.875C103.622 39.875 104.18 39.7259 104.594 39.4276C105.011 39.125 105.22 38.7628 105.22 38.3409C105.22 38 105.101 37.7145 104.862 37.4844C104.624 37.25 104.257 37.0753 103.763 36.9602L102.126 36.5767C101.227 36.3636 100.567 36.0334 100.145 35.5859C99.7273 35.1342 99.5185 34.5696 99.5185 33.892C99.5185 33.3381 99.674 32.848 99.9851 32.4219C100.3 31.9957 100.729 31.6612 101.27 31.4183C101.815 31.1754 102.433 31.054 103.124 31.054C104.095 31.054 104.858 31.267 105.412 31.6932C105.97 32.1193 106.366 32.6818 106.601 33.3807Z" fill="black"/>
<rect x="1" y="1" width="1338" height="66" stroke="#DFDFE2"/>
<path d="M26.233 97V86.8182H32.3778V87.9119H27.4659V91.3523H32.0597V92.446H27.4659V95.9062H32.4574V97H26.233ZM35.3161 89.3636L37.1456 92.4858L38.9751 89.3636H40.3274L37.8615 93.1818L40.3274 97H38.9751L37.1456 94.0369L35.3161 97H33.9638L36.3899 93.1818L33.9638 89.3636H35.3161ZM44.2488 97.179C43.7649 97.179 43.3257 97.0878 42.9313 96.9055C42.5369 96.7199 42.2237 96.4531 41.9917 96.1051C41.7596 95.7538 41.6436 95.3295 41.6436 94.8324C41.6436 94.3949 41.7298 94.0402 41.9022 93.7685C42.0745 93.4934 42.3049 93.2779 42.5932 93.1222C42.8816 92.9664 43.1998 92.8504 43.5478 92.7741C43.8991 92.6946 44.2521 92.6316 44.6067 92.5852C45.0707 92.5256 45.4469 92.4808 45.7353 92.451C46.0269 92.4179 46.2391 92.3632 46.3716 92.2869C46.5075 92.2107 46.5755 92.0781 46.5755 91.8892V91.8494C46.5755 91.3589 46.4412 90.9777 46.1728 90.706C45.9076 90.4342 45.5049 90.2983 44.9647 90.2983C44.4045 90.2983 43.9654 90.4209 43.6472 90.6662C43.329 90.9115 43.1053 91.1733 42.976 91.4517L41.8624 91.054C42.0613 90.59 42.3264 90.2287 42.6578 89.9702C42.9926 89.7083 43.3572 89.526 43.7516 89.4233C44.1493 89.3172 44.5404 89.2642 44.9249 89.2642C45.1702 89.2642 45.4519 89.294 45.7701 89.3537C46.0916 89.41 46.4015 89.5277 46.6998 89.7067C47.0014 89.8857 47.2516 90.1558 47.4505 90.517C47.6493 90.8783 47.7488 91.3622 47.7488 91.9688V97H46.5755V95.9659H46.5158C46.4363 96.1316 46.3037 96.3089 46.1181 96.4979C45.9325 96.6868 45.6855 96.8475 45.3773 96.9801C45.0691 97.1127 44.6929 97.179 44.2488 97.179ZM44.4277 96.125C44.8917 96.125 45.2828 96.0339 45.601 95.8516C45.9225 95.6693 46.1645 95.4339 46.3269 95.1456C46.4926 94.8572 46.5755 94.554 46.5755 94.2358V93.1619C46.5257 93.2216 46.4164 93.2763 46.2473 93.326C46.0816 93.3724 45.8894 93.4138 45.6706 93.4503C45.4552 93.4834 45.2447 93.5133 45.0392 93.5398C44.8371 93.563 44.673 93.5829 44.5471 93.5994C44.2421 93.6392 43.9571 93.7038 43.6919 93.7933C43.4301 93.8795 43.218 94.0104 43.0556 94.1861C42.8965 94.3584 42.8169 94.5937 42.8169 94.892C42.8169 95.2997 42.9677 95.608 43.2694 95.8168C43.5743 96.0223 43.9604 96.125 44.4277 96.125ZM49.8903 97V89.3636H51.0238V90.5568H51.1232C51.2823 90.1491 51.5392 89.8326 51.8938 89.6072C52.2485 89.3786 52.6744 89.2642 53.1715 89.2642C53.6753 89.2642 54.0946 89.3786 54.4293 89.6072C54.7674 89.8326 55.0309 90.1491 55.2198 90.5568H55.2994C55.4949 90.1624 55.7882 89.8492 56.1793 89.6172C56.5704 89.3819 57.0394 89.2642 57.5863 89.2642C58.2691 89.2642 58.8275 89.478 59.2617 89.9055C59.6959 90.3298 59.913 90.991 59.913 91.8892V97H58.7397V91.8892C58.7397 91.3258 58.5856 90.9231 58.2773 90.6811C57.9691 90.4392 57.6062 90.3182 57.1886 90.3182C56.6516 90.3182 56.2357 90.4806 55.9407 90.8054C55.6457 91.1269 55.4982 91.5346 55.4982 92.0284V97H54.305V91.7699C54.305 91.3357 54.1642 90.986 53.8825 90.7209C53.6007 90.4524 53.2378 90.3182 52.7937 90.3182C52.4888 90.3182 52.2037 90.3994 51.9386 90.5618C51.6767 90.7242 51.4646 90.9496 51.3022 91.2379C51.1431 91.523 51.0636 91.8527 51.0636 92.2273V97H49.8903ZM62.0582 99.8636V89.3636H63.1918V90.5767H63.331C63.4171 90.4441 63.5365 90.2751 63.6889 90.0696C63.8447 89.8608 64.0668 89.6752 64.3551 89.5128C64.6468 89.3471 65.0412 89.2642 65.5384 89.2642C66.1813 89.2642 66.7481 89.425 67.2386 89.7464C67.7292 90.0679 68.112 90.5237 68.3871 91.1136C68.6622 91.7036 68.7997 92.3996 68.7997 93.2017C68.7997 94.0104 68.6622 94.7114 68.3871 95.3047C68.112 95.8946 67.7308 96.352 67.2436 96.6768C66.7564 96.9983 66.1946 97.1591 65.5582 97.1591C65.0677 97.1591 64.675 97.0779 64.38 96.9155C64.085 96.7498 63.858 96.5625 63.6989 96.3537C63.5398 96.1416 63.4171 95.9659 63.331 95.8267H63.2315V99.8636H62.0582ZM63.2116 93.1818C63.2116 93.7585 63.2962 94.2673 63.4652 94.7081C63.6342 95.1456 63.8812 95.4886 64.206 95.7372C64.5308 95.9825 64.9285 96.1051 65.3991 96.1051C65.8897 96.1051 66.299 95.9759 66.6271 95.7173C66.9586 95.4555 67.2071 95.1042 67.3729 94.6634C67.5419 94.2192 67.6264 93.7254 67.6264 93.1818C67.6264 92.6449 67.5436 92.161 67.3778 91.7301C67.2154 91.2959 66.9685 90.9529 66.6371 90.701C66.3089 90.4458 65.8963 90.3182 65.3991 90.3182C64.9219 90.3182 64.5208 90.4392 64.196 90.6811C63.8712 90.9197 63.6259 91.2545 63.4602 91.6854C63.2945 92.1129 63.2116 92.6117 63.2116 93.1818ZM71.7628 86.8182V97H70.5895V86.8182H71.7628ZM77.1135 97.1591C76.3777 97.1591 75.743 96.9967 75.2093 96.6719C74.679 96.3438 74.2697 95.8864 73.9814 95.2997C73.6963 94.7098 73.5538 94.0237 73.5538 93.2415C73.5538 92.4593 73.6963 91.7699 73.9814 91.1733C74.2697 90.5734 74.6708 90.1061 75.1845 89.7713C75.7015 89.4332 76.3047 89.2642 76.9941 89.2642C77.3919 89.2642 77.7846 89.3305 78.1724 89.4631C78.5602 89.5956 78.9132 89.8111 79.2314 90.1094C79.5495 90.4044 79.8031 90.7955 79.992 91.2827C80.1809 91.7699 80.2754 92.3698 80.2754 93.0824V93.5795H74.389V92.5653H79.0822C79.0822 92.1345 78.996 91.75 78.8237 91.4119C78.6547 91.0739 78.4127 90.8071 78.0978 90.6115C77.7863 90.416 77.4184 90.3182 76.9941 90.3182C76.5268 90.3182 76.1225 90.4342 75.7811 90.6662C75.443 90.8949 75.1828 91.1932 75.0005 91.5611C74.8182 91.929 74.7271 92.3234 74.7271 92.7443V93.4205C74.7271 93.9972 74.8265 94.486 75.0254 94.8871C75.2276 95.2848 75.5076 95.5881 75.8656 95.7969C76.2235 96.0024 76.6395 96.1051 77.1135 96.1051C77.4217 96.1051 77.7001 96.062 77.9487 95.9759C78.2006 95.8864 78.4177 95.7538 78.6 95.5781C78.7823 95.3991 78.9231 95.1771 79.0225 94.9119L80.1561 95.2301C80.0368 95.6146 79.8362 95.9527 79.5545 96.2443C79.2728 96.5327 78.9248 96.758 78.5105 96.9205C78.0962 97.0795 77.6305 97.1591 77.1135 97.1591Z" fill="black"/>
<rect x="1" y="67" width="669" height="49" stroke="#DFDFE2"/>
<path d="M703.307 86.8182V97H702.114L696.565 89.0057H696.466V97H695.233V86.8182H696.426L701.994 94.8324H702.094V86.8182H703.307ZM707.862 97.179C707.378 97.179 706.939 97.0878 706.545 96.9055C706.15 96.7199 705.837 96.4531 705.605 96.1051C705.373 95.7538 705.257 95.3295 705.257 94.8324C705.257 94.3949 705.343 94.0402 705.515 93.7685C705.688 93.4934 705.918 93.2779 706.206 93.1222C706.495 92.9664 706.813 92.8504 707.161 92.7741C707.512 92.6946 707.865 92.6316 708.22 92.5852C708.684 92.5256 709.06 92.4808 709.349 92.451C709.64 92.4179 709.852 92.3632 709.985 92.2869C710.121 92.2107 710.189 92.0781 710.189 91.8892V91.8494C710.189 91.3589 710.055 90.9777 709.786 90.706C709.521 90.4342 709.118 90.2983 708.578 90.2983C708.018 90.2983 707.579 90.4209 707.26 90.6662C706.942 90.9115 706.719 91.1733 706.589 91.4517L705.476 91.054C705.675 90.59 705.94 90.2287 706.271 89.9702C706.606 89.7083 706.97 89.526 707.365 89.4233C707.763 89.3172 708.154 89.2642 708.538 89.2642C708.783 89.2642 709.065 89.294 709.383 89.3537C709.705 89.41 710.015 89.5277 710.313 89.7067C710.615 89.8857 710.865 90.1558 711.064 90.517C711.263 90.8783 711.362 91.3622 711.362 91.9688V97H710.189V95.9659H710.129C710.05 96.1316 709.917 96.3089 709.731 96.4979C709.546 96.6868 709.299 96.8475 708.991 96.9801C708.682 97.1127 708.306 97.179 707.862 97.179ZM708.041 96.125C708.505 96.125 708.896 96.0339 709.214 95.8516C709.536 95.6693 709.778 95.4339 709.94 95.1456C710.106 94.8572 710.189 94.554 710.189 94.2358V93.1619C710.139 93.2216 710.03 93.2763 709.861 93.326C709.695 93.3724 709.503 93.4138 709.284 93.4503C709.068 93.4834 708.858 93.5133 708.653 93.5398C708.45 93.563 708.286 93.5829 708.16 93.5994C707.855 93.6392 707.57 93.7038 707.305 93.7933C707.043 93.8795 706.831 94.0104 706.669 94.1861C706.51 94.3584 706.43 94.5937 706.43 94.892C706.43 95.2997 706.581 95.608 706.883 95.8168C707.188 96.0223 707.574 96.125 708.041 96.125ZM713.504 97V89.3636H714.637V90.5568H714.737C714.896 90.1491 715.152 89.8326 715.507 89.6072C715.862 89.3786 716.288 89.2642 716.785 89.2642C717.289 89.2642 717.708 89.3786 718.043 89.6072C718.381 89.8326 718.644 90.1491 718.833 90.5568H718.913C719.108 90.1624 719.402 89.8492 719.793 89.6172C720.184 89.3819 720.653 89.2642 721.2 89.2642C721.882 89.2642 722.441 89.478 722.875 89.9055C723.309 90.3298 723.526 90.991 723.526 91.8892V97H722.353V91.8892C722.353 91.3258 722.199 90.9231 721.891 90.6811C721.582 90.4392 721.219 90.3182 720.802 90.3182C720.265 90.3182 719.849 90.4806 719.554 90.8054C719.259 91.1269 719.112 91.5346 719.112 92.0284V97H717.918V91.7699C717.918 91.3357 717.777 90.986 717.496 90.7209C717.214 90.4524 716.851 90.3182 716.407 90.3182C716.102 90.3182 715.817 90.3994 715.552 90.5618C715.29 90.7242 715.078 90.9496 714.915 91.2379C714.756 91.523 714.677 91.8527 714.677 92.2273V97H713.504ZM728.873 97.1591C728.137 97.1591 727.503 96.9967 726.969 96.6719C726.439 96.3438 726.029 95.8864 725.741 95.2997C725.456 94.7098 725.314 94.0237 725.314 93.2415C725.314 92.4593 725.456 91.7699 725.741 91.1733C726.029 90.5734 726.431 90.1061 726.944 89.7713C727.461 89.4332 728.065 89.2642 728.754 89.2642C729.152 89.2642 729.544 89.3305 729.932 89.4631C730.32 89.5956 730.673 89.8111 730.991 90.1094C731.309 90.4044 731.563 90.7955 731.752 91.2827C731.941 91.7699 732.035 92.3698 732.035 93.0824V93.5795H726.149V92.5653H730.842C730.842 92.1345 730.756 91.75 730.583 91.4119C730.414 91.0739 730.172 90.8071 729.858 90.6115C729.546 90.416 729.178 90.3182 728.754 90.3182C728.287 90.3182 727.882 90.4342 727.541 90.6662C727.203 90.8949 726.943 91.1932 726.76 91.5611C726.578 91.929 726.487 92.3234 726.487 92.7443V93.4205C726.487 93.9972 726.586 94.486 726.785 94.8871C726.987 95.2848 727.267 95.5881 727.625 95.7969C727.983 96.0024 728.399 96.1051 728.873 96.1051C729.181 96.1051 729.46 96.062 729.708 95.9759C729.96 95.8864 730.177 95.7538 730.36 95.5781C730.542 95.3991 730.683 95.1771 730.782 94.9119L731.916 95.2301C731.797 95.6146 731.596 95.9527 731.314 96.2443C731.033 96.5327 730.685 96.758 730.27 96.9205C729.856 97.0795 729.39 97.1591 728.873 97.1591Z" fill="black"/>
<rect x="670" y="67" width="334.5" height="49" stroke="#DFDFE2"/>
<path d="M1030.15 86.8182L1033.17 95.3892H1033.29L1036.32 86.8182H1037.61L1033.87 97H1032.6L1028.86 86.8182H1030.15ZM1040.57 97.179C1040.09 97.179 1039.65 97.0878 1039.25 96.9055C1038.86 96.7199 1038.55 96.4531 1038.31 96.1051C1038.08 95.7538 1037.97 95.3295 1037.97 94.8324C1037.97 94.3949 1038.05 94.0402 1038.22 93.7685C1038.4 93.4934 1038.63 93.2779 1038.92 93.1222C1039.2 92.9664 1039.52 92.8504 1039.87 92.7741C1040.22 92.6946 1040.57 92.6316 1040.93 92.5852C1041.39 92.5256 1041.77 92.4808 1042.06 92.451C1042.35 92.4179 1042.56 92.3632 1042.69 92.2869C1042.83 92.2107 1042.9 92.0781 1042.9 91.8892V91.8494C1042.9 91.3589 1042.76 90.9777 1042.5 90.706C1042.23 90.4342 1041.83 90.2983 1041.29 90.2983C1040.73 90.2983 1040.29 90.4209 1039.97 90.6662C1039.65 90.9115 1039.43 91.1733 1039.3 91.4517L1038.18 91.054C1038.38 90.59 1038.65 90.2287 1038.98 89.9702C1039.31 89.7083 1039.68 89.526 1040.07 89.4233C1040.47 89.3172 1040.86 89.2642 1041.25 89.2642C1041.49 89.2642 1041.77 89.294 1042.09 89.3537C1042.41 89.41 1042.72 89.5277 1043.02 89.7067C1043.32 89.8857 1043.57 90.1558 1043.77 90.517C1043.97 90.8783 1044.07 91.3622 1044.07 91.9688V97H1042.9V95.9659H1042.84C1042.76 96.1316 1042.63 96.3089 1042.44 96.4979C1042.25 96.6868 1042.01 96.8475 1041.7 96.9801C1041.39 97.1127 1041.02 97.179 1040.57 97.179ZM1040.75 96.125C1041.21 96.125 1041.61 96.0339 1041.92 95.8516C1042.24 95.6693 1042.49 95.4339 1042.65 95.1456C1042.81 94.8572 1042.9 94.554 1042.9 94.2358V93.1619C1042.85 93.2216 1042.74 93.2763 1042.57 93.326C1042.4 93.3724 1042.21 93.4138 1041.99 93.4503C1041.78 93.4834 1041.57 93.5133 1041.36 93.5398C1041.16 93.563 1041 93.5829 1040.87 93.5994C1040.56 93.6392 1040.28 93.7038 1040.01 93.7933C1039.75 93.8795 1039.54 94.0104 1039.38 94.1861C1039.22 94.3584 1039.14 94.5937 1039.14 94.892C1039.14 95.2997 1039.29 95.608 1039.59 95.8168C1039.9 96.0223 1040.28 96.125 1040.75 96.125ZM1047.39 86.8182V97H1046.21V86.8182H1047.39ZM1054.35 93.8778V89.3636H1055.52V97H1054.35V95.7074H1054.27C1054.09 96.0952 1053.81 96.425 1053.43 96.6967C1053.05 96.9652 1052.58 97.0994 1052 97.0994C1051.52 97.0994 1051.1 96.995 1050.73 96.7862C1050.36 96.5741 1050.07 96.2559 1049.85 95.8317C1049.64 95.4041 1049.53 94.8655 1049.53 94.2159V89.3636H1050.71V94.1364C1050.71 94.6932 1050.86 95.1373 1051.18 95.4688C1051.49 95.8002 1051.89 95.9659 1052.38 95.9659C1052.67 95.9659 1052.97 95.8913 1053.27 95.7422C1053.57 95.593 1053.83 95.3643 1054.03 95.0561C1054.24 94.7479 1054.35 94.3551 1054.35 93.8778ZM1060.87 97.1591C1060.14 97.1591 1059.5 96.9967 1058.97 96.6719C1058.44 96.3438 1058.03 95.8864 1057.74 95.2997C1057.45 94.7098 1057.31 94.0237 1057.31 93.2415C1057.31 92.4593 1057.45 91.7699 1057.74 91.1733C1058.03 90.5734 1058.43 90.1061 1058.94 89.7713C1059.46 89.4332 1060.06 89.2642 1060.75 89.2642C1061.15 89.2642 1061.54 89.3305 1061.93 89.4631C1062.32 89.5956 1062.67 89.8111 1062.99 90.1094C1063.31 90.4044 1063.56 90.7955 1063.75 91.2827C1063.94 91.7699 1064.03 92.3698 1064.03 93.0824V93.5795H1058.15V92.5653H1062.84C1062.84 92.1345 1062.75 91.75 1062.58 91.4119C1062.41 91.0739 1062.17 90.8071 1061.86 90.6115C1061.54 90.416 1061.18 90.3182 1060.75 90.3182C1060.28 90.3182 1059.88 90.4342 1059.54 90.6662C1059.2 90.8949 1058.94 91.1932 1058.76 91.5611C1058.58 91.929 1058.48 92.3234 1058.48 92.7443V93.4205C1058.48 93.9972 1058.58 94.486 1058.78 94.8871C1058.99 95.2848 1059.27 95.5881 1059.62 95.7969C1059.98 96.0024 1060.4 96.1051 1060.87 96.1051C1061.18 96.1051 1061.46 96.062 1061.71 95.9759C1061.96 95.8864 1062.18 95.7538 1062.36 95.5781C1062.54 95.3991 1062.68 95.1771 1062.78 94.9119L1063.91 95.2301C1063.79 95.6146 1063.59 95.9527 1063.31 96.2443C1063.03 96.5327 1062.68 96.758 1062.27 96.9205C1061.85 97.0795 1061.39 97.1591 1060.87 97.1591Z" fill="black"/>
<rect x="1004.5" y="67" width="334.5" height="49" stroke="#DFDFE2"/>
<rect x="25" y="145.5" width="4" height="4" stroke="black"/>
<rect x="1" y="116" width="669" height="63" stroke="#DFDFE2"/>
<path d="M694.92 152V145.455H695.892V146.477H695.977C696.114 146.128 696.334 145.857 696.638 145.663C696.942 145.467 697.307 145.369 697.733 145.369C698.165 145.369 698.524 145.467 698.811 145.663C699.101 145.857 699.327 146.128 699.489 146.477H699.557C699.724 146.139 699.976 145.871 700.311 145.672C700.646 145.47 701.048 145.369 701.517 145.369C702.102 145.369 702.581 145.553 702.953 145.919C703.325 146.283 703.511 146.849 703.511 147.619V152H702.506V147.619C702.506 147.136 702.374 146.791 702.109 146.584C701.845 146.376 701.534 146.273 701.176 146.273C700.716 146.273 700.359 146.412 700.107 146.69C699.854 146.966 699.727 147.315 699.727 147.739V152H698.705V147.517C698.705 147.145 698.584 146.845 698.342 146.618C698.101 146.388 697.79 146.273 697.409 146.273C697.148 146.273 696.903 146.342 696.676 146.482C696.452 146.621 696.27 146.814 696.131 147.061C695.994 147.305 695.926 147.588 695.926 147.909V152H694.92ZM705.35 152V145.455H706.356V152H705.35ZM705.862 144.364C705.665 144.364 705.496 144.297 705.354 144.163C705.215 144.03 705.146 143.869 705.146 143.682C705.146 143.494 705.215 143.334 705.354 143.2C705.496 143.067 705.665 143 705.862 143C706.058 143 706.225 143.067 706.364 143.2C706.506 143.334 706.577 143.494 706.577 143.682C706.577 143.869 706.506 144.03 706.364 144.163C706.225 144.297 706.058 144.364 705.862 144.364ZM709.203 148.062V152H708.198V145.455H709.169V146.477H709.255C709.408 146.145 709.641 145.878 709.953 145.676C710.266 145.472 710.669 145.369 711.164 145.369C711.607 145.369 711.995 145.46 712.327 145.642C712.659 145.821 712.918 146.094 713.103 146.46C713.287 146.824 713.38 147.284 713.38 147.841V152H712.374V147.909C712.374 147.395 712.24 146.994 711.973 146.707C711.706 146.418 711.34 146.273 710.874 146.273C710.553 146.273 710.266 146.342 710.013 146.482C709.763 146.621 709.566 146.824 709.421 147.091C709.276 147.358 709.203 147.682 709.203 148.062Z" fill="black"/>
<rect x="670" y="116" width="334.5" height="63" stroke="#DFDFE2"/>
<path d="M1029.2 150.21V149.341L1033.03 143.273H1033.66V144.619H1033.24L1030.34 149.205V149.273H1035.51V150.21H1029.2ZM1033.31 152V149.946V149.541V143.273H1034.31V152H1033.31ZM1037.12 154.455V145.455H1038.09V146.494H1038.21C1038.28 146.381 1038.39 146.236 1038.52 146.06C1038.65 145.881 1038.84 145.722 1039.09 145.582C1039.34 145.44 1039.68 145.369 1040.1 145.369C1040.65 145.369 1041.14 145.507 1041.56 145.783C1041.98 146.058 1042.31 146.449 1042.54 146.955C1042.78 147.46 1042.9 148.057 1042.9 148.744C1042.9 149.438 1042.78 150.038 1042.54 150.547C1042.31 151.053 1041.98 151.445 1041.56 151.723C1041.15 151.999 1040.67 152.136 1040.12 152.136C1039.7 152.136 1039.36 152.067 1039.11 151.928C1038.86 151.786 1038.66 151.625 1038.53 151.446C1038.39 151.264 1038.28 151.114 1038.21 150.994H1038.13V154.455H1037.12ZM1038.11 148.727C1038.11 149.222 1038.18 149.658 1038.33 150.036C1038.47 150.411 1038.68 150.705 1038.96 150.918C1039.24 151.128 1039.58 151.233 1039.98 151.233C1040.4 151.233 1040.75 151.122 1041.04 150.901C1041.32 150.676 1041.53 150.375 1041.68 149.997C1041.82 149.616 1041.89 149.193 1041.89 148.727C1041.89 148.267 1041.82 147.852 1041.68 147.483C1041.54 147.111 1041.33 146.817 1041.04 146.601C1040.76 146.382 1040.41 146.273 1039.98 146.273C1039.57 146.273 1039.23 146.376 1038.95 146.584C1038.67 146.788 1038.46 147.075 1038.32 147.445C1038.18 147.811 1038.11 148.239 1038.11 148.727ZM1044.91 145.455L1046.48 148.131L1048.05 145.455H1049.21L1047.09 148.727L1049.21 152H1048.05L1046.48 149.46L1044.91 152H1043.75L1045.83 148.727L1043.75 145.455H1044.91Z" fill="black"/>
<rect x="1004.5" y="116" width="334.5" height="63" stroke="#DFDFE2"/>
<rect x="25" y="206.5" width="8" height="8" stroke="black"/>
<rect x="1" y="179" width="669" height="63" stroke="#DFDFE2"/>
<path d="M697.972 206.273V215H696.915V207.381H696.864L694.733 208.795V207.722L696.915 206.273H697.972Z" fill="black"/>
<rect x="670" y="179" width="334.5" height="63" stroke="#DFDFE2"/>
<path d="M1032.2 215.119C1031.61 215.119 1031.1 215.016 1030.65 214.808C1030.2 214.598 1029.85 214.31 1029.6 213.943C1029.35 213.574 1029.23 213.153 1029.23 212.682C1029.23 212.312 1029.3 211.972 1029.45 211.659C1029.6 211.344 1029.8 211.081 1030.06 210.871C1030.31 210.658 1030.6 210.523 1030.92 210.466V210.415C1030.5 210.307 1030.17 210.072 1029.92 209.712C1029.68 209.348 1029.55 208.935 1029.56 208.472C1029.55 208.028 1029.67 207.632 1029.89 207.283C1030.12 206.933 1030.43 206.658 1030.83 206.456C1031.23 206.254 1031.69 206.153 1032.2 206.153C1032.7 206.153 1033.16 206.254 1033.55 206.456C1033.95 206.658 1034.26 206.933 1034.49 207.283C1034.72 207.632 1034.84 208.028 1034.84 208.472C1034.84 208.935 1034.71 209.348 1034.46 209.712C1034.21 210.072 1033.89 210.307 1033.48 210.415V210.466C1033.79 210.523 1034.08 210.658 1034.33 210.871C1034.58 211.081 1034.78 211.344 1034.93 211.659C1035.09 211.972 1035.16 212.312 1035.16 212.682C1035.16 213.153 1035.03 213.574 1034.78 213.943C1034.53 214.31 1034.18 214.598 1033.74 214.808C1033.29 215.016 1032.78 215.119 1032.2 215.119ZM1032.2 214.182C1032.59 214.182 1032.93 214.118 1033.22 213.99C1033.51 213.862 1033.73 213.682 1033.89 213.449C1034.04 213.216 1034.12 212.943 1034.12 212.631C1034.12 212.301 1034.04 212.01 1033.87 211.757C1033.7 211.504 1033.47 211.305 1033.18 211.161C1032.9 211.016 1032.57 210.943 1032.2 210.943C1031.83 210.943 1031.49 211.016 1031.2 211.161C1030.91 211.305 1030.68 211.504 1030.52 211.757C1030.35 212.01 1030.27 212.301 1030.27 212.631C1030.27 212.943 1030.35 213.216 1030.5 213.449C1030.65 213.682 1030.88 213.862 1031.17 213.99C1031.46 214.118 1031.8 214.182 1032.2 214.182ZM1032.2 210.04C1032.51 210.04 1032.79 209.977 1033.03 209.852C1033.27 209.727 1033.47 209.553 1033.61 209.328C1033.74 209.104 1033.82 208.841 1033.82 208.54C1033.82 208.244 1033.75 207.987 1033.61 207.768C1033.47 207.547 1033.28 207.376 1033.04 207.257C1032.8 207.135 1032.52 207.074 1032.2 207.074C1031.87 207.074 1031.59 207.135 1031.34 207.257C1031.1 207.376 1030.91 207.547 1030.78 207.768C1030.64 207.987 1030.58 208.244 1030.58 208.54C1030.58 208.841 1030.64 209.104 1030.78 209.328C1030.92 209.553 1031.11 209.727 1031.36 209.852C1031.6 209.977 1031.88 210.04 1032.2 210.04ZM1036.81 217.455V208.455H1037.79V209.494H1037.91C1037.98 209.381 1038.08 209.236 1038.21 209.06C1038.35 208.881 1038.54 208.722 1038.78 208.582C1039.03 208.44 1039.37 208.369 1039.8 208.369C1040.35 208.369 1040.83 208.507 1041.26 208.783C1041.68 209.058 1042 209.449 1042.24 209.955C1042.48 210.46 1042.59 211.057 1042.59 211.744C1042.59 212.438 1042.48 213.038 1042.24 213.547C1042 214.053 1041.68 214.445 1041.26 214.723C1040.84 214.999 1040.36 215.136 1039.81 215.136C1039.39 215.136 1039.06 215.067 1038.81 214.928C1038.55 214.786 1038.36 214.625 1038.22 214.446C1038.08 214.264 1037.98 214.114 1037.91 213.994H1037.82V217.455H1036.81ZM1037.8 211.727C1037.8 212.222 1037.88 212.658 1038.02 213.036C1038.17 213.411 1038.38 213.705 1038.66 213.918C1038.93 214.128 1039.28 214.233 1039.68 214.233C1040.1 214.233 1040.45 214.122 1040.73 213.901C1041.02 213.676 1041.23 213.375 1041.37 212.997C1041.52 212.616 1041.59 212.193 1041.59 211.727C1041.59 211.267 1041.52 210.852 1041.37 210.483C1041.24 210.111 1041.02 209.817 1040.74 209.601C1040.46 209.382 1040.1 209.273 1039.68 209.273C1039.27 209.273 1038.93 209.376 1038.65 209.584C1038.37 209.788 1038.16 210.075 1038.02 210.445C1037.87 210.811 1037.8 211.239 1037.8 211.727ZM1044.61 208.455L1046.18 211.131L1047.74 208.455H1048.9L1046.79 211.727L1048.9 215H1047.74L1046.18 212.46L1044.61 215H1043.45L1045.53 211.727L1043.45 208.455H1044.61Z" fill="black"/>
<rect x="1004.5" y="179" width="334.5" height="63" stroke="#DFDFE2"/>
<rect x="25" y="266" width="16" height="16" stroke="black"/>
<rect x="1" y="242" width="669" height="64" stroke="#DFDFE2"/>
<path d="M694.903 278.5V277.733L697.784 274.58C698.122 274.21 698.401 273.889 698.619 273.616C698.838 273.341 699 273.082 699.105 272.841C699.213 272.597 699.267 272.341 699.267 272.074C699.267 271.767 699.193 271.501 699.045 271.277C698.901 271.053 698.702 270.879 698.449 270.757C698.196 270.635 697.912 270.574 697.597 270.574C697.261 270.574 696.969 270.643 696.719 270.783C696.472 270.919 696.28 271.111 696.143 271.358C696.01 271.605 695.943 271.895 695.943 272.227H694.938C694.938 271.716 695.055 271.267 695.291 270.881C695.527 270.494 695.848 270.193 696.254 269.977C696.663 269.761 697.122 269.653 697.631 269.653C698.142 269.653 698.595 269.761 698.99 269.977C699.385 270.193 699.695 270.484 699.919 270.851C700.143 271.217 700.256 271.625 700.256 272.074C700.256 272.395 700.197 272.709 700.081 273.016C699.967 273.32 699.768 273.659 699.484 274.034C699.203 274.406 698.812 274.861 698.312 275.398L696.352 277.494V277.562H700.409V278.5H694.903Z" fill="black"/>
<rect x="670" y="242" width="334.5" height="64" stroke="#DFDFE2"/>
<path d="M1032.47 269.773V278.5H1031.41V270.881H1031.36L1029.23 272.295V271.222L1031.41 269.773H1032.47ZM1037.88 278.619C1037.52 278.614 1037.16 278.545 1036.81 278.415C1036.45 278.284 1036.12 278.064 1035.83 277.754C1035.53 277.442 1035.29 277.02 1035.11 276.489C1034.93 275.955 1034.85 275.284 1034.85 274.477C1034.85 273.705 1034.92 273.02 1035.06 272.423C1035.21 271.824 1035.42 271.32 1035.69 270.911C1035.97 270.499 1036.3 270.186 1036.69 269.973C1037.08 269.76 1037.52 269.653 1038.02 269.653C1038.5 269.653 1038.94 269.751 1039.32 269.947C1039.7 270.141 1040.02 270.411 1040.26 270.757C1040.5 271.104 1040.65 271.503 1040.73 271.955H1039.69C1039.59 271.562 1039.4 271.237 1039.12 270.979C1038.85 270.72 1038.48 270.591 1038.02 270.591C1037.34 270.591 1036.81 270.885 1036.42 271.473C1036.03 272.061 1035.84 272.886 1035.83 273.949H1035.9C1036.06 273.707 1036.25 273.501 1036.47 273.331C1036.69 273.158 1036.93 273.024 1037.2 272.93C1037.47 272.837 1037.75 272.79 1038.05 272.79C1038.55 272.79 1039.01 272.915 1039.42 273.165C1039.84 273.412 1040.17 273.754 1040.42 274.192C1040.67 274.626 1040.79 275.125 1040.79 275.688C1040.79 276.227 1040.67 276.722 1040.43 277.17C1040.19 277.616 1039.85 277.972 1039.41 278.236C1038.98 278.497 1038.47 278.625 1037.88 278.619ZM1037.88 277.682C1038.24 277.682 1038.56 277.592 1038.84 277.413C1039.13 277.234 1039.36 276.994 1039.52 276.693C1039.69 276.392 1039.77 276.057 1039.77 275.688C1039.77 275.327 1039.69 274.999 1039.53 274.703C1039.37 274.405 1039.15 274.168 1038.87 273.991C1038.59 273.815 1038.27 273.727 1037.91 273.727C1037.64 273.727 1037.39 273.781 1037.16 273.889C1036.93 273.994 1036.72 274.139 1036.55 274.324C1036.37 274.509 1036.24 274.72 1036.14 274.959C1036.04 275.195 1035.99 275.443 1035.99 275.705C1035.99 276.051 1036.07 276.375 1036.23 276.676C1036.39 276.977 1036.62 277.22 1036.9 277.405C1037.19 277.589 1037.52 277.682 1037.88 277.682ZM1042.49 280.955V271.955H1043.46V272.994H1043.58C1043.65 272.881 1043.75 272.736 1043.88 272.56C1044.02 272.381 1044.21 272.222 1044.46 272.082C1044.71 271.94 1045.04 271.869 1045.47 271.869C1046.02 271.869 1046.51 272.007 1046.93 272.283C1047.35 272.558 1047.68 272.949 1047.91 273.455C1048.15 273.96 1048.27 274.557 1048.27 275.244C1048.27 275.938 1048.15 276.538 1047.91 277.047C1047.68 277.553 1047.35 277.945 1046.93 278.223C1046.51 278.499 1046.03 278.636 1045.49 278.636C1045.07 278.636 1044.73 278.567 1044.48 278.428C1044.22 278.286 1044.03 278.125 1043.89 277.946C1043.76 277.764 1043.65 277.614 1043.58 277.494H1043.49V280.955H1042.49ZM1043.48 275.227C1043.48 275.722 1043.55 276.158 1043.69 276.536C1043.84 276.911 1044.05 277.205 1044.33 277.418C1044.61 277.628 1044.95 277.733 1045.35 277.733C1045.77 277.733 1046.12 277.622 1046.4 277.401C1046.69 277.176 1046.9 276.875 1047.04 276.497C1047.19 276.116 1047.26 275.693 1047.26 275.227C1047.26 274.767 1047.19 274.352 1047.05 273.983C1046.91 273.611 1046.7 273.317 1046.41 273.101C1046.13 272.882 1045.78 272.773 1045.35 272.773C1044.94 272.773 1044.6 272.876 1044.32 273.084C1044.04 273.288 1043.83 273.575 1043.69 273.945C1043.55 274.311 1043.48 274.739 1043.48 275.227ZM1050.28 271.955L1051.85 274.631L1053.42 271.955H1054.58L1052.46 275.227L1054.58 278.5H1053.42L1051.85 275.96L1050.28 278.5H1049.12L1051.2 275.227L1049.12 271.955H1050.28Z" fill="black"/>
<rect x="1004.5" y="242" width="334.5" height="64" stroke="#DFDFE2"/>
<rect x="25" y="330" width="24" height="24" stroke="black"/>
<rect x="1" y="306" width="669" height="72" stroke="#DFDFE2"/>
<path d="M697.852 346.619C697.29 346.619 696.788 346.523 696.348 346.33C695.911 346.136 695.563 345.868 695.304 345.524C695.048 345.178 694.909 344.776 694.886 344.318H695.96C695.983 344.599 696.08 344.842 696.25 345.047C696.42 345.249 696.643 345.405 696.919 345.516C697.195 345.626 697.5 345.682 697.835 345.682C698.21 345.682 698.543 345.616 698.832 345.486C699.122 345.355 699.349 345.173 699.514 344.94C699.679 344.707 699.761 344.438 699.761 344.131C699.761 343.81 699.682 343.527 699.523 343.283C699.364 343.036 699.131 342.842 698.824 342.703C698.517 342.564 698.142 342.494 697.699 342.494H697V341.557H697.699C698.045 341.557 698.349 341.494 698.611 341.369C698.875 341.244 699.081 341.068 699.229 340.841C699.379 340.614 699.455 340.347 699.455 340.04C699.455 339.744 699.389 339.487 699.259 339.268C699.128 339.05 698.943 338.879 698.705 338.757C698.469 338.635 698.19 338.574 697.869 338.574C697.568 338.574 697.284 338.629 697.017 338.74C696.753 338.848 696.537 339.006 696.369 339.213C696.202 339.418 696.111 339.665 696.097 339.955H695.074C695.091 339.497 695.229 339.097 695.487 338.753C695.746 338.406 696.084 338.136 696.501 337.943C696.922 337.75 697.384 337.653 697.886 337.653C698.426 337.653 698.889 337.763 699.276 337.982C699.662 338.197 699.959 338.483 700.166 338.838C700.374 339.193 700.477 339.577 700.477 339.989C700.477 340.48 700.348 340.899 700.089 341.246C699.834 341.592 699.486 341.832 699.045 341.966V342.034C699.597 342.125 700.027 342.359 700.337 342.737C700.646 343.112 700.801 343.577 700.801 344.131C700.801 344.605 700.672 345.031 700.413 345.409C700.158 345.784 699.808 346.08 699.365 346.295C698.922 346.511 698.418 346.619 697.852 346.619Z" fill="black"/>
<rect x="670" y="306" width="334.5" height="72" stroke="#DFDFE2"/>
<path d="M1029.4 346.5V345.733L1032.28 342.58C1032.62 342.21 1032.9 341.889 1033.12 341.616C1033.34 341.341 1033.5 341.082 1033.61 340.841C1033.71 340.597 1033.77 340.341 1033.77 340.074C1033.77 339.767 1033.69 339.501 1033.55 339.277C1033.4 339.053 1033.2 338.879 1032.95 338.757C1032.7 338.635 1032.41 338.574 1032.1 338.574C1031.76 338.574 1031.47 338.643 1031.22 338.783C1030.97 338.919 1030.78 339.111 1030.64 339.358C1030.51 339.605 1030.44 339.895 1030.44 340.227H1029.44C1029.44 339.716 1029.56 339.267 1029.79 338.881C1030.03 338.494 1030.35 338.193 1030.75 337.977C1031.16 337.761 1031.62 337.653 1032.13 337.653C1032.64 337.653 1033.1 337.761 1033.49 337.977C1033.88 338.193 1034.19 338.484 1034.42 338.851C1034.64 339.217 1034.76 339.625 1034.76 340.074C1034.76 340.395 1034.7 340.709 1034.58 341.016C1034.47 341.32 1034.27 341.659 1033.98 342.034C1033.7 342.406 1033.31 342.861 1032.81 343.398L1030.85 345.494V345.562H1034.91V346.5H1029.4ZM1036.28 344.71V343.841L1040.11 337.773H1040.74V339.119H1040.32L1037.42 343.705V343.773H1042.58V344.71H1036.28ZM1040.38 346.5V344.446V344.041V337.773H1041.39V346.5H1040.38ZM1044.2 348.955V339.955H1045.17V340.994H1045.29C1045.36 340.881 1045.46 340.736 1045.6 340.56C1045.73 340.381 1045.92 340.222 1046.17 340.082C1046.42 339.94 1046.75 339.869 1047.18 339.869C1047.73 339.869 1048.22 340.007 1048.64 340.283C1049.06 340.558 1049.39 340.949 1049.62 341.455C1049.86 341.96 1049.98 342.557 1049.98 343.244C1049.98 343.938 1049.86 344.538 1049.62 345.047C1049.39 345.553 1049.06 345.945 1048.64 346.223C1048.22 346.499 1047.74 346.636 1047.2 346.636C1046.78 346.636 1046.44 346.567 1046.19 346.428C1045.94 346.286 1045.74 346.125 1045.6 345.946C1045.47 345.764 1045.36 345.614 1045.29 345.494H1045.2V348.955H1044.2ZM1045.19 343.227C1045.19 343.722 1045.26 344.158 1045.4 344.536C1045.55 344.911 1045.76 345.205 1046.04 345.418C1046.32 345.628 1046.66 345.733 1047.06 345.733C1047.48 345.733 1047.83 345.622 1048.11 345.401C1048.4 345.176 1048.61 344.875 1048.75 344.497C1048.9 344.116 1048.97 343.693 1048.97 343.227C1048.97 342.767 1048.9 342.352 1048.76 341.983C1048.62 341.611 1048.41 341.317 1048.12 341.101C1047.84 340.882 1047.49 340.773 1047.06 340.773C1046.65 340.773 1046.31 340.876 1046.03 341.084C1045.75 341.288 1045.54 341.575 1045.4 341.945C1045.26 342.311 1045.19 342.739 1045.19 343.227ZM1051.99 339.955L1053.56 342.631L1055.13 339.955H1056.29L1054.17 343.227L1056.29 346.5H1055.13L1053.56 343.96L1051.99 346.5H1050.83L1052.91 343.227L1050.83 339.955H1051.99Z" fill="black"/>
<rect x="1004.5" y="306" width="334.5" height="72" stroke="#DFDFE2"/>
<rect x="25" y="402" width="32" height="32" stroke="black"/>
<rect x="1" y="378" width="669" height="80" stroke="#DFDFE2"/>
<path d="M694.699 420.71V419.841L698.534 413.773H699.165V415.119H698.739L695.841 419.705V419.773H701.006V420.71H694.699ZM698.807 422.5V420.446V420.041V413.773H699.812V422.5H698.807Z" fill="black"/>
<rect x="670" y="378" width="334.5" height="80" stroke="#DFDFE2"/>
<path d="M1032.35 422.619C1031.79 422.619 1031.29 422.523 1030.85 422.33C1030.41 422.136 1030.06 421.868 1029.8 421.524C1029.55 421.178 1029.41 420.776 1029.39 420.318H1030.46C1030.48 420.599 1030.58 420.842 1030.75 421.047C1030.92 421.249 1031.14 421.405 1031.42 421.516C1031.69 421.626 1032 421.682 1032.34 421.682C1032.71 421.682 1033.04 421.616 1033.33 421.486C1033.62 421.355 1033.85 421.173 1034.01 420.94C1034.18 420.707 1034.26 420.438 1034.26 420.131C1034.26 419.81 1034.18 419.527 1034.02 419.283C1033.86 419.036 1033.63 418.842 1033.32 418.703C1033.02 418.564 1032.64 418.494 1032.2 418.494H1031.5V417.557H1032.2C1032.55 417.557 1032.85 417.494 1033.11 417.369C1033.38 417.244 1033.58 417.068 1033.73 416.841C1033.88 416.614 1033.95 416.347 1033.95 416.04C1033.95 415.744 1033.89 415.487 1033.76 415.268C1033.63 415.05 1033.44 414.879 1033.2 414.757C1032.97 414.635 1032.69 414.574 1032.37 414.574C1032.07 414.574 1031.78 414.629 1031.52 414.74C1031.25 414.848 1031.04 415.006 1030.87 415.213C1030.7 415.418 1030.61 415.665 1030.6 415.955H1029.57C1029.59 415.497 1029.73 415.097 1029.99 414.753C1030.25 414.406 1030.58 414.136 1031 413.943C1031.42 413.75 1031.88 413.653 1032.39 413.653C1032.93 413.653 1033.39 413.763 1033.78 413.982C1034.16 414.197 1034.46 414.483 1034.67 414.838C1034.87 415.193 1034.98 415.577 1034.98 415.989C1034.98 416.48 1034.85 416.899 1034.59 417.246C1034.33 417.592 1033.99 417.832 1033.55 417.966V418.034C1034.1 418.125 1034.53 418.359 1034.84 418.737C1035.15 419.112 1035.3 419.577 1035.3 420.131C1035.3 420.605 1035.17 421.031 1034.91 421.409C1034.66 421.784 1034.31 422.08 1033.87 422.295C1033.42 422.511 1032.92 422.619 1032.35 422.619ZM1037.04 422.5V421.733L1039.92 418.58C1040.26 418.21 1040.54 417.889 1040.76 417.616C1040.98 417.341 1041.14 417.082 1041.25 416.841C1041.35 416.597 1041.41 416.341 1041.41 416.074C1041.41 415.767 1041.33 415.501 1041.19 415.277C1041.04 415.053 1040.84 414.879 1040.59 414.757C1040.34 414.635 1040.05 414.574 1039.74 414.574C1039.4 414.574 1039.11 414.643 1038.86 414.783C1038.61 414.919 1038.42 415.111 1038.28 415.358C1038.15 415.605 1038.08 415.895 1038.08 416.227H1037.08C1037.08 415.716 1037.2 415.267 1037.43 414.881C1037.67 414.494 1037.99 414.193 1038.39 413.977C1038.8 413.761 1039.26 413.653 1039.77 413.653C1040.28 413.653 1040.74 413.761 1041.13 413.977C1041.53 414.193 1041.84 414.484 1042.06 414.851C1042.28 415.217 1042.4 415.625 1042.4 416.074C1042.4 416.395 1042.34 416.709 1042.22 417.016C1042.11 417.32 1041.91 417.659 1041.62 418.034C1041.34 418.406 1040.95 418.861 1040.45 419.398L1038.49 421.494V421.562H1042.55V422.5H1037.04ZM1044.33 424.955V415.955H1045.3V416.994H1045.42C1045.49 416.881 1045.59 416.736 1045.72 416.56C1045.86 416.381 1046.05 416.222 1046.3 416.082C1046.55 415.94 1046.88 415.869 1047.31 415.869C1047.86 415.869 1048.35 416.007 1048.77 416.283C1049.19 416.558 1049.52 416.949 1049.75 417.455C1049.99 417.96 1050.11 418.557 1050.11 419.244C1050.11 419.938 1049.99 420.538 1049.75 421.047C1049.52 421.553 1049.19 421.945 1048.77 422.223C1048.35 422.499 1047.87 422.636 1047.33 422.636C1046.91 422.636 1046.57 422.567 1046.32 422.428C1046.06 422.286 1045.87 422.125 1045.73 421.946C1045.6 421.764 1045.49 421.614 1045.42 421.494H1045.33V424.955H1044.33ZM1045.32 419.227C1045.32 419.722 1045.39 420.158 1045.53 420.536C1045.68 420.911 1045.89 421.205 1046.17 421.418C1046.45 421.628 1046.79 421.733 1047.19 421.733C1047.61 421.733 1047.96 421.622 1048.24 421.401C1048.53 421.176 1048.74 420.875 1048.88 420.497C1049.03 420.116 1049.1 419.693 1049.1 419.227C1049.1 418.767 1049.03 418.352 1048.89 417.983C1048.75 417.611 1048.54 417.317 1048.25 417.101C1047.97 416.882 1047.62 416.773 1047.19 416.773C1046.78 416.773 1046.44 416.876 1046.16 417.084C1045.88 417.288 1045.67 417.575 1045.53 417.945C1045.39 418.311 1045.32 418.739 1045.32 419.227ZM1052.12 415.955L1053.69 418.631L1055.26 415.955H1056.42L1054.3 419.227L1056.42 422.5H1055.26L1053.69 419.96L1052.12 422.5H1050.96L1053.04 419.227L1050.96 415.955H1052.12Z" fill="black"/>
<rect x="1004.5" y="378" width="334.5" height="80" stroke="#DFDFE2"/>
<rect x="25" y="482" width="40" height="40" stroke="black"/>
<rect x="1" y="458" width="669" height="88" stroke="#DFDFE2"/>
<path d="M697.631 506.619C697.131 506.619 696.68 506.52 696.28 506.321C695.879 506.122 695.558 505.849 695.317 505.503C695.075 505.156 694.943 504.761 694.92 504.318H695.943C695.983 504.713 696.162 505.04 696.48 505.298C696.801 505.554 697.185 505.682 697.631 505.682C697.989 505.682 698.307 505.598 698.585 505.43C698.866 505.263 699.087 505.033 699.246 504.74C699.408 504.445 699.489 504.111 699.489 503.739C699.489 503.358 699.405 503.018 699.237 502.72C699.072 502.419 698.845 502.182 698.555 502.009C698.266 501.835 697.935 501.747 697.562 501.744C697.295 501.741 697.021 501.783 696.74 501.868C696.459 501.95 696.227 502.057 696.045 502.188L695.057 502.068L695.585 497.773H700.119V498.71H696.472L696.165 501.284H696.216C696.395 501.142 696.619 501.024 696.889 500.93C697.159 500.837 697.44 500.79 697.733 500.79C698.267 500.79 698.743 500.918 699.161 501.173C699.581 501.426 699.911 501.773 700.149 502.213C700.391 502.653 700.511 503.156 700.511 503.722C700.511 504.278 700.386 504.776 700.136 505.213C699.889 505.648 699.548 505.991 699.114 506.244C698.679 506.494 698.185 506.619 697.631 506.619Z" fill="black"/>
<rect x="670" y="458" width="334.5" height="88" stroke="#DFDFE2"/>
<path d="M1029.2 504.71V503.841L1033.03 497.773H1033.66V499.119H1033.24L1030.34 503.705V503.773H1035.51V504.71H1029.2ZM1033.31 506.5V504.446V504.041V497.773H1034.31V506.5H1033.31ZM1039.95 506.619C1039.31 506.619 1038.76 506.445 1038.31 506.095C1037.86 505.743 1037.51 505.233 1037.27 504.565C1037.03 503.895 1036.92 503.085 1036.92 502.136C1036.92 501.193 1037.03 500.388 1037.27 499.72C1037.51 499.05 1037.86 498.538 1038.31 498.186C1038.77 497.831 1039.31 497.653 1039.95 497.653C1040.59 497.653 1041.13 497.831 1041.58 498.186C1042.04 498.538 1042.38 499.05 1042.62 499.72C1042.86 500.388 1042.98 501.193 1042.98 502.136C1042.98 503.085 1042.86 503.895 1042.63 504.565C1042.39 505.233 1042.04 505.743 1041.59 506.095C1041.14 506.445 1040.59 506.619 1039.95 506.619ZM1039.95 505.682C1040.59 505.682 1041.08 505.375 1041.43 504.761C1041.78 504.148 1041.96 503.273 1041.96 502.136C1041.96 501.381 1041.88 500.737 1041.72 500.206C1041.56 499.675 1041.33 499.27 1041.03 498.991C1040.73 498.713 1040.37 498.574 1039.95 498.574C1039.32 498.574 1038.83 498.885 1038.47 499.507C1038.12 500.126 1037.94 501.003 1037.94 502.136C1037.94 502.892 1038.02 503.534 1038.18 504.062C1038.34 504.591 1038.56 504.993 1038.86 505.268C1039.16 505.544 1039.53 505.682 1039.95 505.682ZM1044.62 508.955V499.955H1045.59V500.994H1045.71C1045.78 500.881 1045.89 500.736 1046.02 500.56C1046.15 500.381 1046.34 500.222 1046.59 500.082C1046.84 499.94 1047.18 499.869 1047.6 499.869C1048.15 499.869 1048.64 500.007 1049.06 500.283C1049.48 500.558 1049.81 500.949 1050.04 501.455C1050.28 501.96 1050.4 502.557 1050.4 503.244C1050.4 503.938 1050.28 504.538 1050.04 505.047C1049.81 505.553 1049.48 505.945 1049.06 506.223C1048.65 506.499 1048.17 506.636 1047.62 506.636C1047.2 506.636 1046.86 506.567 1046.61 506.428C1046.36 506.286 1046.16 506.125 1046.03 505.946C1045.89 505.764 1045.78 505.614 1045.71 505.494H1045.63V508.955H1044.62ZM1045.61 503.227C1045.61 503.722 1045.68 504.158 1045.83 504.536C1045.97 504.911 1046.18 505.205 1046.46 505.418C1046.74 505.628 1047.08 505.733 1047.48 505.733C1047.9 505.733 1048.25 505.622 1048.54 505.401C1048.82 505.176 1049.03 504.875 1049.18 504.497C1049.32 504.116 1049.39 503.693 1049.39 503.227C1049.39 502.767 1049.32 502.352 1049.18 501.983C1049.04 501.611 1048.83 501.317 1048.54 501.101C1048.26 500.882 1047.91 500.773 1047.48 500.773C1047.07 500.773 1046.73 500.876 1046.45 501.084C1046.17 501.288 1045.96 501.575 1045.82 501.945C1045.68 502.311 1045.61 502.739 1045.61 503.227ZM1052.41 499.955L1053.98 502.631L1055.55 499.955H1056.71L1054.59 503.227L1056.71 506.5H1055.55L1053.98 503.96L1052.41 506.5H1051.25L1053.33 503.227L1051.25 499.955H1052.41Z" fill="black"/>
<rect x="1004.5" y="458" width="334.5" height="88" stroke="#DFDFE2"/>
<rect x="25" y="570" width="48" height="48" stroke="black"/>
<rect x="1" y="546" width="669" height="96" stroke="#DFDFE2"/>
<path d="M697.801 598.619C697.443 598.614 697.085 598.545 696.727 598.415C696.369 598.284 696.043 598.064 695.747 597.754C695.452 597.442 695.214 597.02 695.036 596.489C694.857 595.955 694.767 595.284 694.767 594.477C694.767 593.705 694.839 593.02 694.984 592.423C695.129 591.824 695.339 591.32 695.615 590.911C695.891 590.499 696.223 590.186 696.612 589.973C697.004 589.76 697.446 589.653 697.938 589.653C698.426 589.653 698.861 589.751 699.241 589.947C699.625 590.141 699.938 590.411 700.179 590.757C700.42 591.104 700.577 591.503 700.648 591.955H699.608C699.511 591.562 699.324 591.237 699.045 590.979C698.767 590.72 698.398 590.591 697.938 590.591C697.261 590.591 696.729 590.885 696.339 591.473C695.953 592.061 695.759 592.886 695.756 593.949H695.824C695.983 593.707 696.172 593.501 696.391 593.331C696.612 593.158 696.857 593.024 697.124 592.93C697.391 592.837 697.673 592.79 697.972 592.79C698.472 592.79 698.929 592.915 699.344 593.165C699.759 593.412 700.091 593.754 700.341 594.192C700.591 594.626 700.716 595.125 700.716 595.688C700.716 596.227 700.595 596.722 700.354 597.17C700.112 597.616 699.773 597.972 699.335 598.236C698.901 598.497 698.389 598.625 697.801 598.619ZM697.801 597.682C698.159 597.682 698.48 597.592 698.764 597.413C699.051 597.234 699.277 596.994 699.442 596.693C699.609 596.392 699.693 596.057 699.693 595.688C699.693 595.327 699.612 594.999 699.45 594.703C699.291 594.405 699.071 594.168 698.79 593.991C698.511 593.815 698.193 593.727 697.835 593.727C697.565 593.727 697.314 593.781 697.081 593.889C696.848 593.994 696.643 594.139 696.467 594.324C696.294 594.509 696.158 594.72 696.058 594.959C695.959 595.195 695.909 595.443 695.909 595.705C695.909 596.051 695.99 596.375 696.152 596.676C696.317 596.977 696.541 597.22 696.825 597.405C697.112 597.589 697.438 597.682 697.801 597.682Z" fill="black"/>
<rect x="670" y="546" width="334.5" height="96" stroke="#DFDFE2"/>
<path d="M1029.2 596.71V595.841L1033.03 589.773H1033.66V591.119H1033.24L1030.34 595.705V595.773H1035.51V596.71H1029.2ZM1033.31 598.5V596.446V596.041V589.773H1034.31V598.5H1033.31ZM1039.9 598.619C1039.31 598.619 1038.8 598.516 1038.35 598.308C1037.9 598.098 1037.55 597.81 1037.3 597.443C1037.05 597.074 1036.93 596.653 1036.93 596.182C1036.93 595.812 1037 595.472 1037.15 595.159C1037.3 594.844 1037.5 594.581 1037.75 594.371C1038.01 594.158 1038.3 594.023 1038.62 593.966V593.915C1038.2 593.807 1037.87 593.572 1037.62 593.212C1037.38 592.848 1037.25 592.435 1037.26 591.972C1037.25 591.528 1037.37 591.132 1037.59 590.783C1037.82 590.433 1038.13 590.158 1038.53 589.956C1038.93 589.754 1039.39 589.653 1039.9 589.653C1040.4 589.653 1040.86 589.754 1041.25 589.956C1041.65 590.158 1041.96 590.433 1042.19 590.783C1042.42 591.132 1042.54 591.528 1042.54 591.972C1042.54 592.435 1042.41 592.848 1042.16 593.212C1041.91 593.572 1041.59 593.807 1041.18 593.915V593.966C1041.49 594.023 1041.78 594.158 1042.03 594.371C1042.28 594.581 1042.48 594.844 1042.63 595.159C1042.78 595.472 1042.86 595.812 1042.86 596.182C1042.86 596.653 1042.73 597.074 1042.48 597.443C1042.23 597.81 1041.88 598.098 1041.44 598.308C1040.99 598.516 1040.48 598.619 1039.9 598.619ZM1039.9 597.682C1040.29 597.682 1040.63 597.618 1040.92 597.49C1041.21 597.362 1041.43 597.182 1041.59 596.949C1041.74 596.716 1041.82 596.443 1041.82 596.131C1041.82 595.801 1041.74 595.51 1041.57 595.257C1041.4 595.004 1041.17 594.805 1040.88 594.661C1040.6 594.516 1040.27 594.443 1039.9 594.443C1039.53 594.443 1039.19 594.516 1038.9 594.661C1038.61 594.805 1038.38 595.004 1038.21 595.257C1038.05 595.51 1037.97 595.801 1037.97 596.131C1037.97 596.443 1038.04 596.716 1038.2 596.949C1038.35 597.182 1038.58 597.362 1038.87 597.49C1039.16 597.618 1039.5 597.682 1039.9 597.682ZM1039.9 593.54C1040.21 593.54 1040.49 593.477 1040.73 593.352C1040.97 593.227 1041.17 593.053 1041.3 592.828C1041.44 592.604 1041.51 592.341 1041.52 592.04C1041.51 591.744 1041.44 591.487 1041.31 591.268C1041.17 591.047 1040.98 590.876 1040.74 590.757C1040.5 590.635 1040.22 590.574 1039.9 590.574C1039.57 590.574 1039.29 590.635 1039.04 590.757C1038.8 590.876 1038.61 591.047 1038.47 591.268C1038.34 591.487 1038.28 591.744 1038.28 592.04C1038.28 592.341 1038.34 592.604 1038.48 592.828C1038.62 593.053 1038.81 593.227 1039.05 593.352C1039.3 593.477 1039.58 593.54 1039.9 593.54ZM1045.26 591.955L1046.83 594.631L1048.4 591.955H1049.56L1047.45 595.227L1049.56 598.5H1048.4L1046.83 595.96L1045.26 598.5H1044.11L1046.18 595.227L1044.11 591.955H1045.26Z" fill="black"/>
<rect x="1004.5" y="546" width="334.5" height="96" stroke="#DFDFE2"/>
<rect x="25" y="666" width="56" height="56" stroke="black"/>
<rect x="1" y="642" width="669" height="104" stroke="#DFDFE2"/>
<path d="M695.176 698.5L699.08 690.778V690.71H694.58V689.773H700.17V690.761L696.284 698.5H695.176Z" fill="black"/>
<rect x="670" y="642" width="334.5" height="104" stroke="#DFDFE2"/>
<path d="M1032.13 698.619C1031.63 698.619 1031.18 698.52 1030.78 698.321C1030.38 698.122 1030.06 697.849 1029.82 697.503C1029.58 697.156 1029.44 696.761 1029.42 696.318H1030.44C1030.48 696.713 1030.66 697.04 1030.98 697.298C1031.3 697.554 1031.68 697.682 1032.13 697.682C1032.49 697.682 1032.81 697.598 1033.09 697.43C1033.37 697.263 1033.59 697.033 1033.75 696.74C1033.91 696.445 1033.99 696.111 1033.99 695.739C1033.99 695.358 1033.9 695.018 1033.74 694.72C1033.57 694.419 1033.35 694.182 1033.06 694.009C1032.77 693.835 1032.43 693.747 1032.06 693.744C1031.8 693.741 1031.52 693.783 1031.24 693.868C1030.96 693.95 1030.73 694.057 1030.55 694.188L1029.56 694.068L1030.09 689.773H1034.62V690.71H1030.97L1030.66 693.284H1030.72C1030.89 693.142 1031.12 693.024 1031.39 692.93C1031.66 692.837 1031.94 692.79 1032.23 692.79C1032.77 692.79 1033.24 692.918 1033.66 693.173C1034.08 693.426 1034.41 693.773 1034.65 694.213C1034.89 694.653 1035.01 695.156 1035.01 695.722C1035.01 696.278 1034.89 696.776 1034.64 697.213C1034.39 697.648 1034.05 697.991 1033.61 698.244C1033.18 698.494 1032.68 698.619 1032.13 698.619ZM1039.6 698.619C1039.24 698.614 1038.89 698.545 1038.53 698.415C1038.17 698.284 1037.84 698.064 1037.55 697.754C1037.25 697.442 1037.02 697.02 1036.84 696.489C1036.66 695.955 1036.57 695.284 1036.57 694.477C1036.57 693.705 1036.64 693.02 1036.79 692.423C1036.93 691.824 1037.14 691.32 1037.42 690.911C1037.69 690.499 1038.02 690.186 1038.41 689.973C1038.81 689.76 1039.25 689.653 1039.74 689.653C1040.23 689.653 1040.66 689.751 1041.04 689.947C1041.43 690.141 1041.74 690.411 1041.98 690.757C1042.22 691.104 1042.38 691.503 1042.45 691.955H1041.41C1041.31 691.562 1041.12 691.237 1040.85 690.979C1040.57 690.72 1040.2 690.591 1039.74 690.591C1039.06 690.591 1038.53 690.885 1038.14 691.473C1037.75 692.061 1037.56 692.886 1037.56 693.949H1037.62C1037.78 693.707 1037.97 693.501 1038.19 693.331C1038.41 693.158 1038.66 693.024 1038.92 692.93C1039.19 692.837 1039.47 692.79 1039.77 692.79C1040.27 692.79 1040.73 692.915 1041.14 693.165C1041.56 693.412 1041.89 693.754 1042.14 694.192C1042.39 694.626 1042.52 695.125 1042.52 695.688C1042.52 696.227 1042.4 696.722 1042.15 697.17C1041.91 697.616 1041.57 697.972 1041.14 698.236C1040.7 698.497 1040.19 698.625 1039.6 698.619ZM1039.6 697.682C1039.96 697.682 1040.28 697.592 1040.56 697.413C1040.85 697.234 1041.08 696.994 1041.24 696.693C1041.41 696.392 1041.49 696.057 1041.49 695.688C1041.49 695.327 1041.41 694.999 1041.25 694.703C1041.09 694.405 1040.87 694.168 1040.59 693.991C1040.31 693.815 1039.99 693.727 1039.64 693.727C1039.37 693.727 1039.11 693.781 1038.88 693.889C1038.65 693.994 1038.44 694.139 1038.27 694.324C1038.09 694.509 1037.96 694.72 1037.86 694.959C1037.76 695.195 1037.71 695.443 1037.71 695.705C1037.71 696.051 1037.79 696.375 1037.95 696.676C1038.12 696.977 1038.34 697.22 1038.63 697.405C1038.91 697.589 1039.24 697.682 1039.6 697.682ZM1044.21 700.955V691.955H1045.18V692.994H1045.3C1045.37 692.881 1045.48 692.736 1045.61 692.56C1045.74 692.381 1045.93 692.222 1046.18 692.082C1046.43 691.94 1046.77 691.869 1047.19 691.869C1047.74 691.869 1048.23 692.007 1048.65 692.283C1049.07 692.558 1049.4 692.949 1049.63 693.455C1049.87 693.96 1049.99 694.557 1049.99 695.244C1049.99 695.938 1049.87 696.538 1049.63 697.047C1049.4 697.553 1049.07 697.945 1048.65 698.223C1048.24 698.499 1047.75 698.636 1047.21 698.636C1046.79 698.636 1046.45 698.567 1046.2 698.428C1045.95 698.286 1045.75 698.125 1045.62 697.946C1045.48 697.764 1045.37 697.614 1045.3 697.494H1045.22V700.955H1044.21ZM1045.2 695.227C1045.2 695.722 1045.27 696.158 1045.42 696.536C1045.56 696.911 1045.77 697.205 1046.05 697.418C1046.33 697.628 1046.67 697.733 1047.07 697.733C1047.49 697.733 1047.84 697.622 1048.13 697.401C1048.41 697.176 1048.62 696.875 1048.76 696.497C1048.91 696.116 1048.98 695.693 1048.98 695.227C1048.98 694.767 1048.91 694.352 1048.77 693.983C1048.63 693.611 1048.42 693.317 1048.13 693.101C1047.85 692.882 1047.5 692.773 1047.07 692.773C1046.66 692.773 1046.32 692.876 1046.04 693.084C1045.76 693.288 1045.55 693.575 1045.41 693.945C1045.27 694.311 1045.2 694.739 1045.2 695.227ZM1052 691.955L1053.57 694.631L1055.14 691.955H1056.3L1054.18 695.227L1056.3 698.5H1055.14L1053.57 695.96L1052 698.5H1050.84L1052.92 695.227L1050.84 691.955H1052Z" fill="black"/>
<rect x="1004.5" y="642" width="334.5" height="104" stroke="#DFDFE2"/>
<rect x="25" y="770" width="64" height="64" stroke="black"/>
<rect x="1" y="746" width="669" height="112" stroke="#DFDFE2"/>
<path d="M697.699 806.619C697.114 806.619 696.597 806.516 696.148 806.308C695.702 806.098 695.354 805.81 695.104 805.443C694.854 805.074 694.73 804.653 694.733 804.182C694.73 803.812 694.803 803.472 694.95 803.159C695.098 802.844 695.3 802.581 695.555 802.371C695.814 802.158 696.102 802.023 696.42 801.966V801.915C696.003 801.807 695.67 801.572 695.423 801.212C695.176 800.848 695.054 800.435 695.057 799.972C695.054 799.528 695.166 799.132 695.393 798.783C695.621 798.433 695.933 798.158 696.331 797.956C696.732 797.754 697.188 797.653 697.699 797.653C698.205 797.653 698.656 797.754 699.054 797.956C699.452 798.158 699.764 798.433 699.991 798.783C700.222 799.132 700.338 799.528 700.341 799.972C700.338 800.435 700.212 800.848 699.962 801.212C699.714 801.572 699.386 801.807 698.977 801.915V801.966C699.293 802.023 699.577 802.158 699.83 802.371C700.082 802.581 700.284 802.844 700.435 803.159C700.585 803.472 700.662 803.812 700.665 804.182C700.662 804.653 700.534 805.074 700.281 805.443C700.031 805.81 699.683 806.098 699.237 806.308C698.794 806.516 698.281 806.619 697.699 806.619ZM697.699 805.682C698.094 805.682 698.435 805.618 698.722 805.49C699.009 805.362 699.23 805.182 699.386 804.949C699.543 804.716 699.622 804.443 699.625 804.131C699.622 803.801 699.537 803.51 699.369 803.257C699.202 803.004 698.973 802.805 698.683 802.661C698.396 802.516 698.068 802.443 697.699 802.443C697.327 802.443 696.994 802.516 696.702 802.661C696.412 802.805 696.183 803.004 696.016 803.257C695.851 803.51 695.77 803.801 695.773 804.131C695.77 804.443 695.845 804.716 695.999 804.949C696.155 805.182 696.378 805.362 696.668 805.49C696.957 805.618 697.301 805.682 697.699 805.682ZM697.699 801.54C698.011 801.54 698.288 801.477 698.53 801.352C698.774 801.227 698.966 801.053 699.105 800.828C699.244 800.604 699.315 800.341 699.318 800.04C699.315 799.744 699.246 799.487 699.109 799.268C698.973 799.047 698.784 798.876 698.543 798.757C698.301 798.635 698.02 798.574 697.699 798.574C697.372 798.574 697.087 798.635 696.842 798.757C696.598 798.876 696.409 799.047 696.276 799.268C696.142 799.487 696.077 799.744 696.08 800.04C696.077 800.341 696.143 800.604 696.28 800.828C696.419 801.053 696.611 801.227 696.855 801.352C697.099 801.477 697.381 801.54 697.699 801.54Z" fill="black"/>
<rect x="670" y="746" width="334.5" height="112" stroke="#DFDFE2"/>
<path d="M1032.3 806.619C1031.94 806.614 1031.59 806.545 1031.23 806.415C1030.87 806.284 1030.54 806.064 1030.25 805.754C1029.95 805.442 1029.71 805.02 1029.54 804.489C1029.36 803.955 1029.27 803.284 1029.27 802.477C1029.27 801.705 1029.34 801.02 1029.48 800.423C1029.63 799.824 1029.84 799.32 1030.12 798.911C1030.39 798.499 1030.72 798.186 1031.11 797.973C1031.5 797.76 1031.95 797.653 1032.44 797.653C1032.93 797.653 1033.36 797.751 1033.74 797.947C1034.13 798.141 1034.44 798.411 1034.68 798.757C1034.92 799.104 1035.08 799.503 1035.15 799.955H1034.11C1034.01 799.562 1033.82 799.237 1033.55 798.979C1033.27 798.72 1032.9 798.591 1032.44 798.591C1031.76 798.591 1031.23 798.885 1030.84 799.473C1030.45 800.061 1030.26 800.886 1030.26 801.949H1030.32C1030.48 801.707 1030.67 801.501 1030.89 801.331C1031.11 801.158 1031.36 801.024 1031.62 800.93C1031.89 800.837 1032.17 800.79 1032.47 800.79C1032.97 800.79 1033.43 800.915 1033.84 801.165C1034.26 801.412 1034.59 801.754 1034.84 802.192C1035.09 802.626 1035.22 803.125 1035.22 803.688C1035.22 804.227 1035.1 804.722 1034.85 805.17C1034.61 805.616 1034.27 805.972 1033.84 806.236C1033.4 806.497 1032.89 806.625 1032.3 806.619ZM1032.3 805.682C1032.66 805.682 1032.98 805.592 1033.26 805.413C1033.55 805.234 1033.78 804.994 1033.94 804.693C1034.11 804.392 1034.19 804.057 1034.19 803.688C1034.19 803.327 1034.11 802.999 1033.95 802.703C1033.79 802.405 1033.57 802.168 1033.29 801.991C1033.01 801.815 1032.69 801.727 1032.34 801.727C1032.07 801.727 1031.81 801.781 1031.58 801.889C1031.35 801.994 1031.14 802.139 1030.97 802.324C1030.79 802.509 1030.66 802.72 1030.56 802.959C1030.46 803.195 1030.41 803.443 1030.41 803.705C1030.41 804.051 1030.49 804.375 1030.65 804.676C1030.82 804.977 1031.04 805.22 1031.33 805.405C1031.61 805.589 1031.94 805.682 1032.3 805.682ZM1036.69 804.71V803.841L1040.52 797.773H1041.15V799.119H1040.73L1037.83 803.705V803.773H1042.99V804.71H1036.69ZM1040.8 806.5V804.446V804.041V797.773H1041.8V806.5H1040.8ZM1044.61 808.955V799.955H1045.58V800.994H1045.7C1045.77 800.881 1045.88 800.736 1046.01 800.56C1046.14 800.381 1046.33 800.222 1046.58 800.082C1046.83 799.94 1047.16 799.869 1047.59 799.869C1048.14 799.869 1048.63 800.007 1049.05 800.283C1049.47 800.558 1049.8 800.949 1050.03 801.455C1050.27 801.96 1050.39 802.557 1050.39 803.244C1050.39 803.938 1050.27 804.538 1050.03 805.047C1049.8 805.553 1049.47 805.945 1049.05 806.223C1048.63 806.499 1048.15 806.636 1047.61 806.636C1047.19 806.636 1046.85 806.567 1046.6 806.428C1046.35 806.286 1046.15 806.125 1046.01 805.946C1045.88 805.764 1045.77 805.614 1045.7 805.494H1045.61V808.955H1044.61ZM1045.6 803.227C1045.6 803.722 1045.67 804.158 1045.81 804.536C1045.96 804.911 1046.17 805.205 1046.45 805.418C1046.73 805.628 1047.07 805.733 1047.47 805.733C1047.89 805.733 1048.24 805.622 1048.52 805.401C1048.81 805.176 1049.02 804.875 1049.16 804.497C1049.31 804.116 1049.38 803.693 1049.38 803.227C1049.38 802.767 1049.31 802.352 1049.17 801.983C1049.03 801.611 1048.82 801.317 1048.53 801.101C1048.25 800.882 1047.9 800.773 1047.47 800.773C1047.06 800.773 1046.72 800.876 1046.44 801.084C1046.16 801.288 1045.95 801.575 1045.81 801.945C1045.67 802.311 1045.6 802.739 1045.6 803.227ZM1052.4 799.955L1053.97 802.631L1055.54 799.955H1056.7L1054.58 803.227L1056.7 806.5H1055.54L1053.97 803.96L1052.4 806.5H1051.24L1053.32 803.227L1051.24 799.955H1052.4Z" fill="black"/>
<rect x="1004.5" y="746" width="334.5" height="112" stroke="#DFDFE2"/>
<rect x="25" y="882" width="72" height="72" stroke="black"/>
<rect x="1" y="858" width="669" height="120" stroke="#DFDFE2"/>
<path d="M697.682 913.653C698.04 913.656 698.398 913.724 698.756 913.858C699.114 913.991 699.44 914.213 699.736 914.523C700.031 914.83 700.268 915.249 700.447 915.78C700.626 916.311 700.716 916.977 700.716 917.778C700.716 918.554 700.642 919.243 700.494 919.845C700.349 920.445 700.139 920.95 699.864 921.362C699.591 921.774 699.259 922.087 698.866 922.3C698.477 922.513 698.037 922.619 697.545 922.619C697.057 922.619 696.621 922.523 696.237 922.33C695.857 922.134 695.544 921.862 695.3 921.516C695.058 921.166 694.903 920.761 694.835 920.301H695.875C695.969 920.702 696.155 921.033 696.433 921.294C696.714 921.553 697.085 921.682 697.545 921.682C698.219 921.682 698.75 921.388 699.139 920.8C699.531 920.212 699.727 919.381 699.727 918.307H699.659C699.5 918.545 699.311 918.751 699.092 918.925C698.874 919.098 698.631 919.232 698.364 919.325C698.097 919.419 697.813 919.466 697.511 919.466C697.011 919.466 696.553 919.342 696.135 919.095C695.72 918.845 695.388 918.503 695.138 918.068C694.891 917.631 694.767 917.131 694.767 916.568C694.767 916.034 694.886 915.545 695.125 915.102C695.366 914.656 695.705 914.301 696.139 914.037C696.577 913.773 697.091 913.645 697.682 913.653ZM697.682 914.591C697.324 914.591 697.001 914.68 696.714 914.859C696.43 915.036 696.205 915.274 696.037 915.575C695.872 915.874 695.79 916.205 695.79 916.568C695.79 916.932 695.869 917.263 696.028 917.561C696.19 917.857 696.411 918.092 696.689 918.268C696.97 918.442 697.29 918.528 697.648 918.528C697.918 918.528 698.169 918.476 698.402 918.371C698.635 918.263 698.838 918.116 699.011 917.932C699.188 917.744 699.325 917.533 699.425 917.297C699.524 917.058 699.574 916.81 699.574 916.551C699.574 916.21 699.491 915.891 699.327 915.592C699.165 915.294 698.94 915.053 698.653 914.868C698.369 914.683 698.045 914.591 697.682 914.591Z" fill="black"/>
<rect x="670" y="858" width="334.5" height="120" stroke="#DFDFE2"/>
<path d="M1029.68 922.5L1033.58 914.778V914.71H1029.08V913.773H1034.67V914.761L1030.78 922.5H1029.68ZM1036.26 922.5V921.733L1039.14 918.58C1039.48 918.21 1039.76 917.889 1039.97 917.616C1040.19 917.341 1040.36 917.082 1040.46 916.841C1040.57 916.597 1040.62 916.341 1040.62 916.074C1040.62 915.767 1040.55 915.501 1040.4 915.277C1040.26 915.053 1040.06 914.879 1039.8 914.757C1039.55 914.635 1039.27 914.574 1038.95 914.574C1038.62 914.574 1038.32 914.643 1038.07 914.783C1037.83 914.919 1037.64 915.111 1037.5 915.358C1037.37 915.605 1037.3 915.895 1037.3 916.227H1036.29C1036.29 915.716 1036.41 915.267 1036.65 914.881C1036.88 914.494 1037.2 914.193 1037.61 913.977C1038.02 913.761 1038.48 913.653 1038.99 913.653C1039.5 913.653 1039.95 913.761 1040.35 913.977C1040.74 914.193 1041.05 914.484 1041.27 914.851C1041.5 915.217 1041.61 915.625 1041.61 916.074C1041.61 916.395 1041.55 916.709 1041.44 917.016C1041.32 917.32 1041.12 917.659 1040.84 918.034C1040.56 918.406 1040.17 918.861 1039.67 919.398L1037.71 921.494V921.562H1041.76V922.5H1036.26ZM1043.54 924.955V915.955H1044.51V916.994H1044.63C1044.71 916.881 1044.81 916.736 1044.94 916.56C1045.07 916.381 1045.26 916.222 1045.51 916.082C1045.76 915.94 1046.1 915.869 1046.52 915.869C1047.08 915.869 1047.56 916.007 1047.98 916.283C1048.4 916.558 1048.73 916.949 1048.97 917.455C1049.2 917.96 1049.32 918.557 1049.32 919.244C1049.32 919.938 1049.2 920.538 1048.97 921.047C1048.73 921.553 1048.4 921.945 1047.99 922.223C1047.57 922.499 1047.09 922.636 1046.54 922.636C1046.12 922.636 1045.78 922.567 1045.53 922.428C1045.28 922.286 1045.08 922.125 1044.95 921.946C1044.81 921.764 1044.71 921.614 1044.63 921.494H1044.55V924.955H1043.54ZM1044.53 919.227C1044.53 919.722 1044.6 920.158 1044.75 920.536C1044.89 920.911 1045.1 921.205 1045.38 921.418C1045.66 921.628 1046 921.733 1046.41 921.733C1046.83 921.733 1047.18 921.622 1047.46 921.401C1047.74 921.176 1047.95 920.875 1048.1 920.497C1048.24 920.116 1048.31 919.693 1048.31 919.227C1048.31 918.767 1048.24 918.352 1048.1 917.983C1047.96 917.611 1047.75 917.317 1047.47 917.101C1047.19 916.882 1046.83 916.773 1046.41 916.773C1046 916.773 1045.65 916.876 1045.37 917.084C1045.1 917.288 1044.89 917.575 1044.74 917.945C1044.6 918.311 1044.53 918.739 1044.53 919.227ZM1051.33 915.955L1052.9 918.631L1054.47 915.955H1055.63L1053.52 919.227L1055.63 922.5H1054.47L1052.9 919.96L1051.33 922.5H1050.18L1052.25 919.227L1050.18 915.955H1051.33Z" fill="black"/>
<rect x="1004.5" y="858" width="334.5" height="120" stroke="#DFDFE2"/>
<rect x="25" y="1002" width="80" height="80" stroke="black"/>
<rect x="1" y="978" width="669" height="128" stroke="#DFDFE2"/>
<path d="M697.972 1037.77V1046.5H696.915V1038.88H696.864L694.733 1040.3V1039.22L696.915 1037.77H697.972ZM703.328 1046.62C702.686 1046.62 702.139 1046.44 701.688 1046.1C701.236 1045.74 700.891 1045.23 700.652 1044.57C700.413 1043.89 700.294 1043.09 700.294 1042.14C700.294 1041.19 700.413 1040.39 700.652 1039.72C700.893 1039.05 701.24 1038.54 701.692 1038.19C702.146 1037.83 702.692 1037.65 703.328 1037.65C703.964 1037.65 704.509 1037.83 704.96 1038.19C705.415 1038.54 705.761 1039.05 706 1039.72C706.241 1040.39 706.362 1041.19 706.362 1042.14C706.362 1043.09 706.243 1043.89 706.004 1044.57C705.766 1045.23 705.42 1045.74 704.969 1046.1C704.517 1046.44 703.97 1046.62 703.328 1046.62ZM703.328 1045.68C703.964 1045.68 704.459 1045.37 704.811 1044.76C705.163 1044.15 705.339 1043.27 705.339 1042.14C705.339 1041.38 705.259 1040.74 705.097 1040.21C704.938 1039.67 704.707 1039.27 704.406 1038.99C704.108 1038.71 703.749 1038.57 703.328 1038.57C702.697 1038.57 702.205 1038.88 701.849 1039.51C701.494 1040.13 701.317 1041 701.317 1042.14C701.317 1042.89 701.396 1043.53 701.555 1044.06C701.714 1044.59 701.943 1044.99 702.241 1045.27C702.543 1045.54 702.905 1045.68 703.328 1045.68Z" fill="black"/>
<rect x="670" y="978" width="334.5" height="128" stroke="#DFDFE2"/>
<path d="M1032.2 1046.62C1031.61 1046.62 1031.1 1046.52 1030.65 1046.31C1030.2 1046.1 1029.85 1045.81 1029.6 1045.44C1029.35 1045.07 1029.23 1044.65 1029.23 1044.18C1029.23 1043.81 1029.3 1043.47 1029.45 1043.16C1029.6 1042.84 1029.8 1042.58 1030.06 1042.37C1030.31 1042.16 1030.6 1042.02 1030.92 1041.97V1041.91C1030.5 1041.81 1030.17 1041.57 1029.92 1041.21C1029.68 1040.85 1029.55 1040.43 1029.56 1039.97C1029.55 1039.53 1029.67 1039.13 1029.89 1038.78C1030.12 1038.43 1030.43 1038.16 1030.83 1037.96C1031.23 1037.75 1031.69 1037.65 1032.2 1037.65C1032.7 1037.65 1033.16 1037.75 1033.55 1037.96C1033.95 1038.16 1034.26 1038.43 1034.49 1038.78C1034.72 1039.13 1034.84 1039.53 1034.84 1039.97C1034.84 1040.43 1034.71 1040.85 1034.46 1041.21C1034.21 1041.57 1033.89 1041.81 1033.48 1041.91V1041.97C1033.79 1042.02 1034.08 1042.16 1034.33 1042.37C1034.58 1042.58 1034.78 1042.84 1034.93 1043.16C1035.09 1043.47 1035.16 1043.81 1035.16 1044.18C1035.16 1044.65 1035.03 1045.07 1034.78 1045.44C1034.53 1045.81 1034.18 1046.1 1033.74 1046.31C1033.29 1046.52 1032.78 1046.62 1032.2 1046.62ZM1032.2 1045.68C1032.59 1045.68 1032.93 1045.62 1033.22 1045.49C1033.51 1045.36 1033.73 1045.18 1033.89 1044.95C1034.04 1044.72 1034.12 1044.44 1034.12 1044.13C1034.12 1043.8 1034.04 1043.51 1033.87 1043.26C1033.7 1043 1033.47 1042.81 1033.18 1042.66C1032.9 1042.52 1032.57 1042.44 1032.2 1042.44C1031.83 1042.44 1031.49 1042.52 1031.2 1042.66C1030.91 1042.81 1030.68 1043 1030.52 1043.26C1030.35 1043.51 1030.27 1043.8 1030.27 1044.13C1030.27 1044.44 1030.35 1044.72 1030.5 1044.95C1030.65 1045.18 1030.88 1045.36 1031.17 1045.49C1031.46 1045.62 1031.8 1045.68 1032.2 1045.68ZM1032.2 1041.54C1032.51 1041.54 1032.79 1041.48 1033.03 1041.35C1033.27 1041.23 1033.47 1041.05 1033.61 1040.83C1033.74 1040.6 1033.82 1040.34 1033.82 1040.04C1033.82 1039.74 1033.75 1039.49 1033.61 1039.27C1033.47 1039.05 1033.28 1038.88 1033.04 1038.76C1032.8 1038.63 1032.52 1038.57 1032.2 1038.57C1031.87 1038.57 1031.59 1038.63 1031.34 1038.76C1031.1 1038.88 1030.91 1039.05 1030.78 1039.27C1030.64 1039.49 1030.58 1039.74 1030.58 1040.04C1030.58 1040.34 1030.64 1040.6 1030.78 1040.83C1030.92 1041.05 1031.11 1041.23 1031.36 1041.35C1031.6 1041.48 1031.88 1041.54 1032.2 1041.54ZM1039.64 1046.62C1039 1046.62 1038.46 1046.44 1038 1046.1C1037.55 1045.74 1037.21 1045.23 1036.97 1044.57C1036.73 1043.89 1036.61 1043.09 1036.61 1042.14C1036.61 1041.19 1036.73 1040.39 1036.97 1039.72C1037.21 1039.05 1037.56 1038.54 1038.01 1038.19C1038.46 1037.83 1039.01 1037.65 1039.64 1037.65C1040.28 1037.65 1040.82 1037.83 1041.28 1038.19C1041.73 1038.54 1042.08 1039.05 1042.32 1039.72C1042.56 1040.39 1042.68 1041.19 1042.68 1042.14C1042.68 1043.09 1042.56 1043.89 1042.32 1044.57C1042.08 1045.23 1041.74 1045.74 1041.29 1046.1C1040.83 1046.44 1040.29 1046.62 1039.64 1046.62ZM1039.64 1045.68C1040.28 1045.68 1040.78 1045.37 1041.13 1044.76C1041.48 1044.15 1041.66 1043.27 1041.66 1042.14C1041.66 1041.38 1041.57 1040.74 1041.41 1040.21C1041.25 1039.67 1041.02 1039.27 1040.72 1038.99C1040.42 1038.71 1040.06 1038.57 1039.64 1038.57C1039.01 1038.57 1038.52 1038.88 1038.17 1039.51C1037.81 1040.13 1037.63 1041 1037.63 1042.14C1037.63 1042.89 1037.71 1043.53 1037.87 1044.06C1038.03 1044.59 1038.26 1044.99 1038.56 1045.27C1038.86 1045.54 1039.22 1045.68 1039.64 1045.68ZM1044.31 1048.95V1039.95H1045.29V1040.99H1045.41C1045.48 1040.88 1045.58 1040.74 1045.71 1040.56C1045.85 1040.38 1046.04 1040.22 1046.28 1040.08C1046.53 1039.94 1046.87 1039.87 1047.3 1039.87C1047.85 1039.87 1048.33 1040.01 1048.76 1040.28C1049.18 1040.56 1049.5 1040.95 1049.74 1041.45C1049.98 1041.96 1050.09 1042.56 1050.09 1043.24C1050.09 1043.94 1049.98 1044.54 1049.74 1045.05C1049.5 1045.55 1049.18 1045.94 1048.76 1046.22C1048.34 1046.5 1047.86 1046.64 1047.31 1046.64C1046.89 1046.64 1046.56 1046.57 1046.31 1046.43C1046.05 1046.29 1045.86 1046.12 1045.72 1045.95C1045.58 1045.76 1045.48 1045.61 1045.41 1045.49H1045.32V1048.95H1044.31ZM1045.3 1043.23C1045.3 1043.72 1045.38 1044.16 1045.52 1044.54C1045.67 1044.91 1045.88 1045.2 1046.16 1045.42C1046.43 1045.63 1046.78 1045.73 1047.18 1045.73C1047.6 1045.73 1047.95 1045.62 1048.23 1045.4C1048.52 1045.18 1048.73 1044.87 1048.87 1044.5C1049.02 1044.12 1049.09 1043.69 1049.09 1043.23C1049.09 1042.77 1049.02 1042.35 1048.87 1041.98C1048.74 1041.61 1048.52 1041.32 1048.24 1041.1C1047.96 1040.88 1047.6 1040.77 1047.18 1040.77C1046.77 1040.77 1046.43 1040.88 1046.15 1041.08C1045.87 1041.29 1045.66 1041.58 1045.52 1041.94C1045.37 1042.31 1045.3 1042.74 1045.3 1043.23ZM1052.11 1039.95L1053.68 1042.63L1055.24 1039.95H1056.4L1054.29 1043.23L1056.4 1046.5H1055.24L1053.68 1043.96L1052.11 1046.5H1050.95L1053.03 1043.23L1050.95 1039.95H1052.11Z" fill="black"/>
<rect x="1004.5" y="978" width="334.5" height="128" stroke="#DFDFE2"/>
<rect x="25" y="1130" width="88" height="88" stroke="black"/>
<rect x="1" y="1106" width="669" height="136" stroke="#DFDFE2"/>
<path d="M697.972 1169.77V1178.5H696.915V1170.88H696.864L694.733 1172.3V1171.22L696.915 1169.77H697.972ZM703.55 1169.77V1178.5H702.493V1170.88H702.442L700.311 1172.3V1171.22L702.493 1169.77H703.55Z" fill="black"/>
<rect x="670" y="1106" width="334.5" height="136" stroke="#DFDFE2"/>
<path d="M1032.2 1178.62C1031.61 1178.62 1031.1 1178.52 1030.65 1178.31C1030.2 1178.1 1029.85 1177.81 1029.6 1177.44C1029.35 1177.07 1029.23 1176.65 1029.23 1176.18C1029.23 1175.81 1029.3 1175.47 1029.45 1175.16C1029.6 1174.84 1029.8 1174.58 1030.06 1174.37C1030.31 1174.16 1030.6 1174.02 1030.92 1173.97V1173.91C1030.5 1173.81 1030.17 1173.57 1029.92 1173.21C1029.68 1172.85 1029.55 1172.43 1029.56 1171.97C1029.55 1171.53 1029.67 1171.13 1029.89 1170.78C1030.12 1170.43 1030.43 1170.16 1030.83 1169.96C1031.23 1169.75 1031.69 1169.65 1032.2 1169.65C1032.7 1169.65 1033.16 1169.75 1033.55 1169.96C1033.95 1170.16 1034.26 1170.43 1034.49 1170.78C1034.72 1171.13 1034.84 1171.53 1034.84 1171.97C1034.84 1172.43 1034.71 1172.85 1034.46 1173.21C1034.21 1173.57 1033.89 1173.81 1033.48 1173.91V1173.97C1033.79 1174.02 1034.08 1174.16 1034.33 1174.37C1034.58 1174.58 1034.78 1174.84 1034.93 1175.16C1035.09 1175.47 1035.16 1175.81 1035.16 1176.18C1035.16 1176.65 1035.03 1177.07 1034.78 1177.44C1034.53 1177.81 1034.18 1178.1 1033.74 1178.31C1033.29 1178.52 1032.78 1178.62 1032.2 1178.62ZM1032.2 1177.68C1032.59 1177.68 1032.93 1177.62 1033.22 1177.49C1033.51 1177.36 1033.73 1177.18 1033.89 1176.95C1034.04 1176.72 1034.12 1176.44 1034.12 1176.13C1034.12 1175.8 1034.04 1175.51 1033.87 1175.26C1033.7 1175 1033.47 1174.81 1033.18 1174.66C1032.9 1174.52 1032.57 1174.44 1032.2 1174.44C1031.83 1174.44 1031.49 1174.52 1031.2 1174.66C1030.91 1174.81 1030.68 1175 1030.52 1175.26C1030.35 1175.51 1030.27 1175.8 1030.27 1176.13C1030.27 1176.44 1030.35 1176.72 1030.5 1176.95C1030.65 1177.18 1030.88 1177.36 1031.17 1177.49C1031.46 1177.62 1031.8 1177.68 1032.2 1177.68ZM1032.2 1173.54C1032.51 1173.54 1032.79 1173.48 1033.03 1173.35C1033.27 1173.23 1033.47 1173.05 1033.61 1172.83C1033.74 1172.6 1033.82 1172.34 1033.82 1172.04C1033.82 1171.74 1033.75 1171.49 1033.61 1171.27C1033.47 1171.05 1033.28 1170.88 1033.04 1170.76C1032.8 1170.63 1032.52 1170.57 1032.2 1170.57C1031.87 1170.57 1031.59 1170.63 1031.34 1170.76C1031.1 1170.88 1030.91 1171.05 1030.78 1171.27C1030.64 1171.49 1030.58 1171.74 1030.58 1172.04C1030.58 1172.34 1030.64 1172.6 1030.78 1172.83C1030.92 1173.05 1031.11 1173.23 1031.36 1173.35C1031.6 1173.48 1031.88 1173.54 1032.2 1173.54ZM1039.59 1178.62C1039.01 1178.62 1038.49 1178.52 1038.04 1178.31C1037.6 1178.1 1037.25 1177.81 1037 1177.44C1036.75 1177.07 1036.62 1176.65 1036.63 1176.18C1036.62 1175.81 1036.7 1175.47 1036.84 1175.16C1036.99 1174.84 1037.19 1174.58 1037.45 1174.37C1037.71 1174.16 1038 1174.02 1038.31 1173.97V1173.91C1037.9 1173.81 1037.56 1173.57 1037.32 1173.21C1037.07 1172.85 1036.95 1172.43 1036.95 1171.97C1036.95 1171.53 1037.06 1171.13 1037.29 1170.78C1037.52 1170.43 1037.83 1170.16 1038.23 1169.96C1038.63 1169.75 1039.08 1169.65 1039.59 1169.65C1040.1 1169.65 1040.55 1169.75 1040.95 1169.96C1041.35 1170.16 1041.66 1170.43 1041.89 1170.78C1042.12 1171.13 1042.23 1171.53 1042.24 1171.97C1042.23 1172.43 1042.11 1172.85 1041.86 1173.21C1041.61 1173.57 1041.28 1173.81 1040.87 1173.91V1173.97C1041.19 1174.02 1041.47 1174.16 1041.72 1174.37C1041.98 1174.58 1042.18 1174.84 1042.33 1175.16C1042.48 1175.47 1042.56 1175.81 1042.56 1176.18C1042.56 1176.65 1042.43 1177.07 1042.18 1177.44C1041.93 1177.81 1041.58 1178.1 1041.13 1178.31C1040.69 1178.52 1040.18 1178.62 1039.59 1178.62ZM1039.59 1177.68C1039.99 1177.68 1040.33 1177.62 1040.62 1177.49C1040.9 1177.36 1041.12 1177.18 1041.28 1176.95C1041.44 1176.72 1041.52 1176.44 1041.52 1176.13C1041.52 1175.8 1041.43 1175.51 1041.26 1175.26C1041.1 1175 1040.87 1174.81 1040.58 1174.66C1040.29 1174.52 1039.96 1174.44 1039.59 1174.44C1039.22 1174.44 1038.89 1174.52 1038.6 1174.66C1038.31 1174.81 1038.08 1175 1037.91 1175.26C1037.75 1175.51 1037.66 1175.8 1037.67 1176.13C1037.66 1176.44 1037.74 1176.72 1037.89 1176.95C1038.05 1177.18 1038.27 1177.36 1038.56 1177.49C1038.85 1177.62 1039.2 1177.68 1039.59 1177.68ZM1039.59 1173.54C1039.91 1173.54 1040.18 1173.48 1040.42 1173.35C1040.67 1173.23 1040.86 1173.05 1041 1172.83C1041.14 1172.6 1041.21 1172.34 1041.21 1172.04C1041.21 1171.74 1041.14 1171.49 1041 1171.27C1040.87 1171.05 1040.68 1170.88 1040.44 1170.76C1040.2 1170.63 1039.91 1170.57 1039.59 1170.57C1039.27 1170.57 1038.98 1170.63 1038.74 1170.76C1038.49 1170.88 1038.3 1171.05 1038.17 1171.27C1038.04 1171.49 1037.97 1171.74 1037.97 1172.04C1037.97 1172.34 1038.04 1172.6 1038.17 1172.83C1038.31 1173.05 1038.51 1173.23 1038.75 1173.35C1038.99 1173.48 1039.28 1173.54 1039.59 1173.54ZM1044.21 1180.95V1171.95H1045.18V1172.99H1045.3C1045.37 1172.88 1045.48 1172.74 1045.61 1172.56C1045.74 1172.38 1045.93 1172.22 1046.18 1172.08C1046.43 1171.94 1046.77 1171.87 1047.19 1171.87C1047.74 1171.87 1048.23 1172.01 1048.65 1172.28C1049.07 1172.56 1049.4 1172.95 1049.63 1173.45C1049.87 1173.96 1049.99 1174.56 1049.99 1175.24C1049.99 1175.94 1049.87 1176.54 1049.63 1177.05C1049.4 1177.55 1049.07 1177.94 1048.65 1178.22C1048.24 1178.5 1047.75 1178.64 1047.21 1178.64C1046.79 1178.64 1046.45 1178.57 1046.2 1178.43C1045.95 1178.29 1045.75 1178.12 1045.62 1177.95C1045.48 1177.76 1045.37 1177.61 1045.3 1177.49H1045.22V1180.95H1044.21ZM1045.2 1175.23C1045.2 1175.72 1045.27 1176.16 1045.42 1176.54C1045.56 1176.91 1045.77 1177.2 1046.05 1177.42C1046.33 1177.63 1046.67 1177.73 1047.07 1177.73C1047.49 1177.73 1047.84 1177.62 1048.13 1177.4C1048.41 1177.18 1048.62 1176.87 1048.76 1176.5C1048.91 1176.12 1048.98 1175.69 1048.98 1175.23C1048.98 1174.77 1048.91 1174.35 1048.77 1173.98C1048.63 1173.61 1048.42 1173.32 1048.13 1173.1C1047.85 1172.88 1047.5 1172.77 1047.07 1172.77C1046.66 1172.77 1046.32 1172.88 1046.04 1173.08C1045.76 1173.29 1045.55 1173.58 1045.41 1173.94C1045.27 1174.31 1045.2 1174.74 1045.2 1175.23ZM1052 1171.95L1053.57 1174.63L1055.14 1171.95H1056.3L1054.18 1175.23L1056.3 1178.5H1055.14L1053.57 1175.96L1052 1178.5H1050.84L1052.92 1175.23L1050.84 1171.95H1052Z" fill="black"/>
<rect x="1004.5" y="1106" width="334.5" height="136" stroke="#DFDFE2"/>
<rect x="25" y="1266" width="96" height="96" stroke="black"/>
<rect x="1" y="1242" width="669" height="144" stroke="#DFDFE2"/>
<path d="M697.972 1309.77V1318.5H696.915V1310.88H696.864L694.733 1312.3V1311.22L696.915 1309.77H697.972ZM700.482 1318.5V1317.73L703.362 1314.58C703.7 1314.21 703.979 1313.89 704.197 1313.62C704.416 1313.34 704.578 1313.08 704.683 1312.84C704.791 1312.6 704.845 1312.34 704.845 1312.07C704.845 1311.77 704.771 1311.5 704.624 1311.28C704.479 1311.05 704.28 1310.88 704.027 1310.76C703.774 1310.63 703.49 1310.57 703.175 1310.57C702.839 1310.57 702.547 1310.64 702.297 1310.78C702.05 1310.92 701.858 1311.11 701.722 1311.36C701.588 1311.61 701.521 1311.89 701.521 1312.23H700.516C700.516 1311.72 700.634 1311.27 700.869 1310.88C701.105 1310.49 701.426 1310.19 701.832 1309.98C702.241 1309.76 702.7 1309.65 703.209 1309.65C703.72 1309.65 704.173 1309.76 704.568 1309.98C704.963 1310.19 705.273 1310.48 705.497 1310.85C705.722 1311.22 705.834 1311.62 705.834 1312.07C705.834 1312.39 705.776 1312.71 705.659 1313.02C705.545 1313.32 705.347 1313.66 705.062 1314.03C704.781 1314.41 704.391 1314.86 703.891 1315.4L701.93 1317.49V1317.56H705.987V1318.5H700.482Z" fill="black"/>
<rect x="670" y="1242" width="334.5" height="144" stroke="#DFDFE2"/>
<path d="M1032.18 1309.65C1032.54 1309.66 1032.9 1309.72 1033.26 1309.86C1033.61 1309.99 1033.94 1310.21 1034.24 1310.52C1034.53 1310.83 1034.77 1311.25 1034.95 1311.78C1035.13 1312.31 1035.22 1312.98 1035.22 1313.78C1035.22 1314.55 1035.14 1315.24 1034.99 1315.85C1034.85 1316.44 1034.64 1316.95 1034.36 1317.36C1034.09 1317.77 1033.76 1318.09 1033.37 1318.3C1032.98 1318.51 1032.54 1318.62 1032.05 1318.62C1031.56 1318.62 1031.12 1318.52 1030.74 1318.33C1030.36 1318.13 1030.04 1317.86 1029.8 1317.52C1029.56 1317.17 1029.4 1316.76 1029.34 1316.3H1030.38C1030.47 1316.7 1030.65 1317.03 1030.93 1317.29C1031.21 1317.55 1031.59 1317.68 1032.05 1317.68C1032.72 1317.68 1033.25 1317.39 1033.64 1316.8C1034.03 1316.21 1034.23 1315.38 1034.23 1314.31H1034.16C1034 1314.55 1033.81 1314.75 1033.59 1314.92C1033.37 1315.1 1033.13 1315.23 1032.86 1315.33C1032.6 1315.42 1032.31 1315.47 1032.01 1315.47C1031.51 1315.47 1031.05 1315.34 1030.63 1315.1C1030.22 1314.85 1029.89 1314.5 1029.64 1314.07C1029.39 1313.63 1029.27 1313.13 1029.27 1312.57C1029.27 1312.03 1029.39 1311.55 1029.62 1311.1C1029.87 1310.66 1030.2 1310.3 1030.64 1310.04C1031.08 1309.77 1031.59 1309.64 1032.18 1309.65ZM1032.18 1310.59C1031.82 1310.59 1031.5 1310.68 1031.21 1310.86C1030.93 1311.04 1030.7 1311.27 1030.54 1311.58C1030.37 1311.87 1030.29 1312.2 1030.29 1312.57C1030.29 1312.93 1030.37 1313.26 1030.53 1313.56C1030.69 1313.86 1030.91 1314.09 1031.19 1314.27C1031.47 1314.44 1031.79 1314.53 1032.15 1314.53C1032.42 1314.53 1032.67 1314.48 1032.9 1314.37C1033.13 1314.26 1033.34 1314.12 1033.51 1313.93C1033.69 1313.74 1033.83 1313.53 1033.92 1313.3C1034.02 1313.06 1034.07 1312.81 1034.07 1312.55C1034.07 1312.21 1033.99 1311.89 1033.83 1311.59C1033.66 1311.29 1033.44 1311.05 1033.15 1310.87C1032.87 1310.68 1032.55 1310.59 1032.18 1310.59ZM1039.79 1318.62C1039.43 1318.61 1039.07 1318.55 1038.72 1318.41C1038.36 1318.28 1038.03 1318.06 1037.74 1317.75C1037.44 1317.44 1037.2 1317.02 1037.02 1316.49C1036.84 1315.95 1036.76 1315.28 1036.76 1314.48C1036.76 1313.7 1036.83 1313.02 1036.97 1312.42C1037.12 1311.82 1037.33 1311.32 1037.6 1310.91C1037.88 1310.5 1038.21 1310.19 1038.6 1309.97C1038.99 1309.76 1039.43 1309.65 1039.93 1309.65C1040.41 1309.65 1040.85 1309.75 1041.23 1309.95C1041.61 1310.14 1041.93 1310.41 1042.17 1310.76C1042.41 1311.1 1042.56 1311.5 1042.64 1311.95H1041.6C1041.5 1311.56 1041.31 1311.24 1041.03 1310.98C1040.76 1310.72 1040.39 1310.59 1039.93 1310.59C1039.25 1310.59 1038.72 1310.88 1038.33 1311.47C1037.94 1312.06 1037.75 1312.89 1037.74 1313.95H1037.81C1037.97 1313.71 1038.16 1313.5 1038.38 1313.33C1038.6 1313.16 1038.84 1313.02 1039.11 1312.93C1039.38 1312.84 1039.66 1312.79 1039.96 1312.79C1040.46 1312.79 1040.92 1312.91 1041.33 1313.16C1041.75 1313.41 1042.08 1313.75 1042.33 1314.19C1042.58 1314.63 1042.7 1315.12 1042.7 1315.69C1042.7 1316.23 1042.58 1316.72 1042.34 1317.17C1042.1 1317.62 1041.76 1317.97 1041.32 1318.24C1040.89 1318.5 1040.38 1318.62 1039.79 1318.62ZM1039.79 1317.68C1040.15 1317.68 1040.47 1317.59 1040.75 1317.41C1041.04 1317.23 1041.27 1316.99 1041.43 1316.69C1041.6 1316.39 1041.68 1316.06 1041.68 1315.69C1041.68 1315.33 1041.6 1315 1041.44 1314.7C1041.28 1314.4 1041.06 1314.17 1040.78 1313.99C1040.5 1313.82 1040.18 1313.73 1039.82 1313.73C1039.55 1313.73 1039.3 1313.78 1039.07 1313.89C1038.84 1313.99 1038.63 1314.14 1038.46 1314.32C1038.28 1314.51 1038.15 1314.72 1038.05 1314.96C1037.95 1315.19 1037.9 1315.44 1037.9 1315.7C1037.9 1316.05 1037.98 1316.37 1038.14 1316.68C1038.31 1316.98 1038.53 1317.22 1038.81 1317.4C1039.1 1317.59 1039.43 1317.68 1039.79 1317.68ZM1044.4 1320.95V1311.95H1045.37V1312.99H1045.49C1045.56 1312.88 1045.66 1312.74 1045.79 1312.56C1045.93 1312.38 1046.12 1312.22 1046.37 1312.08C1046.62 1311.94 1046.95 1311.87 1047.38 1311.87C1047.93 1311.87 1048.42 1312.01 1048.84 1312.28C1049.26 1312.56 1049.59 1312.95 1049.82 1313.45C1050.06 1313.96 1050.18 1314.56 1050.18 1315.24C1050.18 1315.94 1050.06 1316.54 1049.82 1317.05C1049.59 1317.55 1049.26 1317.94 1048.84 1318.22C1048.42 1318.5 1047.94 1318.64 1047.4 1318.64C1046.98 1318.64 1046.64 1318.57 1046.39 1318.43C1046.13 1318.29 1045.94 1318.12 1045.8 1317.95C1045.67 1317.76 1045.56 1317.61 1045.49 1317.49H1045.4V1320.95H1044.4ZM1045.39 1315.23C1045.39 1315.72 1045.46 1316.16 1045.6 1316.54C1045.75 1316.91 1045.96 1317.2 1046.24 1317.42C1046.52 1317.63 1046.86 1317.73 1047.26 1317.73C1047.68 1317.73 1048.03 1317.62 1048.31 1317.4C1048.6 1317.18 1048.81 1316.87 1048.95 1316.5C1049.1 1316.12 1049.17 1315.69 1049.17 1315.23C1049.17 1314.77 1049.1 1314.35 1048.96 1313.98C1048.82 1313.61 1048.61 1313.32 1048.32 1313.1C1048.04 1312.88 1047.69 1312.77 1047.26 1312.77C1046.85 1312.77 1046.51 1312.88 1046.23 1313.08C1045.95 1313.29 1045.74 1313.58 1045.6 1313.94C1045.46 1314.31 1045.39 1314.74 1045.39 1315.23ZM1052.19 1311.95L1053.76 1314.63L1055.33 1311.95H1056.49L1054.37 1315.23L1056.49 1318.5H1055.33L1053.76 1315.96L1052.19 1318.5H1051.03L1053.11 1315.23L1051.03 1311.95H1052.19Z" fill="black"/>
<rect x="1004.5" y="1242" width="334.5" height="144" stroke="#DFDFE2"/>
<rect x="25" y="1410" width="104" height="104" stroke="black"/>
<rect x="1" y="1386" width="669" height="152" stroke="#DFDFE2"/>
<path d="M697.972 1457.77V1466.5H696.915V1458.88H696.864L694.733 1460.3V1459.22L696.915 1457.77H697.972ZM703.43 1466.62C702.868 1466.62 702.366 1466.52 701.926 1466.33C701.489 1466.14 701.141 1465.87 700.882 1465.52C700.626 1465.18 700.487 1464.78 700.464 1464.32H701.538C701.561 1464.6 701.658 1464.84 701.828 1465.05C701.999 1465.25 702.222 1465.4 702.497 1465.52C702.773 1465.63 703.078 1465.68 703.413 1465.68C703.788 1465.68 704.121 1465.62 704.411 1465.49C704.7 1465.36 704.928 1465.17 705.092 1464.94C705.257 1464.71 705.339 1464.44 705.339 1464.13C705.339 1463.81 705.26 1463.53 705.101 1463.28C704.942 1463.04 704.709 1462.84 704.402 1462.7C704.095 1462.56 703.72 1462.49 703.277 1462.49H702.578V1461.56H703.277C703.624 1461.56 703.928 1461.49 704.189 1461.37C704.453 1461.24 704.659 1461.07 704.807 1460.84C704.957 1460.61 705.033 1460.35 705.033 1460.04C705.033 1459.74 704.967 1459.49 704.837 1459.27C704.706 1459.05 704.521 1458.88 704.283 1458.76C704.047 1458.63 703.768 1458.57 703.447 1458.57C703.146 1458.57 702.862 1458.63 702.595 1458.74C702.331 1458.85 702.115 1459.01 701.947 1459.21C701.78 1459.42 701.689 1459.66 701.675 1459.95H700.652C700.669 1459.5 700.807 1459.1 701.065 1458.75C701.324 1458.41 701.662 1458.14 702.08 1457.94C702.5 1457.75 702.962 1457.65 703.464 1457.65C704.004 1457.65 704.467 1457.76 704.854 1457.98C705.24 1458.2 705.537 1458.48 705.744 1458.84C705.952 1459.19 706.055 1459.58 706.055 1459.99C706.055 1460.48 705.926 1460.9 705.668 1461.25C705.412 1461.59 705.064 1461.83 704.624 1461.97V1462.03C705.175 1462.12 705.605 1462.36 705.915 1462.74C706.224 1463.11 706.379 1463.58 706.379 1464.13C706.379 1464.61 706.25 1465.03 705.991 1465.41C705.736 1465.78 705.386 1466.08 704.943 1466.3C704.5 1466.51 703.996 1466.62 703.43 1466.62Z" fill="black"/>
<rect x="670" y="1386" width="334.5" height="152" stroke="#DFDFE2"/>
<path d="M1032.47 1457.77V1466.5H1031.41V1458.88H1031.36L1029.23 1460.3V1459.22L1031.41 1457.77H1032.47ZM1037.83 1466.62C1037.19 1466.62 1036.64 1466.44 1036.19 1466.1C1035.74 1465.74 1035.39 1465.23 1035.15 1464.57C1034.91 1463.89 1034.79 1463.09 1034.79 1462.14C1034.79 1461.19 1034.91 1460.39 1035.15 1459.72C1035.39 1459.05 1035.74 1458.54 1036.19 1458.19C1036.65 1457.83 1037.19 1457.65 1037.83 1457.65C1038.46 1457.65 1039.01 1457.83 1039.46 1458.19C1039.91 1458.54 1040.26 1459.05 1040.5 1459.72C1040.74 1460.39 1040.86 1461.19 1040.86 1462.14C1040.86 1463.09 1040.74 1463.89 1040.5 1464.57C1040.27 1465.23 1039.92 1465.74 1039.47 1466.1C1039.02 1466.44 1038.47 1466.62 1037.83 1466.62ZM1037.83 1465.68C1038.46 1465.68 1038.96 1465.37 1039.31 1464.76C1039.66 1464.15 1039.84 1463.27 1039.84 1462.14C1039.84 1461.38 1039.76 1460.74 1039.6 1460.21C1039.44 1459.67 1039.21 1459.27 1038.91 1458.99C1038.61 1458.71 1038.25 1458.57 1037.83 1458.57C1037.2 1458.57 1036.7 1458.88 1036.35 1459.51C1035.99 1460.13 1035.82 1461 1035.82 1462.14C1035.82 1462.89 1035.9 1463.53 1036.06 1464.06C1036.21 1464.59 1036.44 1464.99 1036.74 1465.27C1037.04 1465.54 1037.4 1465.68 1037.83 1465.68ZM1042.28 1464.71V1463.84L1046.11 1457.77H1046.74V1459.12H1046.32L1043.42 1463.7V1463.77H1048.58V1464.71H1042.28ZM1046.38 1466.5V1464.45V1464.04V1457.77H1047.39V1466.5H1046.38ZM1050.2 1468.95V1459.95H1051.17V1460.99H1051.29C1051.36 1460.88 1051.46 1460.74 1051.6 1460.56C1051.73 1460.38 1051.92 1460.22 1052.17 1460.08C1052.42 1459.94 1052.75 1459.87 1053.18 1459.87C1053.73 1459.87 1054.22 1460.01 1054.64 1460.28C1055.06 1460.56 1055.39 1460.95 1055.62 1461.45C1055.86 1461.96 1055.98 1462.56 1055.98 1463.24C1055.98 1463.94 1055.86 1464.54 1055.62 1465.05C1055.39 1465.55 1055.06 1465.94 1054.64 1466.22C1054.22 1466.5 1053.74 1466.64 1053.2 1466.64C1052.78 1466.64 1052.44 1466.57 1052.19 1466.43C1051.94 1466.29 1051.74 1466.12 1051.6 1465.95C1051.47 1465.76 1051.36 1465.61 1051.29 1465.49H1051.2V1468.95H1050.2ZM1051.19 1463.23C1051.19 1463.72 1051.26 1464.16 1051.4 1464.54C1051.55 1464.91 1051.76 1465.2 1052.04 1465.42C1052.32 1465.63 1052.66 1465.73 1053.06 1465.73C1053.48 1465.73 1053.83 1465.62 1054.11 1465.4C1054.4 1465.18 1054.61 1464.87 1054.75 1464.5C1054.9 1464.12 1054.97 1463.69 1054.97 1463.23C1054.97 1462.77 1054.9 1462.35 1054.76 1461.98C1054.62 1461.61 1054.41 1461.32 1054.12 1461.1C1053.84 1460.88 1053.49 1460.77 1053.06 1460.77C1052.65 1460.77 1052.31 1460.88 1052.03 1461.08C1051.75 1461.29 1051.54 1461.58 1051.4 1461.94C1051.26 1462.31 1051.19 1462.74 1051.19 1463.23ZM1057.99 1459.95L1059.56 1462.63L1061.13 1459.95H1062.29L1060.17 1463.23L1062.29 1466.5H1061.13L1059.56 1463.96L1057.99 1466.5H1056.83L1058.91 1463.23L1056.83 1459.95H1057.99Z" fill="black"/>
<rect x="1004.5" y="1386" width="334.5" height="152" stroke="#DFDFE2"/>
<rect x="25" y="1562" width="112" height="112" stroke="black"/>
<rect x="1" y="1538" width="669" height="160" stroke="#DFDFE2"/>
<path d="M697.972 1613.77V1622.5H696.915V1614.88H696.864L694.733 1616.3V1615.22L696.915 1613.77H697.972ZM700.277 1620.71V1619.84L704.112 1613.77H704.743V1615.12H704.317L701.419 1619.7V1619.77H706.584V1620.71H700.277ZM704.385 1622.5V1620.45V1620.04V1613.77H705.391V1622.5H704.385Z" fill="black"/>
<rect x="670" y="1538" width="334.5" height="160" stroke="#DFDFE2"/>
<path d="M1032.47 1613.77V1622.5H1031.41V1614.88H1031.36L1029.23 1616.3V1615.22L1031.41 1613.77H1032.47ZM1038.05 1613.77V1622.5H1036.99V1614.88H1036.94L1034.81 1616.3V1615.22L1036.99 1613.77H1038.05ZM1040.56 1622.5V1621.73L1043.44 1618.58C1043.78 1618.21 1044.06 1617.89 1044.28 1617.62C1044.49 1617.34 1044.66 1617.08 1044.76 1616.84C1044.87 1616.6 1044.92 1616.34 1044.92 1616.07C1044.92 1615.77 1044.85 1615.5 1044.7 1615.28C1044.56 1615.05 1044.36 1614.88 1044.11 1614.76C1043.85 1614.63 1043.57 1614.57 1043.25 1614.57C1042.92 1614.57 1042.62 1614.64 1042.38 1614.78C1042.13 1614.92 1041.94 1615.11 1041.8 1615.36C1041.67 1615.61 1041.6 1615.89 1041.6 1616.23H1040.59C1040.59 1615.72 1040.71 1615.27 1040.95 1614.88C1041.18 1614.49 1041.5 1614.19 1041.91 1613.98C1042.32 1613.76 1042.78 1613.65 1043.29 1613.65C1043.8 1613.65 1044.25 1613.76 1044.65 1613.98C1045.04 1614.19 1045.35 1614.48 1045.58 1614.85C1045.8 1615.22 1045.91 1615.62 1045.91 1616.07C1045.91 1616.39 1045.85 1616.71 1045.74 1617.02C1045.62 1617.32 1045.42 1617.66 1045.14 1618.03C1044.86 1618.41 1044.47 1618.86 1043.97 1619.4L1042.01 1621.49V1621.56H1046.07V1622.5H1040.56ZM1047.84 1624.95V1615.95H1048.81V1616.99H1048.93C1049.01 1616.88 1049.11 1616.74 1049.24 1616.56C1049.37 1616.38 1049.56 1616.22 1049.81 1616.08C1050.06 1615.94 1050.4 1615.87 1050.83 1615.87C1051.38 1615.87 1051.86 1616.01 1052.28 1616.28C1052.7 1616.56 1053.03 1616.95 1053.27 1617.45C1053.5 1617.96 1053.62 1618.56 1053.62 1619.24C1053.62 1619.94 1053.5 1620.54 1053.27 1621.05C1053.03 1621.55 1052.7 1621.94 1052.29 1622.22C1051.87 1622.5 1051.39 1622.64 1050.84 1622.64C1050.42 1622.64 1050.09 1622.57 1049.83 1622.43C1049.58 1622.29 1049.38 1622.12 1049.25 1621.95C1049.11 1621.76 1049.01 1621.61 1048.93 1621.49H1048.85V1624.95H1047.84ZM1048.83 1619.23C1048.83 1619.72 1048.9 1620.16 1049.05 1620.54C1049.19 1620.91 1049.4 1621.2 1049.68 1621.42C1049.96 1621.63 1050.3 1621.73 1050.71 1621.73C1051.13 1621.73 1051.48 1621.62 1051.76 1621.4C1052.04 1621.18 1052.26 1620.87 1052.4 1620.5C1052.54 1620.12 1052.62 1619.69 1052.62 1619.23C1052.62 1618.77 1052.54 1618.35 1052.4 1617.98C1052.26 1617.61 1052.05 1617.32 1051.77 1617.1C1051.49 1616.88 1051.13 1616.77 1050.71 1616.77C1050.3 1616.77 1049.95 1616.88 1049.67 1617.08C1049.4 1617.29 1049.19 1617.58 1049.04 1617.94C1048.9 1618.31 1048.83 1618.74 1048.83 1619.23ZM1055.64 1615.95L1057.2 1618.63L1058.77 1615.95H1059.93L1057.82 1619.23L1059.93 1622.5H1058.77L1057.2 1619.96L1055.64 1622.5H1054.48L1056.56 1619.23L1054.48 1615.95H1055.64Z" fill="black"/>
<rect x="1004.5" y="1538" width="334.5" height="160" stroke="#DFDFE2"/>
<rect x="25" y="1722" width="120" height="120" stroke="black"/>
<rect x="1" y="1698" width="669" height="168" stroke="#DFDFE2"/>
<path d="M694.92 1786.5V1779.95H695.892V1780.98H695.977C696.114 1780.63 696.334 1780.36 696.638 1780.16C696.942 1779.97 697.307 1779.87 697.733 1779.87C698.165 1779.87 698.524 1779.97 698.811 1780.16C699.101 1780.36 699.327 1780.63 699.489 1780.98H699.557C699.724 1780.64 699.976 1780.37 700.311 1780.17C700.646 1779.97 701.048 1779.87 701.517 1779.87C702.102 1779.87 702.581 1780.05 702.953 1780.42C703.325 1780.78 703.511 1781.35 703.511 1782.12V1786.5H702.506V1782.12C702.506 1781.64 702.374 1781.29 702.109 1781.08C701.845 1780.88 701.534 1780.77 701.176 1780.77C700.716 1780.77 700.359 1780.91 700.107 1781.19C699.854 1781.47 699.727 1781.82 699.727 1782.24V1786.5H698.705V1782.02C698.705 1781.64 698.584 1781.35 698.342 1781.12C698.101 1780.89 697.79 1780.77 697.409 1780.77C697.148 1780.77 696.903 1780.84 696.676 1780.98C696.452 1781.12 696.27 1781.31 696.131 1781.56C695.994 1781.81 695.926 1782.09 695.926 1782.41V1786.5H694.92ZM707.276 1786.65C706.862 1786.65 706.485 1786.58 706.147 1786.42C705.809 1786.26 705.54 1786.03 705.342 1785.73C705.143 1785.43 705.043 1785.07 705.043 1784.64C705.043 1784.27 705.117 1783.96 705.265 1783.73C705.413 1783.49 705.61 1783.31 705.857 1783.18C706.104 1783.04 706.377 1782.94 706.675 1782.88C706.977 1782.81 707.279 1782.76 707.583 1782.72C707.981 1782.66 708.303 1782.63 708.55 1782.6C708.8 1782.57 708.982 1782.53 709.096 1782.46C709.212 1782.39 709.271 1782.28 709.271 1782.12V1782.09C709.271 1781.66 709.156 1781.34 708.925 1781.11C708.698 1780.87 708.353 1780.76 707.89 1780.76C707.41 1780.76 707.033 1780.86 706.761 1781.07C706.488 1781.28 706.296 1781.51 706.185 1781.74L705.231 1781.4C705.401 1781.01 705.629 1780.7 705.913 1780.47C706.2 1780.25 706.512 1780.09 706.85 1780.01C707.191 1779.91 707.526 1779.87 707.856 1779.87C708.066 1779.87 708.308 1779.89 708.58 1779.95C708.856 1779.99 709.121 1780.1 709.377 1780.25C709.636 1780.4 709.85 1780.63 710.021 1780.94C710.191 1781.25 710.276 1781.67 710.276 1782.19V1786.5H709.271V1785.61H709.219C709.151 1785.76 709.038 1785.91 708.879 1786.07C708.719 1786.23 708.508 1786.37 708.244 1786.48C707.979 1786.6 707.657 1786.65 707.276 1786.65ZM707.43 1785.75C707.827 1785.75 708.163 1785.67 708.435 1785.52C708.711 1785.36 708.918 1785.16 709.058 1784.91C709.2 1784.66 709.271 1784.4 709.271 1784.13V1783.21C709.228 1783.26 709.134 1783.31 708.989 1783.35C708.847 1783.39 708.683 1783.43 708.495 1783.46C708.31 1783.49 708.13 1783.51 707.954 1783.53C707.781 1783.55 707.64 1783.57 707.532 1783.59C707.271 1783.62 707.026 1783.67 706.799 1783.75C706.575 1783.83 706.393 1783.94 706.254 1784.09C706.117 1784.24 706.049 1784.44 706.049 1784.69C706.049 1785.04 706.178 1785.31 706.437 1785.49C706.698 1785.66 707.029 1785.75 707.43 1785.75ZM712.862 1779.95L714.43 1782.63L715.998 1779.95H717.157L715.044 1783.23L717.157 1786.5H715.998L714.43 1783.96L712.862 1786.5H711.703L713.782 1783.23L711.703 1779.95H712.862Z" fill="black"/>
<rect x="670" y="1698" width="334.5" height="168" stroke="#DFDFE2"/>
<path d="M1032.47 1777.77V1786.5H1031.41V1778.88H1031.36L1029.23 1780.3V1779.22L1031.41 1777.77H1032.47ZM1034.98 1786.5V1785.73L1037.86 1782.58C1038.2 1782.21 1038.48 1781.89 1038.7 1781.62C1038.92 1781.34 1039.08 1781.08 1039.18 1780.84C1039.29 1780.6 1039.35 1780.34 1039.35 1780.07C1039.35 1779.77 1039.27 1779.5 1039.12 1779.28C1038.98 1779.05 1038.78 1778.88 1038.53 1778.76C1038.27 1778.63 1037.99 1778.57 1037.67 1778.57C1037.34 1778.57 1037.05 1778.64 1036.8 1778.78C1036.55 1778.92 1036.36 1779.11 1036.22 1779.36C1036.09 1779.61 1036.02 1779.89 1036.02 1780.23H1035.02C1035.02 1779.72 1035.13 1779.27 1035.37 1778.88C1035.61 1778.49 1035.93 1778.19 1036.33 1777.98C1036.74 1777.76 1037.2 1777.65 1037.71 1777.65C1038.22 1777.65 1038.67 1777.76 1039.07 1777.98C1039.46 1778.19 1039.77 1778.48 1040 1778.85C1040.22 1779.22 1040.33 1779.62 1040.33 1780.07C1040.33 1780.39 1040.28 1780.71 1040.16 1781.02C1040.05 1781.32 1039.85 1781.66 1039.56 1782.03C1039.28 1782.41 1038.89 1782.86 1038.39 1783.4L1036.43 1785.49V1785.56H1040.49V1786.5H1034.98ZM1045.09 1786.62C1044.45 1786.62 1043.9 1786.44 1043.45 1786.1C1043 1785.74 1042.66 1785.23 1042.42 1784.57C1042.18 1783.89 1042.06 1783.09 1042.06 1782.14C1042.06 1781.19 1042.18 1780.39 1042.42 1779.72C1042.66 1779.05 1043.01 1778.54 1043.46 1778.19C1043.91 1777.83 1044.46 1777.65 1045.09 1777.65C1045.73 1777.65 1046.27 1777.83 1046.73 1778.19C1047.18 1778.54 1047.53 1779.05 1047.77 1779.72C1048.01 1780.39 1048.13 1781.19 1048.13 1782.14C1048.13 1783.09 1048.01 1783.89 1047.77 1784.57C1047.53 1785.23 1047.19 1785.74 1046.73 1786.1C1046.28 1786.44 1045.74 1786.62 1045.09 1786.62ZM1045.09 1785.68C1045.73 1785.68 1046.22 1785.37 1046.58 1784.76C1046.93 1784.15 1047.11 1783.27 1047.11 1782.14C1047.11 1781.38 1047.02 1780.74 1046.86 1780.21C1046.7 1779.67 1046.47 1779.27 1046.17 1778.99C1045.87 1778.71 1045.51 1778.57 1045.09 1778.57C1044.46 1778.57 1043.97 1778.88 1043.62 1779.51C1043.26 1780.13 1043.08 1781 1043.08 1782.14C1043.08 1782.89 1043.16 1783.53 1043.32 1784.06C1043.48 1784.59 1043.71 1784.99 1044.01 1785.27C1044.31 1785.54 1044.67 1785.68 1045.09 1785.68ZM1049.76 1788.95V1779.95H1050.74V1780.99H1050.86C1050.93 1780.88 1051.03 1780.74 1051.16 1780.56C1051.3 1780.38 1051.49 1780.22 1051.73 1780.08C1051.98 1779.94 1052.32 1779.87 1052.75 1779.87C1053.3 1779.87 1053.78 1780.01 1054.2 1780.28C1054.63 1780.56 1054.95 1780.95 1055.19 1781.45C1055.42 1781.96 1055.54 1782.56 1055.54 1783.24C1055.54 1783.94 1055.42 1784.54 1055.19 1785.05C1054.95 1785.55 1054.63 1785.94 1054.21 1786.22C1053.79 1786.5 1053.31 1786.64 1052.76 1786.64C1052.34 1786.64 1052.01 1786.57 1051.75 1786.43C1051.5 1786.29 1051.31 1786.12 1051.17 1785.95C1051.03 1785.76 1050.93 1785.61 1050.86 1785.49H1050.77V1788.95H1049.76ZM1050.75 1783.23C1050.75 1783.72 1050.83 1784.16 1050.97 1784.54C1051.12 1784.91 1051.33 1785.2 1051.61 1785.42C1051.88 1785.63 1052.22 1785.73 1052.63 1785.73C1053.05 1785.73 1053.4 1785.62 1053.68 1785.4C1053.96 1785.18 1054.18 1784.87 1054.32 1784.5C1054.46 1784.12 1054.54 1783.69 1054.54 1783.23C1054.54 1782.77 1054.47 1782.35 1054.32 1781.98C1054.18 1781.61 1053.97 1781.32 1053.69 1781.1C1053.41 1780.88 1053.05 1780.77 1052.63 1780.77C1052.22 1780.77 1051.88 1780.88 1051.6 1781.08C1051.32 1781.29 1051.11 1781.58 1050.97 1781.94C1050.82 1782.31 1050.75 1782.74 1050.75 1783.23ZM1057.56 1779.95L1059.13 1782.63L1060.69 1779.95H1061.85L1059.74 1783.23L1061.85 1786.5H1060.69L1059.13 1783.96L1057.56 1786.5H1056.4L1058.48 1783.23L1056.4 1779.95H1057.56Z" fill="black"/>
<rect x="1004.5" y="1698" width="334.5" height="168" stroke="#DFDFE2"/>
</svg>
