<svg width="58" height="32" viewBox="0 0 58 32" fill="none" xmlns="http://www.w3.org/2000/svg">
<path d="M20.604 24.2868H6.84375V15.6915H20.591L20.604 24.2868ZM13.7087 16.3811C12.5342 16.3823 11.3782 16.6772 10.3433 17.2396C9.30837 17.802 8.42656 18.6144 7.77613 19.6049C7.69008 19.7055 7.64272 19.8341 7.64272 19.9672C7.64272 20.1003 7.69008 20.229 7.77613 20.3296C8.43074 21.3154 9.31423 22.1235 10.3491 22.683C11.384 23.2424 12.5386 23.5361 13.7116 23.5383C14.8847 23.5404 16.0404 23.251 17.0772 22.6954C18.1141 22.1398 19.0005 21.335 19.6586 20.3515C19.7525 20.2452 19.8044 20.1076 19.8044 19.965C19.8044 19.8224 19.7525 19.6848 19.6586 19.5785C19.0023 18.5921 18.116 17.7848 17.0783 17.2278C16.0405 16.6709 14.8832 16.3816 13.7087 16.3855V16.3811Z" fill="black"/>
<path d="M13.7478 14.8877C12.5808 14.8854 11.4318 14.5964 10.3993 14.0457C9.36676 13.4949 8.48154 12.6987 7.81951 11.7254C7.70913 11.6065 7.64768 11.4494 7.64768 11.2862C7.64768 11.123 7.70913 10.9659 7.81951 10.847C8.48117 9.87549 9.36698 9.0822 10.4 8.53603C11.4331 7.98987 12.5821 7.70735 13.7475 7.71297C14.9128 7.7186 16.0591 8.01221 17.087 8.56832C18.1149 9.12444 18.9931 9.92623 19.6456 10.9041C19.7392 11.0097 19.7909 11.1465 19.7909 11.2884C19.7909 11.4303 19.7392 11.5671 19.6456 11.6727C18.9939 12.6531 18.1165 13.4581 17.0889 14.0182C16.0614 14.5784 14.9146 14.8768 13.7478 14.8877ZM16.3151 11.3301C16.3271 10.8065 16.1849 10.2911 15.9064 9.8497C15.6279 9.40832 15.2259 9.06101 14.7516 8.85209C14.2773 8.64317 13.7523 8.58213 13.2437 8.67676C12.735 8.77139 12.2657 9.0174 11.8957 9.38338C11.5257 9.74936 11.2718 10.2187 11.1664 10.7315C11.061 11.2443 11.1088 11.7773 11.3039 12.2624C11.4989 12.7475 11.8322 13.1628 12.2614 13.4552C12.6905 13.7475 13.1959 13.9038 13.7131 13.9039C14.3928 13.9041 15.0456 13.6349 15.5318 13.1539C16.0181 12.6729 16.2992 12.0183 16.3151 11.3301Z" fill="black"/>
<path d="M13.7216 22.5607C13.2173 22.552 12.7268 22.3926 12.3117 22.1024C11.8966 21.8123 11.5754 21.4044 11.3885 20.9299C11.2016 20.4555 11.1573 19.9356 11.2612 19.4358C11.3652 18.9359 11.6126 18.4783 11.9726 18.1205C12.3325 17.7626 12.7888 17.5205 13.2842 17.4245C13.7796 17.3285 14.292 17.383 14.7569 17.581C15.2218 17.779 15.6186 18.1118 15.8974 18.5375C16.1761 18.9632 16.3244 19.4629 16.3236 19.9737C16.3225 20.3172 16.2541 20.6571 16.1224 20.9736C15.9906 21.2901 15.7981 21.577 15.5561 21.8176C15.3141 22.0582 15.0273 22.2478 14.7124 22.3754C14.3975 22.5029 14.0607 22.5659 13.7216 22.5607Z" fill="black"/>
<path d="M24.3867 19.4291V12.5195H25.6384V18.3798H28.6815V19.4291H24.3867Z" fill="black"/>
<path d="M31.7843 19.5303C31.2783 19.5303 30.8397 19.4189 30.4686 19.1963C30.0974 18.9736 29.8095 18.6621 29.6049 18.2617C29.4024 17.8614 29.3012 17.3935 29.3012 16.8582C29.3012 16.3229 29.4024 15.854 29.6049 15.4514C29.8095 15.0488 30.0974 14.7361 30.4686 14.5134C30.8397 14.2908 31.2783 14.1794 31.7843 14.1794C32.2904 14.1794 32.729 14.2908 33.1001 14.5134C33.4712 14.7361 33.758 15.0488 33.9604 15.4514C34.1651 15.854 34.2674 16.3229 34.2674 16.8582C34.2674 17.3935 34.1651 17.8614 33.9604 18.2617C33.758 18.6621 33.4712 18.9736 33.1001 19.1963C32.729 19.4189 32.2904 19.5303 31.7843 19.5303ZM31.7911 18.5519C32.0655 18.5519 32.2949 18.4765 32.4793 18.3258C32.6638 18.1729 32.801 17.9682 32.8909 17.7118C32.9831 17.4554 33.0293 17.1697 33.0293 16.8549C33.0293 16.5377 32.9831 16.2509 32.8909 15.9945C32.801 15.7359 32.6638 15.5301 32.4793 15.3771C32.2949 15.2242 32.0655 15.1477 31.7911 15.1477C31.5099 15.1477 31.276 15.2242 31.0893 15.3771C30.9049 15.5301 30.7666 15.7359 30.6744 15.9945C30.5844 16.2509 30.5394 16.5377 30.5394 16.8549C30.5394 17.1697 30.5844 17.4554 30.6744 17.7118C30.7666 17.9682 30.9049 18.1729 31.0893 18.3258C31.276 18.4765 31.5099 18.5519 31.7911 18.5519Z" fill="black"/>
<path d="M37.3677 21.4803C36.9291 21.4803 36.5524 21.4207 36.2375 21.3015C35.9226 21.1846 35.6696 21.0271 35.4784 20.8292C35.2872 20.6313 35.1545 20.412 35.0803 20.1713L36.1801 19.9048C36.2296 20.006 36.3016 20.1061 36.396 20.205C36.4905 20.3063 36.6176 20.3895 36.7773 20.4547C36.9392 20.5222 37.1428 20.5559 37.3879 20.5559C37.7343 20.5559 38.0211 20.4716 38.2483 20.3029C38.4754 20.1364 38.589 19.862 38.589 19.4797V18.4979H38.5283C38.4653 18.6239 38.3731 18.7532 38.2516 18.8859C38.1324 19.0186 37.9739 19.1299 37.7759 19.2199C37.5802 19.3099 37.334 19.3548 37.0371 19.3548C36.639 19.3548 36.278 19.2615 35.9541 19.0748C35.6324 18.8859 35.376 18.6047 35.1849 18.2314C34.9959 17.8558 34.9015 17.3857 34.9015 16.8211C34.9015 16.2521 34.9959 15.7719 35.1849 15.3805C35.376 14.9869 35.6336 14.6889 35.9575 14.4865C36.2813 14.2818 36.6423 14.1794 37.0404 14.1794C37.3441 14.1794 37.5937 14.2312 37.7894 14.3346C37.9873 14.4358 38.1448 14.5584 38.2617 14.7024C38.3787 14.8441 38.4675 14.9779 38.5283 15.1039H38.5957V14.2469H39.8002V19.5134C39.8002 19.9565 39.6945 20.3231 39.4831 20.6133C39.2716 20.9034 38.9826 21.1205 38.616 21.2644C38.2494 21.4084 37.8333 21.4803 37.3677 21.4803ZM37.3778 18.3967C37.6365 18.3967 37.8569 18.3337 38.0391 18.2078C38.2213 18.0818 38.3596 17.9007 38.4541 17.6646C38.5485 17.4284 38.5957 17.145 38.5957 16.8144C38.5957 16.4882 38.5485 16.2026 38.4541 15.9574C38.3618 15.7123 38.2246 15.5222 38.0424 15.3873C37.8625 15.2501 37.641 15.1815 37.3778 15.1815C37.1057 15.1815 36.8785 15.2523 36.6963 15.394C36.5141 15.5357 36.3769 15.7303 36.2847 15.9777C36.1925 16.2228 36.1464 16.5017 36.1464 16.8144C36.1464 17.1315 36.1925 17.4093 36.2847 17.6477C36.3792 17.8839 36.5175 18.0683 36.6997 18.201C36.8841 18.3315 37.1102 18.3967 37.3778 18.3967Z" fill="black"/>
<path d="M43.1223 19.5303C42.6162 19.5303 42.1776 19.4189 41.8065 19.1963C41.4354 18.9736 41.1475 18.6621 40.9428 18.2617C40.7404 17.8614 40.6392 17.3935 40.6392 16.8582C40.6392 16.3229 40.7404 15.854 40.9428 15.4514C41.1475 15.0488 41.4354 14.7361 41.8065 14.5134C42.1776 14.2908 42.6162 14.1794 43.1223 14.1794C43.6283 14.1794 44.0669 14.2908 44.4381 14.5134C44.8092 14.7361 45.0959 15.0488 45.2984 15.4514C45.503 15.854 45.6054 16.3229 45.6054 16.8582C45.6054 17.3935 45.503 17.8614 45.2984 18.2617C45.0959 18.6621 44.8092 18.9736 44.4381 19.1963C44.0669 19.4189 43.6283 19.5303 43.1223 19.5303ZM43.129 18.5519C43.4034 18.5519 43.6328 18.4765 43.8173 18.3258C44.0017 18.1729 44.1389 17.9682 44.2289 17.7118C44.3211 17.4554 44.3672 17.1697 44.3672 16.8549C44.3672 16.5377 44.3211 16.2509 44.2289 15.9945C44.1389 15.7359 44.0017 15.5301 43.8173 15.3771C43.6328 15.2242 43.4034 15.1477 43.129 15.1477C42.8479 15.1477 42.614 15.2242 42.4273 15.3771C42.2428 15.5301 42.1045 15.7359 42.0123 15.9945C41.9223 16.2509 41.8774 16.5377 41.8774 16.8549C41.8774 17.1697 41.9223 17.4554 42.0123 17.7118C42.1045 17.9682 42.2428 18.1729 42.4273 18.3258C42.614 18.4765 42.8479 18.5519 43.129 18.5519Z" fill="black"/>
<path d="M50.5477 15.6167L49.4344 15.7381C49.4029 15.6257 49.3478 15.52 49.2691 15.421C49.1926 15.322 49.0891 15.2422 48.9587 15.1815C48.8282 15.1207 48.6685 15.0904 48.4796 15.0904C48.2254 15.0904 48.0118 15.1455 47.8386 15.2557C47.6676 15.3659 47.5833 15.5087 47.5855 15.6842C47.5833 15.8348 47.6384 15.9574 47.7509 16.0519C47.8656 16.1464 48.0545 16.224 48.3177 16.2847L49.2016 16.4736C49.6919 16.5793 50.0563 16.7469 50.2947 16.9763C50.5354 17.2057 50.6568 17.506 50.6591 17.8771C50.6568 18.2033 50.5612 18.4912 50.3723 18.7408C50.1856 18.9882 49.9258 19.1817 49.5929 19.3211C49.2601 19.4606 48.8777 19.5303 48.4459 19.5303C47.8116 19.5303 47.301 19.3976 46.9142 19.1322C46.5273 18.8645 46.2968 18.4923 46.2225 18.0154L47.4135 17.9007C47.4675 18.1347 47.5822 18.3112 47.7576 18.4304C47.933 18.5496 48.1613 18.6092 48.4425 18.6092C48.7326 18.6092 48.9654 18.5496 49.1409 18.4304C49.3185 18.3112 49.4074 18.1639 49.4074 17.9885C49.4074 17.84 49.35 17.7174 49.2353 17.6207C49.1229 17.524 48.9474 17.4498 48.709 17.398L47.8251 17.2125C47.328 17.109 46.9603 16.9347 46.7219 16.6895C46.4834 16.4421 46.3654 16.1295 46.3676 15.7516C46.3654 15.4322 46.452 15.1556 46.6274 14.9217C46.8051 14.6855 47.0514 14.5033 47.3662 14.3751C47.6834 14.2447 48.0489 14.1794 48.4627 14.1794C49.07 14.1794 49.548 14.3088 49.8966 14.5674C50.2475 14.8261 50.4645 15.1758 50.5477 15.6167Z" fill="black"/>
</svg>
